<svg xmlns="http://www.w3.org/2000/svg" xmlns:xlink="http://www.w3.org/1999/xlink" width="500" zoomAndPan="magnify" viewBox="0 0 375 374.999991" height="500" preserveAspectRatio="xMidYMid meet" version="1.0"><defs><g/><clipPath id="id1"><path d="M 123 192 L 177 192 L 177 250.5 L 123 250.5 Z M 123 192 " clip-rule="nonzero"/></clipPath><clipPath id="id2"><path d="M 99.503906 249 L 293 249 L 293 250.5 L 99.503906 250.5 Z M 99.503906 249 " clip-rule="nonzero"/></clipPath><clipPath id="id3"><path d="M 101 37.5 L 140 37.5 L 140 78 L 101 78 Z M 101 37.5 " clip-rule="nonzero"/></clipPath></defs><rect x="-37.5" width="450" fill="#ffffff" y="-37.499999" height="449.999989" fill-opacity="1"/><rect x="-37.5" width="450" fill="#f3f4f5" y="-37.499999" height="449.999989" fill-opacity="1"/><rect x="-37.5" width="450" fill="#ffffff" y="-37.499999" height="449.999989" fill-opacity="1"/><rect x="-37.5" width="450" fill="#f3f4f5" y="-37.499999" height="449.999989" fill-opacity="1"/><path fill="#f2f2f2" d="M 180.941406 136.320312 C 179.4375 136.320312 177.9375 136.246094 176.441406 136.097656 C 174.945312 135.949219 173.457031 135.730469 171.980469 135.4375 C 170.507812 135.144531 169.050781 134.777344 167.609375 134.34375 C 166.171875 133.90625 164.757812 133.398438 163.367188 132.824219 C 161.976562 132.25 160.617188 131.605469 159.292969 130.898438 C 157.964844 130.1875 156.675781 129.414062 155.425781 128.582031 C 154.175781 127.746094 152.96875 126.851562 151.804688 125.894531 C 150.644531 124.941406 149.53125 123.933594 148.46875 122.871094 C 147.402344 121.804688 146.394531 120.691406 145.441406 119.53125 C 144.484375 118.367188 143.589844 117.160156 142.753906 115.910156 C 141.917969 114.660156 141.148438 113.371094 140.4375 112.046875 C 139.730469 110.71875 139.085938 109.363281 138.511719 107.972656 C 137.9375 106.582031 137.429688 105.167969 136.992188 103.730469 C 136.554688 102.289062 136.191406 100.832031 135.898438 99.359375 C 135.605469 97.882812 135.382812 96.398438 135.238281 94.902344 C 135.089844 93.402344 135.015625 91.902344 135.015625 90.398438 C 135.015625 88.894531 135.089844 87.394531 135.238281 85.898438 C 135.382812 84.402344 135.605469 82.917969 135.898438 81.441406 C 136.191406 79.964844 136.554688 78.507812 136.992188 77.070312 C 137.429688 75.628906 137.9375 74.214844 138.511719 72.828125 C 139.085938 71.4375 139.730469 70.078125 140.4375 68.753906 C 141.148438 67.425781 141.917969 66.136719 142.753906 64.886719 C 143.589844 63.636719 144.484375 62.429688 145.441406 61.269531 C 146.394531 60.105469 147.402344 58.992188 148.46875 57.929688 C 149.53125 56.867188 150.644531 55.855469 151.804688 54.902344 C 152.96875 53.949219 154.175781 53.054688 155.425781 52.21875 C 156.675781 51.382812 157.964844 50.609375 159.292969 49.902344 C 160.617188 49.191406 161.976562 48.550781 163.367188 47.976562 C 164.757812 47.398438 166.171875 46.894531 167.609375 46.457031 C 169.050781 46.019531 170.507812 45.65625 171.980469 45.363281 C 173.457031 45.070312 174.945312 44.847656 176.441406 44.699219 C 177.9375 44.554688 179.4375 44.480469 180.941406 44.480469 C 182.445312 44.480469 183.945312 44.554688 185.445312 44.699219 C 186.941406 44.847656 188.425781 45.070312 189.902344 45.363281 C 191.375 45.65625 192.835938 46.019531 194.273438 46.457031 C 195.714844 46.894531 197.128906 47.398438 198.515625 47.976562 C 199.90625 48.550781 201.265625 49.191406 202.589844 49.902344 C 203.917969 50.609375 205.207031 51.382812 206.457031 52.21875 C 207.707031 53.054688 208.914062 53.949219 210.078125 54.902344 C 211.238281 55.855469 212.351562 56.867188 213.417969 57.929688 C 214.480469 58.992188 215.488281 60.105469 216.445312 61.269531 C 217.398438 62.429688 218.292969 63.636719 219.128906 64.886719 C 219.964844 66.136719 220.734375 67.425781 221.445312 68.753906 C 222.15625 70.078125 222.796875 71.4375 223.371094 72.828125 C 223.949219 74.214844 224.453125 75.628906 224.890625 77.070312 C 225.328125 78.507812 225.691406 79.964844 225.984375 81.441406 C 226.277344 82.917969 226.5 84.402344 226.648438 85.898438 C 226.792969 87.394531 226.867188 88.894531 226.867188 90.398438 C 226.867188 91.902344 226.792969 93.402344 226.640625 94.898438 C 226.492188 96.394531 226.273438 97.878906 225.976562 99.355469 C 225.683594 100.828125 225.316406 102.285156 224.878906 103.722656 C 224.441406 105.160156 223.933594 106.574219 223.359375 107.964844 C 222.78125 109.351562 222.140625 110.710938 221.429688 112.035156 C 220.71875 113.359375 219.949219 114.648438 219.113281 115.898438 C 218.277344 117.148438 217.382812 118.355469 216.425781 119.515625 C 215.472656 120.679688 214.464844 121.792969 213.402344 122.855469 C 212.339844 123.917969 211.226562 124.925781 210.0625 125.878906 C 208.902344 126.832031 207.695312 127.730469 206.445312 128.5625 C 205.195312 129.398438 203.90625 130.171875 202.582031 130.882812 C 201.253906 131.589844 199.898438 132.234375 198.507812 132.808594 C 197.121094 133.386719 195.707031 133.894531 194.269531 134.332031 C 192.828125 134.769531 191.371094 135.132812 189.898438 135.429688 C 188.421875 135.722656 186.9375 135.945312 185.441406 136.09375 C 183.945312 136.242188 182.445312 136.316406 180.941406 136.320312 Z M 180.941406 45.203125 C 179.460938 45.203125 177.984375 45.277344 176.511719 45.421875 C 175.039062 45.566406 173.574219 45.78125 172.125 46.070312 C 170.671875 46.359375 169.238281 46.71875 167.820312 47.148438 C 166.402344 47.578125 165.011719 48.078125 163.644531 48.644531 C 162.277344 49.210938 160.9375 49.84375 159.632812 50.539062 C 158.328125 51.238281 157.058594 51.996094 155.828125 52.820312 C 154.597656 53.640625 153.410156 54.523438 152.265625 55.460938 C 151.121094 56.402344 150.023438 57.394531 148.976562 58.441406 C 147.929688 59.488281 146.9375 60.582031 146 61.726562 C 145.058594 62.871094 144.179688 64.058594 143.355469 65.289062 C 142.535156 66.519531 141.773438 67.789062 141.078125 69.09375 C 140.378906 70.398438 139.746094 71.734375 139.179688 73.105469 C 138.613281 74.472656 138.113281 75.863281 137.683594 77.28125 C 137.253906 78.695312 136.894531 80.128906 136.605469 81.582031 C 136.320312 83.035156 136.101562 84.496094 135.957031 85.96875 C 135.8125 87.441406 135.738281 88.917969 135.738281 90.398438 C 135.738281 91.878906 135.8125 93.355469 135.957031 94.828125 C 136.101562 96.300781 136.320312 97.765625 136.605469 99.21875 C 136.894531 100.667969 137.253906 102.101562 137.683594 103.519531 C 138.113281 104.9375 138.613281 106.328125 139.179688 107.695312 C 139.746094 109.0625 140.378906 110.398438 141.078125 111.703125 C 141.773438 113.011719 142.535156 114.277344 143.355469 115.507812 C 144.179688 116.738281 145.058594 117.925781 146 119.070312 C 146.9375 120.214844 147.929688 121.3125 148.976562 122.359375 C 150.023438 123.40625 151.121094 124.398438 152.265625 125.335938 C 153.410156 126.277344 154.597656 127.15625 155.828125 127.980469 C 157.058594 128.800781 158.328125 129.5625 159.632812 130.257812 C 160.9375 130.957031 162.277344 131.589844 163.644531 132.15625 C 165.011719 132.722656 166.402344 133.21875 167.820312 133.648438 C 169.238281 134.078125 170.671875 134.4375 172.125 134.726562 C 173.574219 135.015625 175.039062 135.234375 176.511719 135.378906 C 177.984375 135.523438 179.460938 135.597656 180.941406 135.597656 C 182.421875 135.597656 183.898438 135.523438 185.371094 135.378906 C 186.847656 135.234375 188.308594 135.015625 189.761719 134.726562 C 191.210938 134.4375 192.648438 134.078125 194.0625 133.648438 C 195.480469 133.21875 196.871094 132.722656 198.242188 132.15625 C 199.609375 131.589844 200.945312 130.957031 202.25 130.257812 C 203.554688 129.5625 204.824219 128.800781 206.054688 127.980469 C 207.285156 127.15625 208.472656 126.277344 209.617188 125.335938 C 210.761719 124.398438 211.859375 123.40625 212.90625 122.359375 C 213.953125 121.3125 214.945312 120.214844 215.882812 119.070312 C 216.824219 117.925781 217.703125 116.738281 218.527344 115.507812 C 219.347656 114.277344 220.109375 113.011719 220.808594 111.703125 C 221.503906 110.398438 222.136719 109.0625 222.703125 107.695312 C 223.269531 106.328125 223.769531 104.9375 224.199219 103.519531 C 224.628906 102.101562 224.988281 100.667969 225.277344 99.21875 C 225.566406 97.765625 225.78125 96.300781 225.925781 94.828125 C 226.074219 93.355469 226.144531 91.878906 226.144531 90.398438 C 226.144531 88.917969 226.070312 87.445312 225.921875 85.972656 C 225.777344 84.5 225.558594 83.035156 225.269531 81.585938 C 224.976562 80.132812 224.617188 78.703125 224.1875 77.285156 C 223.757812 75.871094 223.257812 74.476562 222.691406 73.113281 C 222.125 71.746094 221.492188 70.410156 220.792969 69.105469 C 220.09375 67.800781 219.332031 66.53125 218.511719 65.300781 C 217.6875 64.070312 216.808594 62.882812 215.867188 61.742188 C 214.929688 60.597656 213.9375 59.503906 212.890625 58.457031 C 211.84375 57.410156 210.75 56.417969 209.605469 55.476562 C 208.460938 54.539062 207.273438 53.660156 206.042969 52.835938 C 204.8125 52.011719 203.546875 51.253906 202.242188 50.554688 C 200.933594 49.855469 199.597656 49.222656 198.234375 48.65625 C 196.867188 48.089844 195.472656 47.589844 194.058594 47.160156 C 192.640625 46.730469 191.207031 46.371094 189.757812 46.078125 C 188.304688 45.789062 186.84375 45.570312 185.371094 45.425781 C 183.898438 45.277344 182.421875 45.203125 180.941406 45.203125 Z M 180.941406 45.203125 " fill-opacity="1" fill-rule="nonzero"/><path fill="#3f3d56" d="M 184.445312 100.449219 L 213.894531 100.449219 C 213.996094 100.449219 214.078125 100.414062 214.152344 100.339844 C 214.222656 100.269531 214.257812 100.1875 214.257812 100.085938 C 214.257812 99.984375 214.222656 99.902344 214.152344 99.832031 C 214.078125 99.757812 213.996094 99.722656 213.894531 99.722656 L 184.445312 99.722656 C 184.347656 99.722656 184.261719 99.757812 184.191406 99.832031 C 184.121094 99.902344 184.085938 99.984375 184.085938 100.085938 C 184.085938 100.1875 184.121094 100.269531 184.191406 100.339844 C 184.261719 100.414062 184.347656 100.449219 184.445312 100.449219 Z M 184.445312 100.449219 " fill-opacity="1" fill-rule="nonzero"/><path fill="#ffffff" d="M 221.230469 99.363281 C 220.625 99.363281 220.019531 99.421875 219.425781 99.542969 C 218.828125 99.660156 218.246094 99.839844 217.6875 100.070312 C 217.125 100.304688 216.589844 100.589844 216.082031 100.929688 C 215.578125 101.265625 215.109375 101.652344 214.679688 102.082031 C 214.25 102.511719 213.863281 102.980469 213.527344 103.484375 C 213.1875 103.992188 212.902344 104.523438 212.667969 105.085938 C 212.4375 105.648438 212.261719 106.226562 212.140625 106.824219 C 212.019531 107.421875 211.960938 108.023438 211.960938 108.632812 L 211.960938 147.945312 C 211.960938 148.554688 212.019531 149.15625 212.140625 149.753906 C 212.257812 150.347656 212.4375 150.929688 212.667969 151.488281 C 212.902344 152.050781 213.1875 152.585938 213.527344 153.09375 C 213.863281 153.597656 214.25 154.066406 214.679688 154.496094 C 215.109375 154.925781 215.578125 155.3125 216.082031 155.648438 C 216.589844 155.988281 217.125 156.273438 217.6875 156.503906 C 218.246094 156.738281 218.828125 156.914062 219.425781 157.035156 C 220.019531 157.152344 220.625 157.214844 221.230469 157.214844 L 282.246094 157.214844 C 282.855469 157.214844 283.457031 157.152344 284.054688 157.035156 C 284.652344 156.914062 285.230469 156.738281 285.792969 156.507812 C 286.355469 156.273438 286.890625 155.988281 287.394531 155.648438 C 287.902344 155.3125 288.371094 154.925781 288.800781 154.496094 C 289.230469 154.066406 289.613281 153.597656 289.953125 153.09375 C 290.289062 152.585938 290.578125 152.050781 290.808594 151.492188 C 291.042969 150.929688 291.21875 150.347656 291.339844 149.753906 C 291.457031 149.15625 291.515625 148.554688 291.519531 147.945312 L 291.519531 108.632812 C 291.515625 108.023438 291.457031 107.421875 291.339844 106.824219 C 291.21875 106.226562 291.042969 105.648438 290.808594 105.085938 C 290.578125 104.523438 290.289062 103.992188 289.953125 103.484375 C 289.613281 102.980469 289.230469 102.511719 288.800781 102.082031 C 288.371094 101.652344 287.902344 101.265625 287.394531 100.929688 C 286.890625 100.589844 286.355469 100.304688 285.792969 100.070312 C 285.230469 99.839844 284.652344 99.660156 284.054688 99.542969 C 283.457031 99.421875 282.855469 99.363281 282.246094 99.363281 Z M 221.230469 99.363281 " fill-opacity="1" fill-rule="nonzero"/><path fill="#3f3d56" d="M 282.246094 157.574219 L 221.230469 157.574219 C 220.597656 157.574219 219.972656 157.511719 219.351562 157.390625 C 218.734375 157.265625 218.132812 157.082031 217.546875 156.839844 C 216.964844 156.597656 216.410156 156.300781 215.882812 155.949219 C 215.355469 155.597656 214.871094 155.199219 214.421875 154.75 C 213.976562 154.304688 213.578125 153.816406 213.226562 153.292969 C 212.875 152.765625 212.578125 152.210938 212.335938 151.628906 C 212.09375 151.042969 211.910156 150.441406 211.785156 149.824219 C 211.660156 149.203125 211.601562 148.578125 211.597656 147.945312 L 211.597656 108.632812 C 211.601562 108 211.660156 107.375 211.785156 106.753906 C 211.910156 106.132812 212.09375 105.53125 212.335938 104.949219 C 212.578125 104.363281 212.875 103.808594 213.226562 103.285156 C 213.578125 102.757812 213.976562 102.273438 214.421875 101.824219 C 214.871094 101.378906 215.355469 100.980469 215.882812 100.628906 C 216.410156 100.277344 216.964844 99.980469 217.546875 99.738281 C 218.132812 99.496094 218.734375 99.3125 219.351562 99.1875 C 219.972656 99.0625 220.597656 99.003906 221.230469 99 L 282.246094 99 C 282.878906 99.003906 283.503906 99.0625 284.125 99.1875 C 284.746094 99.3125 285.347656 99.496094 285.929688 99.738281 C 286.515625 99.980469 287.070312 100.277344 287.597656 100.628906 C 288.121094 100.980469 288.609375 101.378906 289.054688 101.824219 C 289.503906 102.273438 289.902344 102.757812 290.253906 103.285156 C 290.605469 103.808594 290.902344 104.363281 291.144531 104.949219 C 291.386719 105.53125 291.570312 106.132812 291.691406 106.753906 C 291.816406 107.375 291.878906 108 291.878906 108.632812 L 291.878906 147.945312 C 291.878906 148.578125 291.816406 149.203125 291.691406 149.824219 C 291.570312 150.441406 291.386719 151.042969 291.144531 151.628906 C 290.902344 152.210938 290.605469 152.765625 290.253906 153.292969 C 289.902344 153.816406 289.503906 154.304688 289.054688 154.75 C 288.609375 155.199219 288.121094 155.597656 287.597656 155.949219 C 287.070312 156.300781 286.515625 156.597656 285.929688 156.839844 C 285.347656 157.082031 284.746094 157.265625 284.125 157.390625 C 283.503906 157.511719 282.878906 157.574219 282.246094 157.574219 Z M 221.230469 99.722656 C 220.648438 99.726562 220.066406 99.78125 219.496094 99.898438 C 218.921875 100.011719 218.363281 100.179688 217.824219 100.40625 C 217.285156 100.628906 216.769531 100.902344 216.285156 101.230469 C 215.796875 101.554688 215.347656 101.921875 214.933594 102.335938 C 214.519531 102.75 214.152344 103.199219 213.828125 103.6875 C 213.5 104.171875 213.226562 104.683594 213.003906 105.226562 C 212.777344 105.765625 212.609375 106.320312 212.496094 106.894531 C 212.378906 107.46875 212.324219 108.046875 212.324219 108.632812 L 212.324219 147.945312 C 212.324219 148.527344 212.378906 149.109375 212.496094 149.679688 C 212.609375 150.253906 212.777344 150.8125 213.003906 151.351562 C 213.226562 151.890625 213.5 152.40625 213.828125 152.890625 C 214.152344 153.378906 214.519531 153.828125 214.933594 154.242188 C 215.347656 154.652344 215.796875 155.023438 216.285156 155.347656 C 216.769531 155.671875 217.285156 155.949219 217.824219 156.171875 C 218.363281 156.394531 218.921875 156.566406 219.496094 156.679688 C 220.066406 156.792969 220.648438 156.851562 221.230469 156.851562 L 282.246094 156.851562 C 282.832031 156.851562 283.410156 156.792969 283.984375 156.679688 C 284.558594 156.566406 285.113281 156.394531 285.65625 156.171875 C 286.195312 155.949219 286.707031 155.671875 287.195312 155.347656 C 287.679688 155.023438 288.128906 154.652344 288.542969 154.242188 C 288.957031 153.828125 289.328125 153.378906 289.652344 152.890625 C 289.976562 152.40625 290.25 151.890625 290.476562 151.351562 C 290.699219 150.8125 290.867188 150.253906 290.984375 149.683594 C 291.097656 149.109375 291.15625 148.527344 291.15625 147.945312 L 291.15625 108.632812 C 291.15625 108.046875 291.097656 107.46875 290.984375 106.894531 C 290.867188 106.320312 290.699219 105.765625 290.476562 105.226562 C 290.25 104.683594 289.976562 104.171875 289.652344 103.6875 C 289.328125 103.199219 288.957031 102.75 288.542969 102.335938 C 288.128906 101.921875 287.679688 101.554688 287.195312 101.230469 C 286.707031 100.902344 286.195312 100.628906 285.65625 100.40625 C 285.113281 100.179688 284.558594 100.011719 283.984375 99.898438 C 283.410156 99.78125 282.832031 99.726562 282.246094 99.722656 Z M 221.230469 99.722656 " fill-opacity="1" fill-rule="nonzero"/><path fill="#a0616a" d="M 183.402344 97.0625 C 182.945312 97.140625 182.519531 97.304688 182.128906 97.550781 C 181.734375 97.792969 181.402344 98.105469 181.128906 98.480469 C 180.859375 98.855469 180.667969 99.265625 180.558594 99.714844 C 180.445312 100.164062 180.425781 100.617188 180.492188 101.078125 C 180.523438 101.261719 180.566406 101.445312 180.628906 101.625 L 162.433594 117.652344 L 169.175781 122.375 L 185.25 103.648438 C 185.613281 103.492188 185.9375 103.285156 186.226562 103.023438 C 186.519531 102.761719 186.761719 102.460938 186.953125 102.121094 C 187.144531 101.78125 187.273438 101.417969 187.347656 101.03125 C 187.417969 100.648438 187.425781 100.261719 187.367188 99.875 C 187.296875 99.429688 187.144531 99.015625 186.910156 98.632812 C 186.679688 98.246094 186.378906 97.921875 186.015625 97.65625 C 185.652344 97.394531 185.25 97.207031 184.816406 97.101562 C 184.378906 96.996094 183.9375 96.976562 183.492188 97.046875 C 183.460938 97.050781 183.429688 97.058594 183.402344 97.0625 Z M 183.402344 97.0625 " fill-opacity="1" fill-rule="nonzero"/><path fill="#3f3d56" d="M 176.5 115.203125 C 176.5 115.203125 172.394531 119.929688 167.398438 125.28125 C 167.050781 125.648438 166.703125 126.023438 166.34375 126.398438 C 163.308594 129.617188 160.035156 132.957031 157.195312 135.550781 C 154.167969 138.320312 151.632812 140.253906 150.40625 140.300781 C 150.300781 140.308594 150.199219 140.296875 150.101562 140.265625 C 146.421875 139.160156 149.453125 140.476562 147.878906 142.722656 C 146.300781 144.972656 146.496094 142.019531 142.957031 140.265625 C 139.421875 138.515625 141.304688 140.257812 139.890625 143.027344 C 139.453125 143.894531 135.613281 143.71875 130.550781 143.066406 C 129.980469 138.238281 129.148438 134.074219 129.148438 134.074219 C 129.136719 131.171875 129.433594 128.296875 130.03125 125.457031 C 138.851562 125.296875 146.144531 125.207031 146.515625 125.324219 C 147.480469 125.617188 149.546875 124.875 151.832031 123.585938 C 152.160156 123.398438 152.773438 122.972656 153.585938 122.375 C 154.308594 121.84375 155.175781 121.1875 156.140625 120.449219 C 157.226562 119.609375 159.074219 119.152344 159.671875 117.691406 C 161.417969 113.476562 160.820312 116.621094 161.285156 116.425781 C 161.816406 116.203125 162.757812 116.113281 163.308594 115.792969 C 163.460938 115.726562 163.578125 115.617188 163.660156 115.46875 C 163.738281 115.316406 163.761719 115.160156 163.730469 114.992188 C 163.703125 114.855469 163.65625 114.722656 163.59375 114.597656 C 163.09375 113.597656 163.855469 113.5 164.570312 113.394531 C 164.871094 113.378906 165.152344 113.296875 165.414062 113.144531 C 168.289062 110.855469 170.464844 109.09375 170.464844 109.09375 L 171.246094 109.886719 L 171.25 109.890625 L 175.871094 114.570312 Z M 176.5 115.203125 " fill-opacity="1" fill-rule="nonzero"/><g clip-path="url(#id1)"><path fill="#f2f2f2" d="M 172.558594 250.054688 L 126.855469 250.054688 C 124.898438 250.054688 123.308594 248.046875 123.308594 245.578125 L 123.308594 197.023438 C 123.308594 194.554688 124.898438 192.546875 126.855469 192.546875 L 172.558594 192.546875 C 174.511719 192.546875 176.105469 194.554688 176.105469 197.023438 L 176.105469 245.578125 C 176.105469 248.046875 174.511719 250.054688 172.558594 250.054688 Z M 172.558594 250.054688 " fill-opacity="1" fill-rule="nonzero"/></g><g clip-path="url(#id2)"><path fill="#cccccc" d="M 99.578125 249.957031 C 99.5625 250.089844 99.597656 250.210938 99.683594 250.316406 C 99.765625 250.421875 99.875 250.484375 100.007812 250.5 L 292.496094 250.5 C 292.625 250.46875 292.726562 250.40625 292.808594 250.304688 C 292.886719 250.203125 292.929688 250.085938 292.929688 249.957031 C 292.929688 249.828125 292.886719 249.710938 292.808594 249.609375 C 292.726562 249.507812 292.625 249.441406 292.496094 249.414062 L 100.007812 249.414062 C 99.875 249.429688 99.765625 249.492188 99.683594 249.597656 C 99.597656 249.703125 99.5625 249.824219 99.578125 249.957031 Z M 99.578125 249.957031 " fill-opacity="1" fill-rule="nonzero"/></g><path fill="#a0616a" d="M 204.292969 243.324219 L 208.898438 243.320312 L 211.09375 225.550781 L 204.292969 225.550781 Z M 204.292969 243.324219 " fill-opacity="1" fill-rule="nonzero"/><path fill="#2f2e41" d="M 204.128906 248.128906 L 218.300781 248.128906 L 218.300781 247.949219 C 218.300781 247.585938 218.265625 247.226562 218.195312 246.871094 C 218.121094 246.519531 218.019531 246.171875 217.878906 245.839844 C 217.742188 245.503906 217.570312 245.1875 217.371094 244.886719 C 217.167969 244.585938 216.941406 244.304688 216.683594 244.050781 C 216.429688 243.792969 216.148438 243.566406 215.847656 243.363281 C 215.546875 243.164062 215.230469 242.992188 214.894531 242.855469 C 214.558594 242.714844 214.214844 242.609375 213.859375 242.539062 C 213.503906 242.46875 213.144531 242.433594 212.785156 242.433594 L 210.195312 240.472656 L 205.367188 242.433594 L 204.128906 242.433594 Z M 204.128906 248.128906 " fill-opacity="1" fill-rule="nonzero"/><path fill="#a0616a" d="M 175.671875 241.203125 L 180.109375 242.453125 L 187.035156 225.941406 L 180.488281 224.097656 Z M 175.671875 241.203125 " fill-opacity="1" fill-rule="nonzero"/><path fill="#2f2e41" d="M 174.214844 245.785156 L 187.851562 249.625 L 187.902344 249.453125 C 188 249.105469 188.0625 248.75 188.089844 248.390625 C 188.117188 248.027344 188.113281 247.667969 188.070312 247.308594 C 188.027344 246.949219 187.949219 246.597656 187.835938 246.253906 C 187.726562 245.90625 187.582031 245.578125 187.402344 245.261719 C 187.226562 244.945312 187.019531 244.652344 186.785156 244.375 C 186.550781 244.101562 186.289062 243.851562 186.003906 243.625 C 185.71875 243.402344 185.417969 243.207031 185.09375 243.042969 C 184.769531 242.878906 184.4375 242.75 184.085938 242.652344 L 182.128906 240.058594 L 176.945312 240.640625 L 175.757812 240.304688 Z M 174.214844 245.785156 " fill-opacity="1" fill-rule="nonzero"/><path fill="#2f2e41" d="M 163.863281 165.53125 C 163.863281 165.53125 162.390625 165.382812 166.171875 166.691406 C 170.265625 168.113281 176.476562 167.929688 182.425781 170.0625 C 184.265625 170.71875 186.125 171.394531 187.972656 172.066406 C 188.347656 172.199219 188.71875 172.335938 189.089844 172.46875 C 191.496094 173.347656 193.863281 174.226562 196.097656 175.066406 C 196.410156 175.1875 196.722656 175.304688 197.027344 175.421875 C 197.035156 175.425781 197.042969 175.425781 197.046875 175.429688 C 204.335938 178.199219 210.066406 180.570312 211.011719 181.515625 C 212.027344 182.527344 212.445312 189.371094 212.5625 197.824219 C 212.769531 213.492188 211.941406 234.699219 211.941406 234.699219 L 203.417969 234.667969 C 203.417969 234.667969 203.363281 234.480469 203.261719 234.128906 C 203.070312 233.480469 202.722656 232.277344 202.253906 230.707031 C 200.316406 224.136719 196.414062 211.113281 194.257812 205.152344 C 193.652344 203.46875 193.179688 202.347656 192.933594 202.09375 C 191.484375 200.613281 192.933594 199.957031 194.378906 199.015625 C 195.824219 198.078125 194.378906 197.789062 193.316406 196.558594 C 192.253906 195.328125 193.714844 192.558594 193.714844 192.558594 C 193.714844 192.558594 192.75 192.535156 191.21875 192.496094 C 188.953125 192.4375 185.433594 192.347656 181.90625 192.261719 C 181.902344 192.265625 181.902344 192.265625 181.902344 192.261719 C 180.574219 192.230469 179.25 192.199219 177.988281 192.167969 C 177.011719 192.144531 176.078125 192.121094 175.207031 192.101562 C 172.609375 192.042969 170.640625 192.003906 170.148438 192.003906 C 168.542969 192.003906 169.792969 192.003906 168.824219 190.734375 C 168.671875 190.542969 168.511719 190.363281 168.339844 190.195312 C 168.097656 189.921875 167.832031 189.675781 167.546875 189.449219 C 167.34375 189.355469 167.617188 189.9375 167.464844 190.695312 C 167.382812 191.109375 167.195312 191.476562 166.90625 191.789062 C 165.46875 193.382812 161.066406 191.664062 161.066406 191.664062 C 153.820312 195.285156 147.875 195.023438 143.296875 193.328125 C 139.960938 192.046875 137.089844 190.085938 134.679688 187.449219 C 133.734375 186.457031 132.894531 185.386719 132.152344 184.230469 L 131.558594 184.121094 C 131.558594 184.121094 130.753906 157.226562 131.679688 155.40625 C 133.121094 152.570312 154.460938 154.683594 154.460938 154.683594 Z M 163.863281 165.53125 " fill-opacity="1" fill-rule="nonzero"/><path fill="#3f3d56" d="M 203.613281 56.699219 L 233.0625 56.699219 C 233.160156 56.699219 233.246094 56.660156 233.316406 56.589844 C 233.386719 56.519531 233.421875 56.4375 233.421875 56.335938 C 233.421875 56.234375 233.386719 56.152344 233.316406 56.082031 C 233.246094 56.007812 233.160156 55.972656 233.0625 55.972656 L 203.613281 55.972656 C 203.511719 55.972656 203.425781 56.007812 203.355469 56.082031 C 203.285156 56.152344 203.25 56.234375 203.25 56.335938 C 203.25 56.4375 203.285156 56.519531 203.355469 56.589844 C 203.425781 56.660156 203.511719 56.699219 203.613281 56.699219 Z M 203.613281 56.699219 " fill-opacity="1" fill-rule="nonzero"/><path fill="#e6e6e6" d="M 243.480469 85.453125 C 237.511719 77.511719 234.0625 68.632812 233.949219 58.507812 C 233.851562 58.234375 233.8125 57.957031 233.828125 57.667969 C 233.839844 57.378906 233.910156 57.101562 234.035156 56.839844 C 234.160156 56.582031 234.332031 56.351562 234.546875 56.160156 C 234.761719 55.964844 235.003906 55.820312 235.277344 55.722656 L 255.628906 48.523438 C 255.902344 48.429688 256.183594 48.386719 256.46875 48.402344 C 256.757812 48.417969 257.035156 48.488281 257.296875 48.613281 C 257.558594 48.738281 257.785156 48.90625 257.976562 49.121094 C 258.171875 49.335938 258.316406 49.582031 258.414062 49.851562 L 267.949219 76.796875 C 268.042969 77.070312 268.085938 77.351562 268.070312 77.640625 C 268.054688 77.929688 267.984375 78.203125 267.859375 78.464844 C 267.734375 78.726562 267.566406 78.953125 267.351562 79.144531 C 267.136719 79.339844 266.890625 79.484375 266.617188 79.582031 L 246.265625 86.78125 C 245.996094 86.878906 245.714844 86.917969 245.425781 86.902344 C 245.136719 86.886719 244.859375 86.816406 244.601562 86.691406 C 244.339844 86.566406 244.113281 86.398438 243.917969 86.183594 C 243.722656 85.96875 243.578125 85.726562 243.480469 85.453125 Z M 243.480469 85.453125 " fill-opacity="1" fill-rule="nonzero"/><path fill="#ffffff" d="M 242.164062 76.761719 C 238.574219 73.132812 237.035156 66.65625 236.035156 59.441406 C 235.945312 59.183594 235.90625 58.921875 235.921875 58.652344 C 235.933594 58.378906 236 58.125 236.117188 57.878906 C 236.234375 57.632812 236.390625 57.421875 236.59375 57.238281 C 236.796875 57.058594 237.023438 56.921875 237.277344 56.832031 L 254.769531 50.644531 C 255.023438 50.554688 255.289062 50.515625 255.558594 50.53125 C 255.828125 50.546875 256.085938 50.609375 256.332031 50.726562 C 256.574219 50.84375 256.789062 51.003906 256.96875 51.203125 C 257.152344 51.40625 257.285156 51.632812 257.378906 51.890625 L 265.863281 75.867188 C 265.953125 76.121094 265.988281 76.382812 265.976562 76.652344 C 265.960938 76.925781 265.894531 77.183594 265.777344 77.425781 C 265.660156 77.671875 265.503906 77.882812 265.300781 78.066406 C 265.101562 78.246094 264.871094 78.382812 264.617188 78.472656 L 253.78125 82.304688 C 253.21875 82.503906 252.640625 82.648438 252.050781 82.730469 C 251.457031 82.816406 250.863281 82.84375 250.265625 82.8125 C 249.671875 82.78125 249.082031 82.691406 248.503906 82.542969 C 247.925781 82.394531 247.367188 82.195312 246.824219 81.9375 C 246.285156 81.679688 245.777344 81.371094 245.300781 81.015625 C 244.820312 80.65625 244.378906 80.257812 243.980469 79.8125 C 243.582031 79.367188 243.226562 78.890625 242.921875 78.375 C 242.617188 77.863281 242.363281 77.324219 242.164062 76.761719 Z M 242.164062 76.761719 " fill-opacity="1" fill-rule="nonzero"/><path fill="#fb6801" d="M 257.613281 64.804688 L 243.988281 69.667969 C 243.761719 69.75 243.539062 69.738281 243.324219 69.636719 C 243.105469 69.535156 242.957031 69.367188 242.875 69.144531 C 242.796875 68.917969 242.804688 68.695312 242.910156 68.480469 C 243.011719 68.261719 243.175781 68.113281 243.402344 68.03125 L 257.027344 63.171875 C 257.253906 63.089844 257.476562 63.101562 257.691406 63.203125 C 257.90625 63.304688 258.054688 63.46875 258.136719 63.695312 C 258.21875 63.921875 258.207031 64.144531 258.105469 64.359375 C 258 64.574219 257.835938 64.726562 257.613281 64.804688 Z M 257.613281 64.804688 " fill-opacity="1" fill-rule="nonzero"/><path fill="#fb6801" d="M 245.382812 64.117188 L 242.386719 65.183594 C 242.160156 65.265625 241.941406 65.253906 241.722656 65.152344 C 241.507812 65.046875 241.359375 64.882812 241.28125 64.660156 C 241.199219 64.433594 241.210938 64.214844 241.3125 63.996094 C 241.414062 63.78125 241.578125 63.632812 241.804688 63.550781 L 244.800781 62.480469 C 245.027344 62.398438 245.246094 62.410156 245.464844 62.511719 C 245.683594 62.617188 245.832031 62.78125 245.910156 63.007812 C 245.992188 63.230469 245.980469 63.453125 245.878906 63.671875 C 245.773438 63.886719 245.609375 64.035156 245.382812 64.117188 Z M 245.382812 64.117188 " fill-opacity="1" fill-rule="nonzero"/><path fill="#fb6801" d="M 260.175781 71.992188 L 246.550781 76.855469 C 246.328125 76.933594 246.105469 76.925781 245.890625 76.820312 C 245.671875 76.71875 245.523438 76.554688 245.441406 76.328125 C 245.363281 76.101562 245.375 75.882812 245.476562 75.664062 C 245.578125 75.449219 245.742188 75.300781 245.96875 75.21875 L 259.59375 70.355469 C 259.820312 70.277344 260.039062 70.285156 260.257812 70.390625 C 260.476562 70.492188 260.625 70.65625 260.703125 70.882812 C 260.785156 71.109375 260.773438 71.328125 260.671875 71.546875 C 260.566406 71.761719 260.402344 71.910156 260.175781 71.992188 Z M 260.175781 71.992188 " fill-opacity="1" fill-rule="nonzero"/><path fill="#fb6801" d="M 258.894531 68.398438 L 245.269531 73.261719 C 245.042969 73.339844 244.824219 73.328125 244.605469 73.226562 C 244.390625 73.125 244.242188 72.960938 244.164062 72.734375 C 244.082031 72.507812 244.09375 72.289062 244.195312 72.074219 C 244.296875 71.855469 244.460938 71.707031 244.6875 71.625 L 258.3125 66.765625 C 258.535156 66.683594 258.757812 66.695312 258.972656 66.796875 C 259.191406 66.898438 259.339844 67.0625 259.417969 67.289062 C 259.5 67.515625 259.488281 67.734375 259.386719 67.953125 C 259.285156 68.167969 259.121094 68.316406 258.894531 68.398438 Z M 258.894531 68.398438 " fill-opacity="1" fill-rule="nonzero"/><path fill="#fb6801" d="M 238.722656 57.78125 C 238.722656 58.261719 238.628906 58.722656 238.445312 59.167969 C 238.261719 59.609375 238 60 237.660156 60.339844 C 237.324219 60.679688 236.929688 60.9375 236.488281 61.121094 C 236.046875 61.304688 235.585938 61.398438 235.105469 61.398438 C 234.625 61.398438 234.164062 61.304688 233.71875 61.121094 C 233.277344 60.9375 232.886719 60.679688 232.546875 60.339844 C 232.207031 60 231.945312 59.609375 231.761719 59.167969 C 231.578125 58.722656 231.488281 58.261719 231.488281 57.78125 C 231.488281 57.304688 231.578125 56.839844 231.761719 56.398438 C 231.945312 55.957031 232.207031 55.566406 232.546875 55.226562 C 232.886719 54.886719 233.277344 54.625 233.71875 54.441406 C 234.164062 54.257812 234.625 54.167969 235.105469 54.167969 C 235.585938 54.167969 236.046875 54.257812 236.488281 54.441406 C 236.929688 54.625 237.324219 54.886719 237.660156 55.226562 C 238 55.566406 238.261719 55.957031 238.445312 56.398438 C 238.628906 56.839844 238.722656 57.304688 238.722656 57.78125 Z M 238.722656 57.78125 " fill-opacity="1" fill-rule="nonzero"/><path fill="#3f3d56" d="M 169.679688 49.828125 L 140.234375 49.828125 C 140.132812 49.828125 140.046875 49.792969 139.976562 49.722656 C 139.90625 49.652344 139.871094 49.566406 139.871094 49.464844 C 139.871094 49.367188 139.90625 49.28125 139.976562 49.210938 C 140.046875 49.140625 140.132812 49.105469 140.234375 49.105469 L 169.679688 49.105469 C 169.78125 49.105469 169.867188 49.140625 169.9375 49.210938 C 170.007812 49.28125 170.042969 49.367188 170.042969 49.464844 C 170.042969 49.566406 170.007812 49.652344 169.9375 49.722656 C 169.867188 49.792969 169.78125 49.828125 169.679688 49.828125 Z M 169.679688 49.828125 " fill-opacity="1" fill-rule="nonzero"/><g clip-path="url(#id3)"><path fill="#e6e6e6" d="M 102.152344 62.652344 C 104.710938 53.054688 109.5625 44.855469 117.453125 38.511719 C 117.609375 38.269531 117.804688 38.0625 118.042969 37.898438 C 118.277344 37.730469 118.539062 37.617188 118.820312 37.554688 C 119.101562 37.488281 119.386719 37.484375 119.671875 37.53125 C 119.957031 37.582031 120.222656 37.683594 120.464844 37.839844 L 138.699219 49.394531 C 138.945312 49.546875 139.148438 49.746094 139.316406 49.980469 C 139.480469 50.21875 139.597656 50.476562 139.660156 50.757812 C 139.722656 51.042969 139.730469 51.324219 139.679688 51.609375 C 139.628906 51.894531 139.527344 52.160156 139.375 52.40625 L 124.070312 76.542969 C 123.917969 76.789062 123.71875 76.992188 123.484375 77.160156 C 123.246094 77.328125 122.988281 77.441406 122.707031 77.503906 C 122.421875 77.566406 122.140625 77.574219 121.855469 77.523438 C 121.570312 77.476562 121.304688 77.375 121.058594 77.21875 L 102.828125 65.664062 C 102.582031 65.507812 102.378906 65.3125 102.210938 65.078125 C 102.042969 64.839844 101.929688 64.582031 101.867188 64.296875 C 101.804688 64.015625 101.796875 63.730469 101.84375 63.445312 C 101.894531 63.164062 101.996094 62.898438 102.152344 62.652344 Z M 102.152344 62.652344 " fill-opacity="1" fill-rule="nonzero"/></g><path fill="#ffffff" d="M 108.171875 56.25 C 108.808594 51.183594 112.953125 45.972656 118.011719 40.730469 C 118.15625 40.5 118.339844 40.308594 118.5625 40.152344 C 118.78125 39.996094 119.023438 39.890625 119.289062 39.828125 C 119.554688 39.769531 119.820312 39.765625 120.085938 39.808594 C 120.351562 39.855469 120.601562 39.953125 120.832031 40.097656 L 136.5 50.027344 C 136.730469 50.171875 136.921875 50.355469 137.078125 50.578125 C 137.234375 50.800781 137.339844 51.042969 137.398438 51.308594 C 137.460938 51.570312 137.464844 51.835938 137.417969 52.105469 C 137.375 52.371094 137.277344 52.617188 137.132812 52.847656 L 123.515625 74.328125 C 123.371094 74.558594 123.1875 74.75 122.964844 74.90625 C 122.742188 75.0625 122.5 75.167969 122.234375 75.226562 C 121.972656 75.285156 121.707031 75.292969 121.4375 75.246094 C 121.171875 75.199219 120.925781 75.105469 120.695312 74.960938 L 110.988281 68.808594 C 110.484375 68.488281 110.015625 68.121094 109.582031 67.710938 C 109.152344 67.296875 108.761719 66.847656 108.417969 66.355469 C 108.074219 65.867188 107.78125 65.351562 107.542969 64.804688 C 107.300781 64.257812 107.113281 63.695312 106.980469 63.109375 C 106.851562 62.527344 106.777344 61.9375 106.765625 61.339844 C 106.75 60.742188 106.792969 60.148438 106.894531 59.5625 C 106.996094 58.972656 107.15625 58.398438 107.371094 57.84375 C 107.585938 57.285156 107.851562 56.753906 108.171875 56.25 Z M 108.171875 56.25 " fill-opacity="1" fill-rule="nonzero"/><path fill="#fb6801" d="M 127.117188 61.007812 L 114.878906 53.300781 C 114.675781 53.171875 114.546875 52.992188 114.496094 52.757812 C 114.441406 52.523438 114.480469 52.304688 114.609375 52.105469 C 114.734375 51.902344 114.914062 51.773438 115.148438 51.71875 C 115.382812 51.667969 115.601562 51.703125 115.804688 51.832031 L 128.042969 59.539062 C 128.246094 59.667969 128.375 59.847656 128.429688 60.082031 C 128.480469 60.316406 128.445312 60.535156 128.316406 60.738281 C 128.1875 60.941406 128.007812 61.070312 127.773438 61.121094 C 127.539062 61.175781 127.320312 61.136719 127.117188 61.007812 Z M 127.117188 61.007812 " fill-opacity="1" fill-rule="nonzero"/><path fill="#fb6801" d="M 120.109375 50.96875 L 117.414062 49.273438 C 117.210938 49.144531 117.082031 48.964844 117.03125 48.730469 C 116.976562 48.496094 117.015625 48.277344 117.140625 48.074219 C 117.269531 47.871094 117.453125 47.746094 117.683594 47.691406 C 117.917969 47.636719 118.136719 47.675781 118.339844 47.804688 L 121.035156 49.5 C 121.238281 49.628906 121.363281 49.808594 121.417969 50.042969 C 121.46875 50.277344 121.433594 50.496094 121.304688 50.699219 C 121.175781 50.898438 120.996094 51.027344 120.761719 51.082031 C 120.53125 51.132812 120.3125 51.097656 120.109375 50.96875 Z M 120.109375 50.96875 " fill-opacity="1" fill-rule="nonzero"/><path fill="#fb6801" d="M 123.050781 67.464844 L 110.8125 59.757812 C 110.609375 59.628906 110.480469 59.449219 110.425781 59.214844 C 110.371094 58.980469 110.410156 58.761719 110.539062 58.558594 C 110.664062 58.355469 110.847656 58.226562 111.082031 58.175781 C 111.316406 58.121094 111.53125 58.160156 111.734375 58.289062 L 123.976562 65.996094 C 124.179688 66.125 124.304688 66.304688 124.359375 66.539062 C 124.410156 66.773438 124.375 66.992188 124.246094 67.191406 C 124.117188 67.394531 123.9375 67.523438 123.703125 67.578125 C 123.472656 67.628906 123.253906 67.59375 123.050781 67.464844 Z M 123.050781 67.464844 " fill-opacity="1" fill-rule="nonzero"/><path fill="#fb6801" d="M 125.085938 64.238281 L 112.84375 56.527344 C 112.640625 56.402344 112.515625 56.21875 112.460938 55.984375 C 112.40625 55.753906 112.445312 55.535156 112.574219 55.332031 C 112.699219 55.128906 112.882812 55 113.113281 54.949219 C 113.347656 54.894531 113.566406 54.933594 113.769531 55.058594 L 126.011719 62.769531 C 126.210938 62.898438 126.339844 63.078125 126.394531 63.3125 C 126.445312 63.542969 126.410156 63.761719 126.28125 63.964844 C 126.152344 64.167969 125.972656 64.296875 125.738281 64.347656 C 125.503906 64.402344 125.289062 64.363281 125.085938 64.238281 Z M 125.085938 64.238281 " fill-opacity="1" fill-rule="nonzero"/><path fill="#fb6801" d="M 141.804688 50.914062 C 141.804688 51.390625 141.714844 51.851562 141.53125 52.296875 C 141.347656 52.738281 141.085938 53.128906 140.746094 53.46875 C 140.40625 53.808594 140.015625 54.070312 139.574219 54.253906 C 139.128906 54.4375 138.667969 54.527344 138.1875 54.527344 C 137.710938 54.527344 137.25 54.4375 136.804688 54.253906 C 136.363281 54.070312 135.972656 53.808594 135.632812 53.46875 C 135.292969 53.128906 135.03125 52.738281 134.847656 52.296875 C 134.664062 51.851562 134.574219 51.390625 134.574219 50.914062 C 134.574219 50.433594 134.664062 49.972656 134.847656 49.527344 C 135.03125 49.085938 135.292969 48.695312 135.632812 48.355469 C 135.972656 48.015625 136.363281 47.753906 136.804688 47.570312 C 137.25 47.386719 137.710938 47.296875 138.1875 47.296875 C 138.667969 47.296875 139.128906 47.386719 139.574219 47.570312 C 140.015625 47.753906 140.40625 48.015625 140.746094 48.355469 C 141.085938 48.695312 141.347656 49.085938 141.53125 49.527344 C 141.714844 49.972656 141.804688 50.433594 141.804688 50.914062 Z M 141.804688 50.914062 " fill-opacity="1" fill-rule="nonzero"/><path fill="#fb6801" d="M 219.554688 101.53125 C 219.554688 102.011719 219.464844 102.472656 219.28125 102.917969 C 219.097656 103.359375 218.835938 103.75 218.496094 104.089844 C 218.15625 104.429688 217.765625 104.691406 217.324219 104.871094 C 216.878906 105.054688 216.417969 105.148438 215.9375 105.148438 C 215.457031 105.148438 214.996094 105.054688 214.554688 104.871094 C 214.113281 104.691406 213.71875 104.429688 213.382812 104.089844 C 213.042969 103.75 212.78125 103.359375 212.597656 102.917969 C 212.414062 102.472656 212.320312 102.011719 212.320312 101.53125 C 212.320312 101.054688 212.414062 100.59375 212.597656 100.148438 C 212.78125 99.707031 213.042969 99.316406 213.382812 98.976562 C 213.71875 98.636719 214.113281 98.375 214.554688 98.191406 C 214.996094 98.007812 215.457031 97.917969 215.9375 97.917969 C 216.417969 97.917969 216.878906 98.007812 217.324219 98.191406 C 217.765625 98.375 218.15625 98.636719 218.496094 98.976562 C 218.835938 99.316406 219.097656 99.707031 219.28125 100.148438 C 219.464844 100.59375 219.554688 101.054688 219.554688 101.53125 Z M 219.554688 101.53125 " fill-opacity="1" fill-rule="nonzero"/><path fill="#2f2e41" d="M 199.011719 191.882812 C 197.503906 200.097656 191.113281 219.351562 187.25 230.621094 C 185.488281 235.769531 185.34375 233.832031 185.34375 233.832031 L 183.335938 233.199219 L 179.953125 232.128906 L 178.714844 231.738281 L 177.21875 231.265625 C 177.21875 231.265625 176.484375 218.167969 176.25 208.34375 C 176.171875 205.175781 176.03125 202.914062 175.804688 202.464844 C 174.863281 200.621094 176.4375 200.425781 178.097656 199.960938 C 179.761719 199.492188 178.460938 198.792969 177.816406 197.296875 C 177.378906 196.296875 178.238281 194.96875 178.851562 194.210938 C 179.019531 193.996094 179.199219 193.792969 179.386719 193.601562 C 179.386719 193.601562 175.15625 192.160156 170.375 190.539062 C 170.371094 190.542969 170.371094 190.539062 170.371094 190.539062 C 169.886719 190.375 169.402344 190.210938 168.917969 190.046875 C 170.605469 189.4375 171.726562 188.96875 171.980469 188.71875 C 173.460938 187.273438 174.117188 188.71875 175.054688 190.164062 C 175.996094 191.613281 176.285156 190.164062 177.515625 189.101562 C 178.746094 188.039062 181.515625 189.5 181.515625 189.5 C 181.515625 189.5 181.539062 188.539062 181.578125 187.003906 C 181.636719 184.742188 181.726562 181.21875 181.8125 177.695312 C 181.808594 177.691406 181.808594 177.691406 181.8125 177.691406 C 181.84375 176.363281 181.875 175.035156 181.90625 173.777344 C 184.453125 175.730469 186.929688 177.648438 189.171875 179.417969 C 189.175781 179.421875 189.179688 179.425781 189.179688 179.433594 C 194.574219 183.691406 198.621094 187.113281 199.1875 188.199219 C 199.445312 188.691406 199.359375 189.996094 199.011719 191.882812 Z M 199.011719 191.882812 " fill-opacity="1" fill-rule="nonzero"/><path fill="#3f3d56" d="M 164.226562 161.191406 L 162.894531 162.054688 L 159.488281 164.269531 L 154.867188 167.265625 L 130.234375 183.246094 C 130.234375 183.246094 127.1875 177.042969 129.976562 171.648438 C 130.335938 170.964844 130.625 170.25 130.847656 169.511719 C 131.976562 165.640625 129.808594 163.964844 129.808594 163.964844 C 129.808594 163.964844 126.191406 160.445312 129.660156 157.203125 C 130.371094 156.539062 130.769531 155.175781 130.949219 153.425781 C 131.253906 150.546875 130.976562 146.628906 130.550781 143.066406 C 129.980469 138.238281 129.148438 134.074219 129.148438 134.074219 C 129.136719 131.171875 129.433594 128.296875 130.03125 125.457031 C 130.691406 122.40625 131.757812 119.507812 133.328125 117.097656 C 133.90625 116.203125 134.570312 115.371094 135.3125 114.609375 C 136.363281 113.535156 137.5625 112.671875 138.914062 112.019531 C 140.921875 111.050781 144.371094 111.632812 147.40625 112.054688 C 148.019531 112.136719 148.609375 112.214844 149.171875 112.273438 C 149.726562 112.339844 150.285156 112.375 150.847656 112.378906 L 152.105469 116.972656 L 152.582031 118.710938 L 152.820312 119.582031 L 153.363281 121.5625 L 153.585938 122.375 L 157.195312 135.550781 L 160.144531 146.292969 L 161.769531 152.230469 L 164.203125 161.109375 Z M 164.226562 161.191406 " fill-opacity="1" fill-rule="nonzero"/><path fill="#a0616a" d="M 155.042969 98.242188 C 155.042969 98.960938 154.972656 99.675781 154.832031 100.382812 C 154.691406 101.089844 154.480469 101.777344 154.207031 102.441406 C 153.929688 103.109375 153.59375 103.742188 153.191406 104.339844 C 152.792969 104.9375 152.335938 105.492188 151.828125 106.003906 C 151.316406 106.511719 150.761719 106.96875 150.164062 107.367188 C 149.5625 107.769531 148.929688 108.105469 148.265625 108.382812 C 147.601562 108.65625 146.914062 108.867188 146.207031 109.007812 C 145.5 109.148438 144.785156 109.21875 144.066406 109.21875 C 143.34375 109.21875 142.628906 109.148438 141.921875 109.007812 C 141.214844 108.867188 140.53125 108.65625 139.863281 108.382812 C 139.199219 108.105469 138.566406 107.769531 137.964844 107.367188 C 137.367188 106.96875 136.8125 106.511719 136.304688 106.003906 C 135.792969 105.492188 135.339844 104.9375 134.9375 104.339844 C 134.539062 103.742188 134.199219 103.109375 133.921875 102.441406 C 133.648438 101.777344 133.4375 101.089844 133.296875 100.382812 C 133.15625 99.675781 133.085938 98.960938 133.085938 98.242188 C 133.085938 97.523438 133.15625 96.808594 133.296875 96.101562 C 133.4375 95.394531 133.648438 94.707031 133.921875 94.042969 C 134.199219 93.375 134.539062 92.742188 134.9375 92.144531 C 135.339844 91.546875 135.792969 90.992188 136.304688 90.480469 C 136.8125 89.972656 137.367188 89.515625 137.964844 89.117188 C 138.566406 88.714844 139.199219 88.378906 139.863281 88.101562 C 140.53125 87.828125 141.214844 87.617188 141.921875 87.476562 C 142.628906 87.335938 143.34375 87.265625 144.066406 87.265625 C 144.785156 87.265625 145.5 87.335938 146.207031 87.476562 C 146.914062 87.617188 147.601562 87.828125 148.265625 88.101562 C 148.929688 88.378906 149.5625 88.714844 150.164062 89.117188 C 150.761719 89.515625 151.316406 89.972656 151.828125 90.480469 C 152.335938 90.992188 152.792969 91.546875 153.191406 92.144531 C 153.59375 92.742188 153.929688 93.375 154.207031 94.042969 C 154.480469 94.707031 154.691406 95.394531 154.832031 96.101562 C 154.972656 96.808594 155.042969 97.523438 155.042969 98.242188 Z M 155.042969 98.242188 " fill-opacity="1" fill-rule="nonzero"/><path fill="#2f2e41" d="M 142.007812 107.3125 L 141.113281 110.171875 C 139.132812 109.195312 137.121094 108.199219 135.472656 106.726562 C 133.820312 105.257812 132.542969 103.226562 132.464844 101.019531 C 132.425781 99.875 132.703125 98.726562 132.511719 97.601562 C 132.296875 96.328125 131.511719 95.222656 131.152344 93.984375 C 130.984375 93.335938 130.929688 92.679688 130.992188 92.011719 C 131.054688 91.34375 131.226562 90.707031 131.511719 90.097656 C 131.792969 89.492188 132.171875 88.949219 132.644531 88.476562 C 133.117188 88 133.65625 87.617188 134.261719 87.332031 C 136.082031 86.53125 138.164062 86.753906 140.140625 86.5625 C 142.121094 86.367188 144.328125 85.472656 144.882812 83.566406 C 145.089844 82.851562 145.066406 82.011719 145.707031 81.546875 C 145.863281 81.4375 146.039062 81.363281 146.226562 81.320312 C 146.414062 81.277344 146.605469 81.269531 146.792969 81.296875 C 146.984375 81.324219 147.164062 81.386719 147.332031 81.480469 C 147.5 81.574219 147.648438 81.695312 147.769531 81.84375 C 148.703125 82.902344 148.472656 84.292969 148.226562 85.558594 C 149.523438 85.390625 150.734375 84.964844 151.851562 84.285156 C 152.96875 83.605469 153.898438 82.730469 154.648438 81.65625 C 155 81.984375 155.273438 82.367188 155.46875 82.804688 C 155.667969 83.246094 155.769531 83.703125 155.785156 84.183594 C 155.796875 84.664062 155.71875 85.125 155.546875 85.574219 C 155.375 86.023438 155.121094 86.421875 154.789062 86.769531 C 155.101562 86.769531 155.40625 86.71875 155.699219 86.613281 C 155.996094 86.511719 156.265625 86.363281 156.507812 86.171875 C 156.753906 85.980469 156.960938 85.75 157.128906 85.488281 C 157.296875 85.226562 157.417969 84.941406 157.488281 84.640625 C 158.246094 85.683594 159.023438 86.777344 159.269531 88.042969 C 159.511719 89.3125 159.058594 90.8125 157.894531 91.375 C 157.296875 91.613281 156.671875 91.714844 156.027344 91.679688 L 151.148438 91.773438 C 150.789062 91.78125 150.4375 91.820312 150.085938 91.898438 C 149.734375 91.972656 149.390625 92.082031 149.0625 92.222656 C 148.730469 92.363281 148.417969 92.535156 148.121094 92.734375 C 147.824219 92.9375 147.546875 93.164062 147.292969 93.421875 C 147.039062 93.675781 146.8125 93.953125 146.613281 94.25 C 146.414062 94.546875 146.246094 94.863281 146.105469 95.195312 C 145.964844 95.527344 145.859375 95.867188 145.789062 96.21875 C 145.714844 96.570312 145.675781 96.925781 145.671875 97.285156 C 144.25 97.148438 142.789062 97.015625 141.449219 97.613281 C 140.808594 97.882812 140.304688 98.3125 139.941406 98.90625 C 139.054688 100.429688 139.933594 102.011719 140.714844 103.398438 C 141.382812 104.582031 142.011719 106.007812 141.460938 107.25 " fill-opacity="1" fill-rule="nonzero"/><path fill="#e6e6e6" d="M 192.117188 218.753906 L 171.765625 211.554688 C 171.496094 211.457031 171.25 211.3125 171.035156 211.121094 C 170.820312 210.925781 170.652344 210.699219 170.527344 210.4375 C 170.402344 210.175781 170.332031 209.902344 170.316406 209.613281 C 170.300781 209.324219 170.34375 209.042969 170.4375 208.769531 L 179.972656 181.828125 C 180.070312 181.554688 180.214844 181.3125 180.410156 181.097656 C 180.601562 180.882812 180.828125 180.710938 181.089844 180.585938 C 181.351562 180.460938 181.625 180.390625 181.914062 180.375 C 182.203125 180.359375 182.484375 180.402344 182.757812 180.496094 L 203.109375 187.699219 C 203.382812 187.792969 203.625 187.941406 203.839844 188.132812 C 204.054688 188.328125 204.226562 188.554688 204.351562 188.816406 C 204.476562 189.074219 204.542969 189.351562 204.558594 189.640625 C 204.574219 189.929688 204.535156 190.210938 204.4375 190.480469 C 204.324219 200.605469 200.875 209.484375 194.902344 217.425781 C 194.808594 217.699219 194.660156 217.941406 194.46875 218.15625 C 194.273438 218.371094 194.046875 218.542969 193.785156 218.667969 C 193.523438 218.789062 193.25 218.859375 192.960938 218.875 C 192.671875 218.890625 192.390625 218.851562 192.117188 218.753906 Z M 192.117188 218.753906 " fill-opacity="1" fill-rule="nonzero"/><path fill="#ffffff" d="M 184.605469 214.28125 L 173.769531 210.445312 C 173.515625 210.355469 173.285156 210.21875 173.085938 210.039062 C 172.882812 209.859375 172.722656 209.644531 172.609375 209.398438 C 172.492188 209.15625 172.425781 208.898438 172.410156 208.628906 C 172.394531 208.355469 172.433594 208.09375 172.523438 207.839844 L 181.007812 183.863281 C 181.101562 183.609375 181.234375 183.378906 181.417969 183.179688 C 181.597656 182.976562 181.8125 182.816406 182.054688 182.703125 C 182.300781 182.585938 182.558594 182.519531 182.828125 182.503906 C 183.097656 182.492188 183.363281 182.527344 183.617188 182.617188 L 201.109375 188.804688 C 201.363281 188.894531 201.589844 189.03125 201.792969 189.214844 C 201.992188 189.394531 202.152344 189.609375 202.269531 189.851562 C 202.386719 190.097656 202.453125 190.355469 202.464844 190.625 C 202.480469 190.894531 202.441406 191.160156 202.351562 191.414062 C 201.351562 198.628906 199.8125 205.105469 196.222656 208.734375 C 196.023438 209.296875 195.769531 209.835938 195.464844 210.351562 C 195.160156 210.863281 194.804688 211.339844 194.40625 211.785156 C 194.003906 212.230469 193.566406 212.628906 193.085938 212.988281 C 192.609375 213.34375 192.097656 213.652344 191.558594 213.910156 C 191.019531 214.167969 190.460938 214.371094 189.882812 214.515625 C 189.304688 214.664062 188.714844 214.753906 188.117188 214.785156 C 187.523438 214.816406 186.929688 214.789062 186.335938 214.707031 C 185.746094 214.621094 185.167969 214.480469 184.605469 214.28125 Z M 184.605469 214.28125 " fill-opacity="1" fill-rule="nonzero"/><path fill="#fb6801" d="M 180.25 195.667969 C 180.328125 195.445312 180.480469 195.28125 180.695312 195.175781 C 180.910156 195.074219 181.132812 195.0625 181.359375 195.144531 L 194.984375 200.007812 C 195.210938 200.085938 195.375 200.234375 195.476562 200.453125 C 195.582031 200.667969 195.59375 200.890625 195.511719 201.117188 C 195.429688 201.34375 195.28125 201.507812 195.0625 201.609375 C 194.847656 201.710938 194.625 201.722656 194.398438 201.640625 L 180.773438 196.777344 C 180.550781 196.699219 180.386719 196.550781 180.28125 196.332031 C 180.179688 196.117188 180.167969 195.894531 180.25 195.667969 Z M 180.25 195.667969 " fill-opacity="1" fill-rule="nonzero"/><path fill="#fb6801" d="M 192.476562 194.980469 C 192.558594 194.753906 192.707031 194.589844 192.921875 194.488281 C 193.140625 194.386719 193.359375 194.375 193.585938 194.453125 L 196.582031 195.523438 C 196.808594 195.605469 196.972656 195.753906 197.074219 195.96875 C 197.179688 196.1875 197.1875 196.40625 197.109375 196.632812 C 197.027344 196.859375 196.878906 197.023438 196.664062 197.125 C 196.445312 197.230469 196.226562 197.238281 196 197.160156 L 193.003906 196.089844 C 192.777344 196.007812 192.613281 195.859375 192.511719 195.644531 C 192.40625 195.425781 192.394531 195.207031 192.476562 194.980469 Z M 192.476562 194.980469 " fill-opacity="1" fill-rule="nonzero"/><path fill="#fb6801" d="M 177.683594 202.855469 C 177.765625 202.628906 177.914062 202.464844 178.128906 202.363281 C 178.347656 202.261719 178.566406 202.25 178.792969 202.332031 L 192.417969 207.191406 C 192.644531 207.273438 192.808594 207.421875 192.910156 207.640625 C 193.011719 207.855469 193.023438 208.078125 192.941406 208.300781 C 192.863281 208.527344 192.714844 208.691406 192.496094 208.792969 C 192.28125 208.898438 192.058594 208.910156 191.832031 208.828125 L 178.210938 203.964844 C 177.984375 203.882812 177.820312 203.734375 177.71875 203.519531 C 177.613281 203.304688 177.601562 203.082031 177.683594 202.855469 Z M 177.683594 202.855469 " fill-opacity="1" fill-rule="nonzero"/><path fill="#fb6801" d="M 178.964844 199.261719 C 179.046875 199.039062 179.195312 198.875 179.414062 198.769531 C 179.628906 198.667969 179.851562 198.65625 180.074219 198.738281 L 193.699219 203.601562 C 193.925781 203.679688 194.089844 203.828125 194.191406 204.046875 C 194.296875 204.261719 194.304688 204.484375 194.226562 204.710938 C 194.144531 204.933594 193.996094 205.097656 193.78125 205.203125 C 193.5625 205.304688 193.34375 205.316406 193.117188 205.234375 L 179.492188 200.371094 C 179.265625 200.292969 179.101562 200.144531 179 199.925781 C 178.898438 199.710938 178.886719 199.488281 178.964844 199.261719 Z M 178.964844 199.261719 " fill-opacity="1" fill-rule="nonzero"/><path fill="#a0616a" d="M 185.949219 180.890625 C 185.820312 180.445312 185.609375 180.042969 185.324219 179.679688 C 185.035156 179.316406 184.6875 179.023438 184.285156 178.796875 C 183.882812 178.566406 183.453125 178.425781 182.992188 178.367188 C 182.53125 178.304688 182.078125 178.335938 181.632812 178.453125 C 181.449219 178.503906 181.273438 178.570312 181.105469 178.652344 L 163.117188 162.390625 L 159.1875 169.621094 L 179.617188 183.472656 C 179.808594 183.8125 180.050781 184.113281 180.34375 184.375 C 180.636719 184.632812 180.964844 184.839844 181.324219 184.992188 C 181.6875 185.140625 182.0625 185.230469 182.453125 185.257812 C 182.84375 185.285156 183.226562 185.25 183.605469 185.148438 C 184.039062 185.03125 184.433594 184.832031 184.789062 184.554688 C 185.144531 184.28125 185.433594 183.945312 185.652344 183.554688 C 185.875 183.164062 186.015625 182.746094 186.070312 182.300781 C 186.125 181.851562 186.09375 181.414062 185.976562 180.980469 C 185.96875 180.949219 185.957031 180.917969 185.949219 180.890625 Z M 185.949219 180.890625 " fill-opacity="1" fill-rule="nonzero"/><path fill="#3f3d56" d="M 172.527344 169.398438 L 171.828125 170.265625 L 167.699219 175.390625 L 167.140625 176.085938 C 167.140625 176.085938 161.242188 172.035156 154.867188 167.265625 C 147.214844 161.535156 138.875 154.761719 139.25 152.699219 C 139.933594 148.917969 138.964844 152.078125 136.554688 150.765625 C 134.144531 149.453125 137.097656 149.3125 138.4375 145.601562 C 139.785156 141.890625 138.265625 143.957031 135.355469 142.871094 C 133.414062 142.148438 134.429688 125.558594 135.3125 114.609375 C 136.363281 113.535156 137.5625 112.671875 138.914062 112.019531 C 141.324219 110.855469 145.8125 111.925781 149.171875 112.273438 C 151.074219 126.292969 153.820312 146.796875 153.695312 147.445312 C 153.507812 148.433594 154.484375 150.402344 156.023438 152.527344 C 156.746094 153.535156 160.476562 157.355469 164.203125 161.109375 C 168.363281 165.296875 172.527344 169.398438 172.527344 169.398438 Z M 172.527344 169.398438 " fill-opacity="1" fill-rule="nonzero"/><path fill="#fb6801" d="M 261.191406 117.792969 L 222.90625 117.792969 C 222.675781 117.792969 222.480469 117.714844 222.320312 117.550781 C 222.15625 117.390625 222.074219 117.195312 222.074219 116.96875 C 222.074219 116.738281 222.15625 116.542969 222.320312 116.382812 C 222.480469 116.222656 222.675781 116.140625 222.90625 116.140625 L 261.191406 116.140625 C 261.417969 116.144531 261.613281 116.222656 261.773438 116.382812 C 261.933594 116.546875 262.015625 116.738281 262.015625 116.96875 C 262.015625 117.195312 261.933594 117.390625 261.773438 117.550781 C 261.613281 117.710938 261.417969 117.792969 261.191406 117.792969 Z M 261.191406 117.792969 " fill-opacity="1" fill-rule="nonzero"/><path fill="#f2f2f2" d="M 280.574219 125.339844 L 222.90625 125.339844 C 222.675781 125.339844 222.480469 125.261719 222.320312 125.101562 C 222.15625 124.9375 222.074219 124.742188 222.074219 124.515625 C 222.074219 124.285156 222.15625 124.089844 222.320312 123.929688 C 222.480469 123.769531 222.675781 123.6875 222.90625 123.6875 L 280.574219 123.6875 C 280.800781 123.691406 280.996094 123.769531 281.15625 123.933594 C 281.316406 124.09375 281.398438 124.289062 281.398438 124.515625 C 281.398438 124.742188 281.316406 124.9375 281.15625 125.097656 C 280.996094 125.257812 280.800781 125.339844 280.574219 125.339844 Z M 280.574219 125.339844 " fill-opacity="1" fill-rule="nonzero"/><path fill="#f2f2f2" d="M 280.574219 131.234375 L 222.902344 131.234375 C 222.675781 131.234375 222.480469 131.316406 222.320312 131.476562 C 222.15625 131.640625 222.078125 131.832031 222.078125 132.0625 C 222.078125 132.289062 222.15625 132.484375 222.320312 132.644531 C 222.480469 132.808594 222.675781 132.886719 222.902344 132.886719 L 280.574219 132.886719 C 280.804688 132.886719 281 132.808594 281.160156 132.644531 C 281.320312 132.484375 281.402344 132.289062 281.402344 132.0625 C 281.402344 131.832031 281.320312 131.640625 281.160156 131.476562 C 281 131.316406 280.804688 131.234375 280.574219 131.234375 Z M 280.574219 131.234375 " fill-opacity="1" fill-rule="nonzero"/><path fill="#f2f2f2" d="M 280.574219 140.433594 L 222.90625 140.433594 C 222.675781 140.433594 222.480469 140.355469 222.320312 140.195312 C 222.160156 140.03125 222.078125 139.835938 222.078125 139.609375 C 222.078125 139.382812 222.160156 139.1875 222.320312 139.027344 C 222.480469 138.863281 222.675781 138.785156 222.90625 138.785156 L 280.574219 138.785156 C 280.800781 138.785156 280.996094 138.863281 281.15625 139.027344 C 281.320312 139.1875 281.398438 139.382812 281.398438 139.609375 C 281.398438 139.835938 281.320312 140.03125 281.15625 140.195312 C 280.996094 140.355469 280.800781 140.433594 280.574219 140.433594 Z M 280.574219 140.433594 " fill-opacity="1" fill-rule="nonzero"/><g fill="#202020" fill-opacity="1"><g transform="translate(81.117934, 272.837003)"><g><path d="M 8.75 -9.8125 C 8.664062 -10.46875 8.351562 -10.972656 7.8125 -11.328125 C 7.269531 -11.679688 6.597656 -11.859375 5.796875 -11.859375 C 4.929688 -11.859375 4.234375 -11.648438 3.703125 -11.234375 C 3.179688 -10.828125 2.921875 -10.3125 2.921875 -9.6875 C 2.921875 -9.21875 3.0625 -8.835938 3.34375 -8.546875 C 3.632812 -8.265625 3.972656 -8.039062 4.359375 -7.875 C 4.753906 -7.71875 5.117188 -7.597656 5.453125 -7.515625 L 6.78125 -7.15625 C 7.113281 -7.070312 7.488281 -6.945312 7.90625 -6.78125 C 8.332031 -6.625 8.738281 -6.410156 9.125 -6.140625 C 9.507812 -5.867188 9.828125 -5.519531 10.078125 -5.09375 C 10.328125 -4.675781 10.453125 -4.160156 10.453125 -3.546875 C 10.453125 -2.847656 10.265625 -2.210938 9.890625 -1.640625 C 9.523438 -1.066406 8.988281 -0.609375 8.28125 -0.265625 C 7.582031 0.0664062 6.734375 0.234375 5.734375 0.234375 C 4.328125 0.234375 3.207031 -0.0976562 2.375 -0.765625 C 1.550781 -1.429688 1.097656 -2.300781 1.015625 -3.375 L 2.65625 -3.375 C 2.695312 -2.882812 2.863281 -2.476562 3.15625 -2.15625 C 3.445312 -1.832031 3.816406 -1.59375 4.265625 -1.4375 C 4.722656 -1.28125 5.210938 -1.203125 5.734375 -1.203125 C 6.335938 -1.203125 6.878906 -1.300781 7.359375 -1.5 C 7.835938 -1.695312 8.21875 -1.972656 8.5 -2.328125 C 8.78125 -2.679688 8.921875 -3.097656 8.921875 -3.578125 C 8.921875 -4.015625 8.796875 -4.367188 8.546875 -4.640625 C 8.304688 -4.910156 7.988281 -5.128906 7.59375 -5.296875 C 7.195312 -5.472656 6.769531 -5.625 6.3125 -5.75 L 4.703125 -6.21875 C 3.679688 -6.507812 2.867188 -6.925781 2.265625 -7.46875 C 1.671875 -8.019531 1.375 -8.734375 1.375 -9.609375 C 1.375 -10.347656 1.570312 -10.988281 1.96875 -11.53125 C 2.375 -12.082031 2.914062 -12.507812 3.59375 -12.8125 C 4.269531 -13.113281 5.023438 -13.265625 5.859375 -13.265625 C 6.703125 -13.265625 7.453125 -13.113281 8.109375 -12.8125 C 8.765625 -12.519531 9.285156 -12.113281 9.671875 -11.59375 C 10.054688 -11.070312 10.257812 -10.476562 10.28125 -9.8125 Z M 8.75 -9.8125 "/></g></g></g><g fill="#202020" fill-opacity="1"><g transform="translate(92.590692, 272.837003)"><g><path d="M 2.890625 -5.90625 L 2.890625 0 L 1.375 0 L 1.375 -13.09375 L 2.890625 -13.09375 L 2.890625 -8.28125 L 3.015625 -8.28125 C 3.242188 -8.789062 3.585938 -9.195312 4.046875 -9.5 C 4.515625 -9.800781 5.132812 -9.953125 5.90625 -9.953125 C 6.914062 -9.953125 7.722656 -9.644531 8.328125 -9.03125 C 8.941406 -8.425781 9.25 -7.492188 9.25 -6.234375 L 9.25 0 L 7.75 0 L 7.75 -6.140625 C 7.75 -6.921875 7.546875 -7.523438 7.140625 -7.953125 C 6.734375 -8.378906 6.175781 -8.59375 5.46875 -8.59375 C 4.726562 -8.59375 4.113281 -8.359375 3.625 -7.890625 C 3.132812 -7.421875 2.890625 -6.757812 2.890625 -5.90625 Z M 2.890625 -5.90625 "/></g></g></g><g fill="#202020" fill-opacity="1"><g transform="translate(103.220239, 272.837003)"><g><path d="M 4.265625 0.234375 C 3.648438 0.234375 3.085938 0.113281 2.578125 -0.125 C 2.066406 -0.363281 1.660156 -0.707031 1.359375 -1.15625 C 1.066406 -1.601562 0.921875 -2.144531 0.921875 -2.78125 C 0.921875 -3.34375 1.03125 -3.800781 1.25 -4.15625 C 1.46875 -4.507812 1.765625 -4.785156 2.140625 -4.984375 C 2.515625 -5.179688 2.925781 -5.332031 3.375 -5.4375 C 3.820312 -5.539062 4.273438 -5.617188 4.734375 -5.671875 C 5.328125 -5.753906 5.8125 -5.8125 6.1875 -5.84375 C 6.5625 -5.882812 6.832031 -5.953125 7 -6.046875 C 7.175781 -6.148438 7.265625 -6.328125 7.265625 -6.578125 L 7.265625 -6.625 C 7.265625 -7.25 7.09375 -7.734375 6.75 -8.078125 C 6.40625 -8.429688 5.882812 -8.609375 5.1875 -8.609375 C 4.46875 -8.609375 3.898438 -8.453125 3.484375 -8.140625 C 3.078125 -7.828125 2.796875 -7.492188 2.640625 -7.140625 L 1.203125 -7.640625 C 1.453125 -8.242188 1.789062 -8.710938 2.21875 -9.046875 C 2.65625 -9.378906 3.125 -9.613281 3.625 -9.75 C 4.132812 -9.882812 4.640625 -9.953125 5.140625 -9.953125 C 5.453125 -9.953125 5.8125 -9.910156 6.21875 -9.828125 C 6.632812 -9.753906 7.035156 -9.601562 7.421875 -9.375 C 7.804688 -9.144531 8.125 -8.796875 8.375 -8.328125 C 8.632812 -7.867188 8.765625 -7.25 8.765625 -6.46875 L 8.765625 0 L 7.265625 0 L 7.265625 -1.328125 L 7.1875 -1.328125 C 7.082031 -1.117188 6.910156 -0.890625 6.671875 -0.640625 C 6.429688 -0.398438 6.113281 -0.191406 5.71875 -0.015625 C 5.320312 0.148438 4.835938 0.234375 4.265625 0.234375 Z M 4.5 -1.125 C 5.09375 -1.125 5.59375 -1.238281 6 -1.46875 C 6.414062 -1.707031 6.726562 -2.007812 6.9375 -2.375 C 7.15625 -2.75 7.265625 -3.140625 7.265625 -3.546875 L 7.265625 -4.9375 C 7.203125 -4.851562 7.0625 -4.78125 6.84375 -4.71875 C 6.625 -4.664062 6.375 -4.613281 6.09375 -4.5625 C 5.820312 -4.519531 5.550781 -4.484375 5.28125 -4.453125 C 5.019531 -4.421875 4.8125 -4.394531 4.65625 -4.375 C 4.257812 -4.320312 3.890625 -4.238281 3.546875 -4.125 C 3.210938 -4.007812 2.941406 -3.835938 2.734375 -3.609375 C 2.523438 -3.390625 2.421875 -3.085938 2.421875 -2.703125 C 2.421875 -2.179688 2.613281 -1.785156 3 -1.515625 C 3.394531 -1.253906 3.894531 -1.125 4.5 -1.125 Z M 4.5 -1.125 "/></g></g></g><g fill="#202020" fill-opacity="1"><g transform="translate(113.364304, 272.837003)"><g><path d="M 1.375 0 L 1.375 -9.8125 L 2.84375 -9.8125 L 2.84375 -8.328125 L 2.9375 -8.328125 C 3.113281 -8.816406 3.4375 -9.210938 3.90625 -9.515625 C 4.375 -9.816406 4.90625 -9.96875 5.5 -9.96875 C 5.769531 -9.96875 6.003906 -9.9375 6.203125 -9.875 C 6.410156 -9.8125 6.59375 -9.722656 6.75 -9.609375 L 6.234375 -8.328125 C 6.128906 -8.390625 6.003906 -8.4375 5.859375 -8.46875 C 5.722656 -8.5 5.5625 -8.515625 5.375 -8.515625 C 4.65625 -8.515625 4.0625 -8.296875 3.59375 -7.859375 C 3.125 -7.421875 2.890625 -6.875 2.890625 -6.21875 L 2.890625 0 Z M 1.375 0 "/></g></g></g><g fill="#202020" fill-opacity="1"><g transform="translate(120.263294, 272.837003)"><g><path d="M 5.5 0.203125 C 4.550781 0.203125 3.734375 -0.00390625 3.046875 -0.421875 C 2.367188 -0.835938 1.84375 -1.425781 1.46875 -2.1875 C 1.101562 -2.945312 0.921875 -3.828125 0.921875 -4.828125 C 0.921875 -5.835938 1.101562 -6.722656 1.46875 -7.484375 C 1.84375 -8.253906 2.359375 -8.859375 3.015625 -9.296875 C 3.679688 -9.734375 4.457031 -9.953125 5.34375 -9.953125 C 5.851562 -9.953125 6.359375 -9.863281 6.859375 -9.6875 C 7.359375 -9.519531 7.8125 -9.242188 8.21875 -8.859375 C 8.625 -8.484375 8.945312 -7.976562 9.1875 -7.34375 C 9.4375 -6.71875 9.5625 -5.945312 9.5625 -5.03125 L 9.5625 -4.390625 L 2.4375 -4.390625 C 2.46875 -3.347656 2.765625 -2.546875 3.328125 -1.984375 C 3.890625 -1.429688 4.613281 -1.15625 5.5 -1.15625 C 6.09375 -1.15625 6.597656 -1.28125 7.015625 -1.53125 C 7.441406 -1.789062 7.753906 -2.175781 7.953125 -2.6875 L 9.40625 -2.28125 C 9.175781 -1.53125 8.71875 -0.925781 8.03125 -0.46875 C 7.34375 -0.0195312 6.5 0.203125 5.5 0.203125 Z M 2.4375 -5.703125 L 8.03125 -5.703125 C 8.03125 -6.535156 7.785156 -7.222656 7.296875 -7.765625 C 6.816406 -8.316406 6.164062 -8.59375 5.34375 -8.59375 C 4.769531 -8.59375 4.269531 -8.457031 3.84375 -8.1875 C 3.425781 -7.914062 3.09375 -7.5625 2.84375 -7.125 C 2.601562 -6.6875 2.46875 -6.210938 2.4375 -5.703125 Z M 2.4375 -5.703125 "/></g></g></g><g fill="#202020" fill-opacity="1"><g transform="translate(130.739535, 272.837003)"><g/></g></g><g fill="#202020" fill-opacity="1"><g transform="translate(135.798797, 272.837003)"><g><path d="M 1.375 3.6875 L 1.375 -9.8125 L 2.84375 -9.8125 L 2.84375 -8.265625 L 3.015625 -8.265625 C 3.128906 -8.429688 3.285156 -8.644531 3.484375 -8.90625 C 3.679688 -9.175781 3.960938 -9.414062 4.328125 -9.625 C 4.703125 -9.84375 5.210938 -9.953125 5.859375 -9.953125 C 6.679688 -9.953125 7.40625 -9.742188 8.03125 -9.328125 C 8.664062 -8.910156 9.160156 -8.320312 9.515625 -7.5625 C 9.867188 -6.8125 10.046875 -5.921875 10.046875 -4.890625 C 10.046875 -3.847656 9.867188 -2.945312 9.515625 -2.1875 C 9.160156 -1.425781 8.671875 -0.835938 8.046875 -0.421875 C 7.421875 -0.00390625 6.695312 0.203125 5.875 0.203125 C 5.25 0.203125 4.742188 0.0976562 4.359375 -0.109375 C 3.984375 -0.316406 3.691406 -0.554688 3.484375 -0.828125 C 3.285156 -1.097656 3.128906 -1.328125 3.015625 -1.515625 L 2.890625 -1.515625 L 2.890625 3.6875 Z M 2.859375 -4.90625 C 2.859375 -3.789062 3.097656 -2.882812 3.578125 -2.1875 C 4.066406 -1.5 4.765625 -1.15625 5.671875 -1.15625 C 6.304688 -1.15625 6.832031 -1.320312 7.25 -1.65625 C 7.675781 -1.988281 8 -2.4375 8.21875 -3 C 8.4375 -3.570312 8.546875 -4.207031 8.546875 -4.90625 C 8.546875 -5.59375 8.4375 -6.210938 8.21875 -6.765625 C 8.007812 -7.328125 7.691406 -7.769531 7.265625 -8.09375 C 6.847656 -8.425781 6.316406 -8.59375 5.671875 -8.59375 C 4.753906 -8.59375 4.054688 -8.253906 3.578125 -7.578125 C 3.097656 -6.898438 2.859375 -6.007812 2.859375 -4.90625 Z M 2.859375 -4.90625 "/></g></g></g><g fill="#202020" fill-opacity="1"><g transform="translate(146.760519, 272.837003)"><g><path d="M 1.375 0 L 1.375 -9.8125 L 2.84375 -9.8125 L 2.84375 -8.328125 L 2.9375 -8.328125 C 3.113281 -8.816406 3.4375 -9.210938 3.90625 -9.515625 C 4.375 -9.816406 4.90625 -9.96875 5.5 -9.96875 C 5.769531 -9.96875 6.003906 -9.9375 6.203125 -9.875 C 6.410156 -9.8125 6.59375 -9.722656 6.75 -9.609375 L 6.234375 -8.328125 C 6.128906 -8.390625 6.003906 -8.4375 5.859375 -8.46875 C 5.722656 -8.5 5.5625 -8.515625 5.375 -8.515625 C 4.65625 -8.515625 4.0625 -8.296875 3.59375 -7.859375 C 3.125 -7.421875 2.890625 -6.875 2.890625 -6.21875 L 2.890625 0 Z M 1.375 0 "/></g></g></g><g fill="#202020" fill-opacity="1"><g transform="translate(153.659509, 272.837003)"><g><path d="M 5.375 0.203125 C 4.488281 0.203125 3.707031 -0.00390625 3.03125 -0.421875 C 2.363281 -0.847656 1.84375 -1.441406 1.46875 -2.203125 C 1.101562 -2.960938 0.921875 -3.847656 0.921875 -4.859375 C 0.921875 -5.878906 1.101562 -6.769531 1.46875 -7.53125 C 1.84375 -8.300781 2.363281 -8.894531 3.03125 -9.3125 C 3.707031 -9.738281 4.488281 -9.953125 5.375 -9.953125 C 6.257812 -9.953125 7.035156 -9.738281 7.703125 -9.3125 C 8.367188 -8.894531 8.882812 -8.300781 9.25 -7.53125 C 9.625 -6.769531 9.8125 -5.878906 9.8125 -4.859375 C 9.8125 -3.847656 9.625 -2.960938 9.25 -2.203125 C 8.882812 -1.441406 8.367188 -0.847656 7.703125 -0.421875 C 7.035156 -0.00390625 6.257812 0.203125 5.375 0.203125 Z M 5.375 -1.15625 C 6.039062 -1.15625 6.59375 -1.328125 7.03125 -1.671875 C 7.46875 -2.015625 7.789062 -2.46875 8 -3.03125 C 8.207031 -3.59375 8.3125 -4.203125 8.3125 -4.859375 C 8.3125 -5.515625 8.207031 -6.125 8 -6.6875 C 7.789062 -7.257812 7.46875 -7.71875 7.03125 -8.0625 C 6.59375 -8.414062 6.039062 -8.59375 5.375 -8.59375 C 4.695312 -8.59375 4.140625 -8.414062 3.703125 -8.0625 C 3.273438 -7.71875 2.953125 -7.257812 2.734375 -6.6875 C 2.523438 -6.125 2.421875 -5.515625 2.421875 -4.859375 C 2.421875 -4.203125 2.523438 -3.59375 2.734375 -3.03125 C 2.953125 -2.46875 3.273438 -2.015625 3.703125 -1.671875 C 4.140625 -1.328125 4.695312 -1.15625 5.375 -1.15625 Z M 5.375 -1.15625 "/></g></g></g><g fill="#202020" fill-opacity="1"><g transform="translate(164.391263, 272.837003)"><g><path d="M 1.375 3.6875 L 1.375 -9.8125 L 2.84375 -9.8125 L 2.84375 -8.265625 L 3.015625 -8.265625 C 3.128906 -8.429688 3.285156 -8.644531 3.484375 -8.90625 C 3.679688 -9.175781 3.960938 -9.414062 4.328125 -9.625 C 4.703125 -9.84375 5.210938 -9.953125 5.859375 -9.953125 C 6.679688 -9.953125 7.40625 -9.742188 8.03125 -9.328125 C 8.664062 -8.910156 9.160156 -8.320312 9.515625 -7.5625 C 9.867188 -6.8125 10.046875 -5.921875 10.046875 -4.890625 C 10.046875 -3.847656 9.867188 -2.945312 9.515625 -2.1875 C 9.160156 -1.425781 8.671875 -0.835938 8.046875 -0.421875 C 7.421875 -0.00390625 6.695312 0.203125 5.875 0.203125 C 5.25 0.203125 4.742188 0.0976562 4.359375 -0.109375 C 3.984375 -0.316406 3.691406 -0.554688 3.484375 -0.828125 C 3.285156 -1.097656 3.128906 -1.328125 3.015625 -1.515625 L 2.890625 -1.515625 L 2.890625 3.6875 Z M 2.859375 -4.90625 C 2.859375 -3.789062 3.097656 -2.882812 3.578125 -2.1875 C 4.066406 -1.5 4.765625 -1.15625 5.671875 -1.15625 C 6.304688 -1.15625 6.832031 -1.320312 7.25 -1.65625 C 7.675781 -1.988281 8 -2.4375 8.21875 -3 C 8.4375 -3.570312 8.546875 -4.207031 8.546875 -4.90625 C 8.546875 -5.59375 8.4375 -6.210938 8.21875 -6.765625 C 8.007812 -7.328125 7.691406 -7.769531 7.265625 -8.09375 C 6.847656 -8.425781 6.316406 -8.59375 5.671875 -8.59375 C 4.753906 -8.59375 4.054688 -8.253906 3.578125 -7.578125 C 3.097656 -6.898438 2.859375 -6.007812 2.859375 -4.90625 Z M 2.859375 -4.90625 "/></g></g></g><g fill="#202020" fill-opacity="1"><g transform="translate(175.352985, 272.837003)"><g><path d="M 5.375 0.203125 C 4.488281 0.203125 3.707031 -0.00390625 3.03125 -0.421875 C 2.363281 -0.847656 1.84375 -1.441406 1.46875 -2.203125 C 1.101562 -2.960938 0.921875 -3.847656 0.921875 -4.859375 C 0.921875 -5.878906 1.101562 -6.769531 1.46875 -7.53125 C 1.84375 -8.300781 2.363281 -8.894531 3.03125 -9.3125 C 3.707031 -9.738281 4.488281 -9.953125 5.375 -9.953125 C 6.257812 -9.953125 7.035156 -9.738281 7.703125 -9.3125 C 8.367188 -8.894531 8.882812 -8.300781 9.25 -7.53125 C 9.625 -6.769531 9.8125 -5.878906 9.8125 -4.859375 C 9.8125 -3.847656 9.625 -2.960938 9.25 -2.203125 C 8.882812 -1.441406 8.367188 -0.847656 7.703125 -0.421875 C 7.035156 -0.00390625 6.257812 0.203125 5.375 0.203125 Z M 5.375 -1.15625 C 6.039062 -1.15625 6.59375 -1.328125 7.03125 -1.671875 C 7.46875 -2.015625 7.789062 -2.46875 8 -3.03125 C 8.207031 -3.59375 8.3125 -4.203125 8.3125 -4.859375 C 8.3125 -5.515625 8.207031 -6.125 8 -6.6875 C 7.789062 -7.257812 7.46875 -7.71875 7.03125 -8.0625 C 6.59375 -8.414062 6.039062 -8.59375 5.375 -8.59375 C 4.695312 -8.59375 4.140625 -8.414062 3.703125 -8.0625 C 3.273438 -7.71875 2.953125 -7.257812 2.734375 -6.6875 C 2.523438 -6.125 2.421875 -5.515625 2.421875 -4.859375 C 2.421875 -4.203125 2.523438 -3.59375 2.734375 -3.03125 C 2.953125 -2.46875 3.273438 -2.015625 3.703125 -1.671875 C 4.140625 -1.328125 4.695312 -1.15625 5.375 -1.15625 Z M 5.375 -1.15625 "/></g></g></g><g fill="#202020" fill-opacity="1"><g transform="translate(186.084739, 272.837003)"><g><path d="M 8.328125 -7.625 L 6.984375 -7.234375 C 6.847656 -7.578125 6.625 -7.894531 6.3125 -8.1875 C 6 -8.488281 5.515625 -8.640625 4.859375 -8.640625 C 4.253906 -8.640625 3.753906 -8.5 3.359375 -8.21875 C 2.960938 -7.945312 2.765625 -7.601562 2.765625 -7.1875 C 2.765625 -6.8125 2.898438 -6.515625 3.171875 -6.296875 C 3.441406 -6.078125 3.867188 -5.894531 4.453125 -5.75 L 5.90625 -5.390625 C 7.644531 -4.960938 8.515625 -4.078125 8.515625 -2.734375 C 8.515625 -2.171875 8.351562 -1.664062 8.03125 -1.21875 C 7.707031 -0.78125 7.257812 -0.429688 6.6875 -0.171875 C 6.113281 0.078125 5.441406 0.203125 4.671875 0.203125 C 3.671875 0.203125 2.84375 -0.0078125 2.1875 -0.4375 C 1.53125 -0.875 1.117188 -1.515625 0.953125 -2.359375 L 2.375 -2.703125 C 2.644531 -1.648438 3.40625 -1.125 4.65625 -1.125 C 5.351562 -1.125 5.910156 -1.273438 6.328125 -1.578125 C 6.742188 -1.878906 6.953125 -2.238281 6.953125 -2.65625 C 6.953125 -3.351562 6.46875 -3.816406 5.5 -4.046875 L 3.859375 -4.421875 C 2.960938 -4.640625 2.300781 -4.972656 1.875 -5.421875 C 1.457031 -5.867188 1.25 -6.429688 1.25 -7.109375 C 1.25 -7.660156 1.40625 -8.148438 1.71875 -8.578125 C 2.03125 -9.003906 2.457031 -9.335938 3 -9.578125 C 3.550781 -9.828125 4.171875 -9.953125 4.859375 -9.953125 C 5.828125 -9.953125 6.585938 -9.738281 7.140625 -9.3125 C 7.703125 -8.882812 8.097656 -8.320312 8.328125 -7.625 Z M 8.328125 -7.625 "/></g></g></g><g fill="#202020" fill-opacity="1"><g transform="translate(195.487799, 272.837003)"><g><path d="M 4.265625 0.234375 C 3.648438 0.234375 3.085938 0.113281 2.578125 -0.125 C 2.066406 -0.363281 1.660156 -0.707031 1.359375 -1.15625 C 1.066406 -1.601562 0.921875 -2.144531 0.921875 -2.78125 C 0.921875 -3.34375 1.03125 -3.800781 1.25 -4.15625 C 1.46875 -4.507812 1.765625 -4.785156 2.140625 -4.984375 C 2.515625 -5.179688 2.925781 -5.332031 3.375 -5.4375 C 3.820312 -5.539062 4.273438 -5.617188 4.734375 -5.671875 C 5.328125 -5.753906 5.8125 -5.8125 6.1875 -5.84375 C 6.5625 -5.882812 6.832031 -5.953125 7 -6.046875 C 7.175781 -6.148438 7.265625 -6.328125 7.265625 -6.578125 L 7.265625 -6.625 C 7.265625 -7.25 7.09375 -7.734375 6.75 -8.078125 C 6.40625 -8.429688 5.882812 -8.609375 5.1875 -8.609375 C 4.46875 -8.609375 3.898438 -8.453125 3.484375 -8.140625 C 3.078125 -7.828125 2.796875 -7.492188 2.640625 -7.140625 L 1.203125 -7.640625 C 1.453125 -8.242188 1.789062 -8.710938 2.21875 -9.046875 C 2.65625 -9.378906 3.125 -9.613281 3.625 -9.75 C 4.132812 -9.882812 4.640625 -9.953125 5.140625 -9.953125 C 5.453125 -9.953125 5.8125 -9.910156 6.21875 -9.828125 C 6.632812 -9.753906 7.035156 -9.601562 7.421875 -9.375 C 7.804688 -9.144531 8.125 -8.796875 8.375 -8.328125 C 8.632812 -7.867188 8.765625 -7.25 8.765625 -6.46875 L 8.765625 0 L 7.265625 0 L 7.265625 -1.328125 L 7.1875 -1.328125 C 7.082031 -1.117188 6.910156 -0.890625 6.671875 -0.640625 C 6.429688 -0.398438 6.113281 -0.191406 5.71875 -0.015625 C 5.320312 0.148438 4.835938 0.234375 4.265625 0.234375 Z M 4.5 -1.125 C 5.09375 -1.125 5.59375 -1.238281 6 -1.46875 C 6.414062 -1.707031 6.726562 -2.007812 6.9375 -2.375 C 7.15625 -2.75 7.265625 -3.140625 7.265625 -3.546875 L 7.265625 -4.9375 C 7.203125 -4.851562 7.0625 -4.78125 6.84375 -4.71875 C 6.625 -4.664062 6.375 -4.613281 6.09375 -4.5625 C 5.820312 -4.519531 5.550781 -4.484375 5.28125 -4.453125 C 5.019531 -4.421875 4.8125 -4.394531 4.65625 -4.375 C 4.257812 -4.320312 3.890625 -4.238281 3.546875 -4.125 C 3.210938 -4.007812 2.941406 -3.835938 2.734375 -3.609375 C 2.523438 -3.390625 2.421875 -3.085938 2.421875 -2.703125 C 2.421875 -2.179688 2.613281 -1.785156 3 -1.515625 C 3.394531 -1.253906 3.894531 -1.125 4.5 -1.125 Z M 4.5 -1.125 "/></g></g></g><g fill="#202020" fill-opacity="1"><g transform="translate(205.631865, 272.837003)"><g><path d="M 2.890625 -13.09375 L 2.890625 0 L 1.375 0 L 1.375 -13.09375 Z M 2.890625 -13.09375 "/></g></g></g><g fill="#202020" fill-opacity="1"><g transform="translate(209.899011, 272.837003)"><g><path d="M 8.328125 -7.625 L 6.984375 -7.234375 C 6.847656 -7.578125 6.625 -7.894531 6.3125 -8.1875 C 6 -8.488281 5.515625 -8.640625 4.859375 -8.640625 C 4.253906 -8.640625 3.753906 -8.5 3.359375 -8.21875 C 2.960938 -7.945312 2.765625 -7.601562 2.765625 -7.1875 C 2.765625 -6.8125 2.898438 -6.515625 3.171875 -6.296875 C 3.441406 -6.078125 3.867188 -5.894531 4.453125 -5.75 L 5.90625 -5.390625 C 7.644531 -4.960938 8.515625 -4.078125 8.515625 -2.734375 C 8.515625 -2.171875 8.351562 -1.664062 8.03125 -1.21875 C 7.707031 -0.78125 7.257812 -0.429688 6.6875 -0.171875 C 6.113281 0.078125 5.441406 0.203125 4.671875 0.203125 C 3.671875 0.203125 2.84375 -0.0078125 2.1875 -0.4375 C 1.53125 -0.875 1.117188 -1.515625 0.953125 -2.359375 L 2.375 -2.703125 C 2.644531 -1.648438 3.40625 -1.125 4.65625 -1.125 C 5.351562 -1.125 5.910156 -1.273438 6.328125 -1.578125 C 6.742188 -1.878906 6.953125 -2.238281 6.953125 -2.65625 C 6.953125 -3.351562 6.46875 -3.816406 5.5 -4.046875 L 3.859375 -4.421875 C 2.960938 -4.640625 2.300781 -4.972656 1.875 -5.421875 C 1.457031 -5.867188 1.25 -6.429688 1.25 -7.109375 C 1.25 -7.660156 1.40625 -8.148438 1.71875 -8.578125 C 2.03125 -9.003906 2.457031 -9.335938 3 -9.578125 C 3.550781 -9.828125 4.171875 -9.953125 4.859375 -9.953125 C 5.828125 -9.953125 6.585938 -9.738281 7.140625 -9.3125 C 7.703125 -8.882812 8.097656 -8.320312 8.328125 -7.625 Z M 8.328125 -7.625 "/></g></g></g><g fill="#202020" fill-opacity="1"><g transform="translate(219.302072, 272.837003)"><g/></g></g><g fill="#202020" fill-opacity="1"><g transform="translate(224.361333, 272.837003)"><g><path d="M 4.265625 0.234375 C 3.648438 0.234375 3.085938 0.113281 2.578125 -0.125 C 2.066406 -0.363281 1.660156 -0.707031 1.359375 -1.15625 C 1.066406 -1.601562 0.921875 -2.144531 0.921875 -2.78125 C 0.921875 -3.34375 1.03125 -3.800781 1.25 -4.15625 C 1.46875 -4.507812 1.765625 -4.785156 2.140625 -4.984375 C 2.515625 -5.179688 2.925781 -5.332031 3.375 -5.4375 C 3.820312 -5.539062 4.273438 -5.617188 4.734375 -5.671875 C 5.328125 -5.753906 5.8125 -5.8125 6.1875 -5.84375 C 6.5625 -5.882812 6.832031 -5.953125 7 -6.046875 C 7.175781 -6.148438 7.265625 -6.328125 7.265625 -6.578125 L 7.265625 -6.625 C 7.265625 -7.25 7.09375 -7.734375 6.75 -8.078125 C 6.40625 -8.429688 5.882812 -8.609375 5.1875 -8.609375 C 4.46875 -8.609375 3.898438 -8.453125 3.484375 -8.140625 C 3.078125 -7.828125 2.796875 -7.492188 2.640625 -7.140625 L 1.203125 -7.640625 C 1.453125 -8.242188 1.789062 -8.710938 2.21875 -9.046875 C 2.65625 -9.378906 3.125 -9.613281 3.625 -9.75 C 4.132812 -9.882812 4.640625 -9.953125 5.140625 -9.953125 C 5.453125 -9.953125 5.8125 -9.910156 6.21875 -9.828125 C 6.632812 -9.753906 7.035156 -9.601562 7.421875 -9.375 C 7.804688 -9.144531 8.125 -8.796875 8.375 -8.328125 C 8.632812 -7.867188 8.765625 -7.25 8.765625 -6.46875 L 8.765625 0 L 7.265625 0 L 7.265625 -1.328125 L 7.1875 -1.328125 C 7.082031 -1.117188 6.910156 -0.890625 6.671875 -0.640625 C 6.429688 -0.398438 6.113281 -0.191406 5.71875 -0.015625 C 5.320312 0.148438 4.835938 0.234375 4.265625 0.234375 Z M 4.5 -1.125 C 5.09375 -1.125 5.59375 -1.238281 6 -1.46875 C 6.414062 -1.707031 6.726562 -2.007812 6.9375 -2.375 C 7.15625 -2.75 7.265625 -3.140625 7.265625 -3.546875 L 7.265625 -4.9375 C 7.203125 -4.851562 7.0625 -4.78125 6.84375 -4.71875 C 6.625 -4.664062 6.375 -4.613281 6.09375 -4.5625 C 5.820312 -4.519531 5.550781 -4.484375 5.28125 -4.453125 C 5.019531 -4.421875 4.8125 -4.394531 4.65625 -4.375 C 4.257812 -4.320312 3.890625 -4.238281 3.546875 -4.125 C 3.210938 -4.007812 2.941406 -3.835938 2.734375 -3.609375 C 2.523438 -3.390625 2.421875 -3.085938 2.421875 -2.703125 C 2.421875 -2.179688 2.613281 -1.785156 3 -1.515625 C 3.394531 -1.253906 3.894531 -1.125 4.5 -1.125 Z M 4.5 -1.125 "/></g></g></g><g fill="#202020" fill-opacity="1"><g transform="translate(234.505398, 272.837003)"><g><path d="M 2.890625 -5.90625 L 2.890625 0 L 1.375 0 L 1.375 -9.8125 L 2.84375 -9.8125 L 2.84375 -8.28125 L 2.96875 -8.28125 C 3.195312 -8.78125 3.546875 -9.179688 4.015625 -9.484375 C 4.484375 -9.796875 5.085938 -9.953125 5.828125 -9.953125 C 6.816406 -9.953125 7.617188 -9.644531 8.234375 -9.03125 C 8.847656 -8.425781 9.15625 -7.492188 9.15625 -6.234375 L 9.15625 0 L 7.640625 0 L 7.640625 -6.140625 C 7.640625 -6.910156 7.4375 -7.507812 7.03125 -7.9375 C 6.632812 -8.375 6.085938 -8.59375 5.390625 -8.59375 C 4.671875 -8.59375 4.070312 -8.359375 3.59375 -7.890625 C 3.125 -7.421875 2.890625 -6.757812 2.890625 -5.90625 Z M 2.890625 -5.90625 "/></g></g></g><g fill="#202020" fill-opacity="1"><g transform="translate(245.032737, 272.837003)"><g><path d="M 5.09375 0.203125 C 4.269531 0.203125 3.546875 -0.00390625 2.921875 -0.421875 C 2.296875 -0.835938 1.804688 -1.425781 1.453125 -2.1875 C 1.097656 -2.945312 0.921875 -3.847656 0.921875 -4.890625 C 0.921875 -5.921875 1.097656 -6.8125 1.453125 -7.5625 C 1.804688 -8.320312 2.296875 -8.910156 2.921875 -9.328125 C 3.554688 -9.742188 4.285156 -9.953125 5.109375 -9.953125 C 5.753906 -9.953125 6.257812 -9.84375 6.625 -9.625 C 7 -9.414062 7.285156 -9.175781 7.484375 -8.90625 C 7.679688 -8.644531 7.835938 -8.429688 7.953125 -8.265625 L 8.078125 -8.265625 L 8.078125 -13.09375 L 9.59375 -13.09375 L 9.59375 0 L 8.125 0 L 8.125 -1.515625 L 7.953125 -1.515625 C 7.835938 -1.328125 7.675781 -1.097656 7.46875 -0.828125 C 7.269531 -0.554688 6.976562 -0.316406 6.59375 -0.109375 C 6.21875 0.0976562 5.71875 0.203125 5.09375 0.203125 Z M 5.296875 -1.15625 C 6.203125 -1.15625 6.894531 -1.5 7.375 -2.1875 C 7.863281 -2.882812 8.109375 -3.789062 8.109375 -4.90625 C 8.109375 -6.007812 7.867188 -6.898438 7.390625 -7.578125 C 6.910156 -8.253906 6.210938 -8.59375 5.296875 -8.59375 C 4.648438 -8.59375 4.113281 -8.425781 3.6875 -8.09375 C 3.269531 -7.769531 2.953125 -7.328125 2.734375 -6.765625 C 2.523438 -6.210938 2.421875 -5.59375 2.421875 -4.90625 C 2.421875 -4.207031 2.53125 -3.570312 2.75 -3 C 2.96875 -2.4375 3.285156 -1.988281 3.703125 -1.65625 C 4.128906 -1.320312 4.660156 -1.15625 5.296875 -1.15625 Z M 5.296875 -1.15625 "/></g></g></g><g fill="#202020" fill-opacity="1"><g transform="translate(256.198874, 272.837003)"><g/></g></g><g fill="#202020" fill-opacity="1"><g transform="translate(261.258135, 272.837003)"><g><path d="M 5.09375 0.203125 C 4.269531 0.203125 3.546875 -0.00390625 2.921875 -0.421875 C 2.296875 -0.835938 1.804688 -1.425781 1.453125 -2.1875 C 1.097656 -2.945312 0.921875 -3.847656 0.921875 -4.890625 C 0.921875 -5.921875 1.097656 -6.8125 1.453125 -7.5625 C 1.804688 -8.320312 2.296875 -8.910156 2.921875 -9.328125 C 3.554688 -9.742188 4.285156 -9.953125 5.109375 -9.953125 C 5.753906 -9.953125 6.257812 -9.84375 6.625 -9.625 C 7 -9.414062 7.285156 -9.175781 7.484375 -8.90625 C 7.679688 -8.644531 7.835938 -8.429688 7.953125 -8.265625 L 8.078125 -8.265625 L 8.078125 -13.09375 L 9.59375 -13.09375 L 9.59375 0 L 8.125 0 L 8.125 -1.515625 L 7.953125 -1.515625 C 7.835938 -1.328125 7.675781 -1.097656 7.46875 -0.828125 C 7.269531 -0.554688 6.976562 -0.316406 6.59375 -0.109375 C 6.21875 0.0976562 5.71875 0.203125 5.09375 0.203125 Z M 5.296875 -1.15625 C 6.203125 -1.15625 6.894531 -1.5 7.375 -2.1875 C 7.863281 -2.882812 8.109375 -3.789062 8.109375 -4.90625 C 8.109375 -6.007812 7.867188 -6.898438 7.390625 -7.578125 C 6.910156 -8.253906 6.210938 -8.59375 5.296875 -8.59375 C 4.648438 -8.59375 4.113281 -8.425781 3.6875 -8.09375 C 3.269531 -7.769531 2.953125 -7.328125 2.734375 -6.765625 C 2.523438 -6.210938 2.421875 -5.59375 2.421875 -4.90625 C 2.421875 -4.207031 2.53125 -3.570312 2.75 -3 C 2.96875 -2.4375 3.285156 -1.988281 3.703125 -1.65625 C 4.128906 -1.320312 4.660156 -1.15625 5.296875 -1.15625 Z M 5.296875 -1.15625 "/></g></g></g><g fill="#202020" fill-opacity="1"><g transform="translate(272.424272, 272.837003)"><g><path d="M 5.5 0.203125 C 4.550781 0.203125 3.734375 -0.00390625 3.046875 -0.421875 C 2.367188 -0.835938 1.84375 -1.425781 1.46875 -2.1875 C 1.101562 -2.945312 0.921875 -3.828125 0.921875 -4.828125 C 0.921875 -5.835938 1.101562 -6.722656 1.46875 -7.484375 C 1.84375 -8.253906 2.359375 -8.859375 3.015625 -9.296875 C 3.679688 -9.734375 4.457031 -9.953125 5.34375 -9.953125 C 5.851562 -9.953125 6.359375 -9.863281 6.859375 -9.6875 C 7.359375 -9.519531 7.8125 -9.242188 8.21875 -8.859375 C 8.625 -8.484375 8.945312 -7.976562 9.1875 -7.34375 C 9.4375 -6.71875 9.5625 -5.945312 9.5625 -5.03125 L 9.5625 -4.390625 L 2.4375 -4.390625 C 2.46875 -3.347656 2.765625 -2.546875 3.328125 -1.984375 C 3.890625 -1.429688 4.613281 -1.15625 5.5 -1.15625 C 6.09375 -1.15625 6.597656 -1.28125 7.015625 -1.53125 C 7.441406 -1.789062 7.753906 -2.175781 7.953125 -2.6875 L 9.40625 -2.28125 C 9.175781 -1.53125 8.71875 -0.925781 8.03125 -0.46875 C 7.34375 -0.0195312 6.5 0.203125 5.5 0.203125 Z M 2.4375 -5.703125 L 8.03125 -5.703125 C 8.03125 -6.535156 7.785156 -7.222656 7.296875 -7.765625 C 6.816406 -8.316406 6.164062 -8.59375 5.34375 -8.59375 C 4.769531 -8.59375 4.269531 -8.457031 3.84375 -8.1875 C 3.425781 -7.914062 3.09375 -7.5625 2.84375 -7.125 C 2.601562 -6.6875 2.46875 -6.210938 2.4375 -5.703125 Z M 2.4375 -5.703125 "/></g></g></g><g fill="#202020" fill-opacity="1"><g transform="translate(282.900513, 272.837003)"><g><path d="M 4.265625 0.234375 C 3.648438 0.234375 3.085938 0.113281 2.578125 -0.125 C 2.066406 -0.363281 1.660156 -0.707031 1.359375 -1.15625 C 1.066406 -1.601562 0.921875 -2.144531 0.921875 -2.78125 C 0.921875 -3.34375 1.03125 -3.800781 1.25 -4.15625 C 1.46875 -4.507812 1.765625 -4.785156 2.140625 -4.984375 C 2.515625 -5.179688 2.925781 -5.332031 3.375 -5.4375 C 3.820312 -5.539062 4.273438 -5.617188 4.734375 -5.671875 C 5.328125 -5.753906 5.8125 -5.8125 6.1875 -5.84375 C 6.5625 -5.882812 6.832031 -5.953125 7 -6.046875 C 7.175781 -6.148438 7.265625 -6.328125 7.265625 -6.578125 L 7.265625 -6.625 C 7.265625 -7.25 7.09375 -7.734375 6.75 -8.078125 C 6.40625 -8.429688 5.882812 -8.609375 5.1875 -8.609375 C 4.46875 -8.609375 3.898438 -8.453125 3.484375 -8.140625 C 3.078125 -7.828125 2.796875 -7.492188 2.640625 -7.140625 L 1.203125 -7.640625 C 1.453125 -8.242188 1.789062 -8.710938 2.21875 -9.046875 C 2.65625 -9.378906 3.125 -9.613281 3.625 -9.75 C 4.132812 -9.882812 4.640625 -9.953125 5.140625 -9.953125 C 5.453125 -9.953125 5.8125 -9.910156 6.21875 -9.828125 C 6.632812 -9.753906 7.035156 -9.601562 7.421875 -9.375 C 7.804688 -9.144531 8.125 -8.796875 8.375 -8.328125 C 8.632812 -7.867188 8.765625 -7.25 8.765625 -6.46875 L 8.765625 0 L 7.265625 0 L 7.265625 -1.328125 L 7.1875 -1.328125 C 7.082031 -1.117188 6.910156 -0.890625 6.671875 -0.640625 C 6.429688 -0.398438 6.113281 -0.191406 5.71875 -0.015625 C 5.320312 0.148438 4.835938 0.234375 4.265625 0.234375 Z M 4.5 -1.125 C 5.09375 -1.125 5.59375 -1.238281 6 -1.46875 C 6.414062 -1.707031 6.726562 -2.007812 6.9375 -2.375 C 7.15625 -2.75 7.265625 -3.140625 7.265625 -3.546875 L 7.265625 -4.9375 C 7.203125 -4.851562 7.0625 -4.78125 6.84375 -4.71875 C 6.625 -4.664062 6.375 -4.613281 6.09375 -4.5625 C 5.820312 -4.519531 5.550781 -4.484375 5.28125 -4.453125 C 5.019531 -4.421875 4.8125 -4.394531 4.65625 -4.375 C 4.257812 -4.320312 3.890625 -4.238281 3.546875 -4.125 C 3.210938 -4.007812 2.941406 -3.835938 2.734375 -3.609375 C 2.523438 -3.390625 2.421875 -3.085938 2.421875 -2.703125 C 2.421875 -2.179688 2.613281 -1.785156 3 -1.515625 C 3.394531 -1.253906 3.894531 -1.125 4.5 -1.125 Z M 4.5 -1.125 "/></g></g></g><g fill="#202020" fill-opacity="1"><g transform="translate(293.044579, 272.837003)"><g><path d="M 2.890625 -13.09375 L 2.890625 0 L 1.375 0 L 1.375 -13.09375 Z M 2.890625 -13.09375 "/></g></g></g><g fill="#202020" fill-opacity="1"><g transform="translate(297.311737, 272.837003)"><g><path d="M 8.328125 -7.625 L 6.984375 -7.234375 C 6.847656 -7.578125 6.625 -7.894531 6.3125 -8.1875 C 6 -8.488281 5.515625 -8.640625 4.859375 -8.640625 C 4.253906 -8.640625 3.753906 -8.5 3.359375 -8.21875 C 2.960938 -7.945312 2.765625 -7.601562 2.765625 -7.1875 C 2.765625 -6.8125 2.898438 -6.515625 3.171875 -6.296875 C 3.441406 -6.078125 3.867188 -5.894531 4.453125 -5.75 L 5.90625 -5.390625 C 7.644531 -4.960938 8.515625 -4.078125 8.515625 -2.734375 C 8.515625 -2.171875 8.351562 -1.664062 8.03125 -1.21875 C 7.707031 -0.78125 7.257812 -0.429688 6.6875 -0.171875 C 6.113281 0.078125 5.441406 0.203125 4.671875 0.203125 C 3.671875 0.203125 2.84375 -0.0078125 2.1875 -0.4375 C 1.53125 -0.875 1.117188 -1.515625 0.953125 -2.359375 L 2.375 -2.703125 C 2.644531 -1.648438 3.40625 -1.125 4.65625 -1.125 C 5.351562 -1.125 5.910156 -1.273438 6.328125 -1.578125 C 6.742188 -1.878906 6.953125 -2.238281 6.953125 -2.65625 C 6.953125 -3.351562 6.46875 -3.816406 5.5 -4.046875 L 3.859375 -4.421875 C 2.960938 -4.640625 2.300781 -4.972656 1.875 -5.421875 C 1.457031 -5.867188 1.25 -6.429688 1.25 -7.109375 C 1.25 -7.660156 1.40625 -8.148438 1.71875 -8.578125 C 2.03125 -9.003906 2.457031 -9.335938 3 -9.578125 C 3.550781 -9.828125 4.171875 -9.953125 4.859375 -9.953125 C 5.828125 -9.953125 6.585938 -9.738281 7.140625 -9.3125 C 7.703125 -8.882812 8.097656 -8.320312 8.328125 -7.625 Z M 8.328125 -7.625 "/></g></g></g><g fill="#202020" fill-opacity="1"><g transform="translate(306.714797, 272.837003)"><g><path d="M 2.484375 0.109375 C 2.160156 0.109375 1.882812 -0.00390625 1.65625 -0.234375 C 1.4375 -0.460938 1.328125 -0.734375 1.328125 -1.046875 C 1.328125 -1.359375 1.4375 -1.628906 1.65625 -1.859375 C 1.882812 -2.085938 2.160156 -2.203125 2.484375 -2.203125 C 2.796875 -2.203125 3.0625 -2.085938 3.28125 -1.859375 C 3.507812 -1.628906 3.625 -1.359375 3.625 -1.046875 C 3.625 -0.734375 3.507812 -0.460938 3.28125 -0.234375 C 3.0625 -0.00390625 2.796875 0.109375 2.484375 0.109375 Z M 2.484375 0.109375 "/></g></g></g></svg>