<svg xmlns="http://www.w3.org/2000/svg" xmlns:xlink="http://www.w3.org/1999/xlink" width="500" zoomAndPan="magnify" viewBox="0 0 375 374.999991" height="500" preserveAspectRatio="xMidYMid meet" version="1.0"><defs><g/><clipPath id="id1"><path d="M 269 166 L 330.640625 166 L 330.640625 228 L 269 228 Z M 269 166 " clip-rule="nonzero"/></clipPath><clipPath id="id2"><path d="M 76 91.019531 L 151 91.019531 L 151 218 L 76 218 Z M 76 91.019531 " clip-rule="nonzero"/></clipPath><clipPath id="id3"><path d="M 44.140625 150 L 106 150 L 106 213 L 44.140625 213 Z M 44.140625 150 " clip-rule="nonzero"/></clipPath><clipPath id="id4"><path d="M 51 210 L 313 210 L 313 228.269531 L 51 228.269531 Z M 51 210 " clip-rule="nonzero"/></clipPath></defs><rect x="-37.5" width="450" fill="#ffffff" y="-37.499999" height="449.999989" fill-opacity="1"/><rect x="-37.5" width="450" fill="#f3f4f5" y="-37.499999" height="449.999989" fill-opacity="1"/><rect x="-37.5" width="450" fill="#ffffff" y="-37.499999" height="449.999989" fill-opacity="1"/><rect x="-37.5" width="450" fill="#f3f4f5" y="-37.499999" height="449.999989" fill-opacity="1"/><g clip-path="url(#id1)"><path fill="#cccccc" d="M 297.585938 227.554688 L 298.5625 209.421875 C 298.5625 209.421875 330.566406 202.792969 330.566406 183.6875 C 330.566406 164.582031 278.265625 162.242188 273 171.015625 C 272.945312 171.101562 272.894531 171.191406 272.839844 171.277344 C 266.332031 182.242188 270.007812 196.480469 281.082031 202.8125 C 284.867188 204.976562 289.382812 206.832031 294.660156 207.863281 L 294.289062 227.125 " fill-opacity="1" fill-rule="nonzero"/></g><path fill="#ff6884" d="M 285.96875 110.511719 C 285.96875 111.101562 285.941406 111.691406 285.882812 112.28125 C 285.824219 112.867188 285.738281 113.453125 285.625 114.03125 C 285.507812 114.613281 285.363281 115.183594 285.191406 115.75 C 285.019531 116.316406 284.820312 116.871094 284.59375 117.417969 C 284.367188 117.964844 284.117188 118.496094 283.835938 119.019531 C 283.558594 119.539062 283.253906 120.046875 282.925781 120.539062 C 282.597656 121.03125 282.246094 121.503906 281.871094 121.960938 C 281.496094 122.417969 281.097656 122.855469 280.679688 123.273438 C 280.261719 123.691406 279.824219 124.089844 279.363281 124.464844 C 278.90625 124.839844 278.433594 125.191406 277.941406 125.519531 C 277.449219 125.847656 276.941406 126.152344 276.421875 126.429688 C 275.898438 126.707031 275.363281 126.960938 274.816406 127.1875 C 274.269531 127.414062 273.714844 127.613281 273.148438 127.785156 C 272.582031 127.957031 272.007812 128.097656 271.429688 128.214844 C 270.847656 128.328125 270.261719 128.417969 269.675781 128.472656 C 269.085938 128.53125 268.496094 128.5625 267.902344 128.5625 C 267.3125 128.5625 266.722656 128.53125 266.132812 128.472656 C 265.542969 128.417969 264.960938 128.328125 264.378906 128.214844 C 263.796875 128.097656 263.226562 127.957031 262.660156 127.785156 C 262.09375 127.613281 261.535156 127.414062 260.988281 127.1875 C 260.441406 126.960938 259.910156 126.707031 259.386719 126.429688 C 258.863281 126.152344 258.359375 125.847656 257.867188 125.519531 C 257.375 125.191406 256.898438 124.839844 256.441406 124.464844 C 255.984375 124.089844 255.546875 123.691406 255.128906 123.273438 C 254.710938 122.855469 254.3125 122.417969 253.9375 121.960938 C 253.5625 121.503906 253.210938 121.03125 252.882812 120.539062 C 252.550781 120.046875 252.25 119.539062 251.96875 119.019531 C 251.691406 118.496094 251.4375 117.964844 251.210938 117.417969 C 250.984375 116.871094 250.785156 116.316406 250.613281 115.75 C 250.441406 115.183594 250.300781 114.613281 250.183594 114.03125 C 250.066406 113.453125 249.980469 112.867188 249.921875 112.28125 C 249.867188 111.691406 249.835938 111.101562 249.835938 110.511719 C 249.835938 109.917969 249.867188 109.328125 249.921875 108.742188 C 249.980469 108.152344 250.066406 107.570312 250.183594 106.988281 C 250.300781 106.410156 250.441406 105.835938 250.613281 105.269531 C 250.785156 104.703125 250.984375 104.148438 251.210938 103.601562 C 251.4375 103.054688 251.691406 102.523438 251.96875 102 C 252.25 101.480469 252.550781 100.972656 252.882812 100.480469 C 253.210938 99.988281 253.5625 99.515625 253.9375 99.058594 C 254.3125 98.601562 254.710938 98.164062 255.128906 97.746094 C 255.546875 97.328125 255.984375 96.929688 256.441406 96.554688 C 256.898438 96.179688 257.375 95.828125 257.867188 95.5 C 258.359375 95.171875 258.863281 94.871094 259.386719 94.589844 C 259.910156 94.3125 260.441406 94.058594 260.988281 93.832031 C 261.535156 93.605469 262.09375 93.40625 262.660156 93.234375 C 263.226562 93.066406 263.796875 92.921875 264.378906 92.804688 C 264.960938 92.691406 265.542969 92.605469 266.132812 92.546875 C 266.722656 92.488281 267.3125 92.460938 267.902344 92.460938 C 268.496094 92.460938 269.085938 92.488281 269.675781 92.546875 C 270.261719 92.605469 270.847656 92.691406 271.429688 92.804688 C 272.007812 92.921875 272.582031 93.066406 273.148438 93.234375 C 273.714844 93.40625 274.269531 93.605469 274.816406 93.832031 C 275.363281 94.058594 275.898438 94.3125 276.421875 94.589844 C 276.941406 94.871094 277.449219 95.171875 277.941406 95.5 C 278.433594 95.828125 278.90625 96.179688 279.363281 96.554688 C 279.824219 96.929688 280.261719 97.328125 280.679688 97.746094 C 281.097656 98.164062 281.496094 98.601562 281.871094 99.058594 C 282.246094 99.515625 282.597656 99.988281 282.925781 100.480469 C 283.253906 100.972656 283.558594 101.480469 283.835938 102 C 284.117188 102.523438 284.367188 103.054688 284.59375 103.601562 C 284.820312 104.148438 285.019531 104.703125 285.191406 105.269531 C 285.363281 105.835938 285.507812 106.410156 285.625 106.988281 C 285.738281 107.570312 285.824219 108.152344 285.882812 108.742188 C 285.941406 109.328125 285.96875 109.917969 285.96875 110.511719 Z M 285.96875 110.511719 " fill-opacity="1" fill-rule="nonzero"/><path fill="#e6e6e6" d="M 241.25 223.257812 L 220.875 221.960938 L 219.773438 130.414062 C 219.746094 128.191406 220.632812 126.015625 222.207031 124.445312 L 244.039062 102.636719 C 247.09375 99.582031 251.902344 99.363281 255.226562 102.125 L 278.914062 121.8125 C 280.847656 123.417969 281.941406 125.78125 281.910156 128.292969 L 281.097656 197.136719 L 291.390625 211.425781 L 291.414062 211.457031 L 293.160156 226.5625 Z M 241.25 223.257812 " fill-opacity="1" fill-rule="nonzero"/><path fill="#fb6801" d="M 244.675781 123.949219 L 244.675781 119.707031 C 244.675781 118.585938 245.585938 117.671875 246.707031 117.671875 L 252.679688 117.671875 C 253.800781 117.671875 254.710938 118.585938 254.710938 119.707031 L 254.710938 123.949219 C 254.710938 125.070312 253.800781 125.984375 252.679688 125.984375 L 246.707031 125.984375 C 245.585938 125.984375 244.675781 125.070312 244.675781 123.949219 Z M 244.675781 123.949219 " fill-opacity="1" fill-rule="nonzero"/><path fill="#3f3d56" d="M 232.054688 156.902344 L 232.054688 141.195312 C 232.054688 140.074219 232.96875 139.164062 234.089844 139.164062 L 242.925781 139.164062 C 244.050781 139.164062 244.960938 140.074219 244.960938 141.195312 L 244.960938 156.902344 C 244.960938 158.019531 244.050781 158.933594 242.925781 158.933594 L 234.089844 158.933594 C 232.96875 158.933594 232.054688 158.019531 232.054688 156.902344 Z M 232.054688 156.902344 " fill-opacity="1" fill-rule="nonzero"/><path fill="#3f3d56" d="M 252.03125 193.664062 C 250.964844 193.628906 250.101562 192.761719 250.070312 191.695312 L 249.625 176.511719 C 249.605469 175.867188 249.886719 175.261719 250.394531 174.859375 C 250.902344 174.457031 251.554688 174.324219 252.179688 174.488281 L 252.628906 174.609375 C 253.515625 174.847656 254.136719 175.652344 254.136719 176.574219 L 254.136719 191.632812 C 254.136719 192.191406 253.917969 192.710938 253.515625 193.097656 C 253.132812 193.464844 252.636719 193.667969 252.105469 193.667969 C 252.082031 193.667969 252.058594 193.664062 252.03125 193.664062 Z M 252.03125 193.664062 " fill-opacity="1" fill-rule="nonzero"/><path fill="#3f3d56" d="M 224.933594 193.097656 C 224.535156 192.710938 224.3125 192.191406 224.3125 191.632812 L 224.3125 176.574219 C 224.3125 175.652344 224.933594 174.847656 225.824219 174.609375 L 226.269531 174.488281 C 226.898438 174.324219 227.546875 174.457031 228.058594 174.859375 C 228.566406 175.261719 228.847656 175.867188 228.828125 176.511719 L 228.378906 191.695312 C 228.347656 192.761719 227.488281 193.628906 226.417969 193.664062 C 226.394531 193.664062 226.371094 193.667969 226.34375 193.667969 C 225.816406 193.667969 225.316406 193.464844 224.933594 193.097656 Z M 224.933594 193.097656 " fill-opacity="1" fill-rule="nonzero"/><path fill="#3f3d56" d="M 233.488281 191.570312 L 233.488281 175.820312 C 233.488281 174.707031 234.363281 173.816406 235.472656 173.789062 L 243.507812 173.589844 C 244.621094 173.574219 245.558594 174.449219 245.589844 175.5625 L 246.050781 191.511719 C 246.066406 192.066406 245.863281 192.589844 245.476562 192.984375 C 245.089844 193.382812 244.574219 193.601562 244.019531 193.601562 L 235.523438 193.601562 C 234.402344 193.601562 233.488281 192.691406 233.488281 191.570312 Z M 233.488281 191.570312 " fill-opacity="1" fill-rule="nonzero"/><path fill="#cccccc" d="M 280.964844 202.332031 L 287.261719 213.515625 L 287.984375 226.089844 L 292.996094 226.410156 L 291.277344 211.511719 L 280.953125 197.183594 C 280.0625 198.785156 280.066406 200.734375 280.964844 202.332031 Z M 280.964844 202.332031 " fill-opacity="1" fill-rule="nonzero"/><path fill="#3f3d56" d="M 267.351562 222.769531 L 287.78125 222.492188 L 287.785156 222.777344 L 267.355469 223.058594 Z M 267.351562 222.769531 " fill-opacity="1" fill-rule="nonzero"/><path fill="#3f3d56" d="M 267.167969 220.113281 L 286.542969 219.964844 L 286.546875 220.25 L 267.171875 220.402344 Z M 267.167969 220.113281 " fill-opacity="1" fill-rule="nonzero"/><path fill="#3f3d56" d="M 267.007812 217.742188 L 285.539062 217.378906 L 285.542969 217.664062 L 267.011719 218.027344 Z M 267.007812 217.742188 " fill-opacity="1" fill-rule="nonzero"/><path fill="#3f3d56" d="M 267.167969 215.398438 L 284.960938 214.808594 L 284.972656 215.097656 L 267.175781 215.6875 Z M 267.167969 215.398438 " fill-opacity="1" fill-rule="nonzero"/><path fill="#3f3d56" d="M 267.003906 213.121094 L 284.101562 212.519531 L 284.113281 212.808594 L 267.011719 213.410156 Z M 267.003906 213.121094 " fill-opacity="1" fill-rule="nonzero"/><path fill="#3f3d56" d="M 266.304688 210.507812 L 282.960938 210.507812 L 282.960938 210.792969 L 266.304688 210.792969 Z M 266.304688 210.507812 " fill-opacity="1" fill-rule="nonzero"/><path fill="#3f3d56" d="M 265.914062 208.6875 L 282.097656 208.496094 L 282.101562 208.785156 L 265.917969 208.972656 Z M 265.914062 208.6875 " fill-opacity="1" fill-rule="nonzero"/><path fill="#3f3d56" d="M 265.550781 207.011719 L 281.234375 206.492188 L 281.242188 206.78125 L 265.5625 207.300781 Z M 265.550781 207.011719 " fill-opacity="1" fill-rule="nonzero"/><path fill="#3f3d56" d="M 265.175781 204.769531 L 280.664062 204.496094 L 280.667969 204.785156 L 265.179688 205.054688 Z M 265.175781 204.769531 " fill-opacity="1" fill-rule="nonzero"/><path fill="#3f3d56" d="M 264.683594 202.976562 L 279.511719 202.511719 L 279.523438 202.800781 L 264.695312 203.261719 Z M 264.683594 202.976562 " fill-opacity="1" fill-rule="nonzero"/><path fill="#3f3d56" d="M 264.246094 200.910156 L 278.941406 200.765625 L 278.945312 201.050781 L 264.25 201.195312 Z M 264.246094 200.910156 " fill-opacity="1" fill-rule="nonzero"/><path fill="#fb6801" d="M 263.171875 194.867188 L 263.171875 175.433594 C 263.171875 174.3125 264.085938 173.402344 265.207031 173.402344 L 274.617188 173.402344 C 275.738281 173.402344 276.648438 174.3125 276.648438 175.433594 L 276.648438 194.867188 C 276.648438 195.984375 275.738281 196.898438 274.617188 196.898438 L 265.207031 196.898438 C 264.085938 196.898438 263.171875 195.984375 263.171875 194.867188 Z M 263.171875 194.867188 " fill-opacity="1" fill-rule="nonzero"/><path fill="#cccccc" d="M 241.25 223.257812 L 224.589844 222.195312 L 224.457031 222.1875 L 224.457031 209.308594 C 224.457031 207.679688 225.78125 206.351562 227.414062 206.351562 L 243.867188 206.351562 C 245.5 206.351562 246.824219 207.679688 246.824219 209.308594 L 246.824219 223.257812 Z M 241.25 223.257812 " fill-opacity="1" fill-rule="nonzero"/><path fill="#3f3d56" d="M 264.320312 159.621094 L 264.320312 144.777344 C 264.320312 143.65625 265.230469 142.746094 266.351562 142.746094 L 269.453125 142.746094 C 270.574219 142.746094 271.488281 143.65625 271.488281 144.777344 L 271.488281 159.621094 C 271.488281 160.742188 270.574219 161.65625 269.453125 161.65625 L 266.351562 161.65625 C 265.230469 161.65625 264.320312 160.742188 264.320312 159.621094 Z M 264.320312 159.621094 " fill-opacity="1" fill-rule="nonzero"/><path fill="#cccccc" d="M 267.472656 224.691406 L 266.613281 212.082031 L 264.03125 200.050781 L 263.316406 196.753906 C 261.84375 195.753906 259.859375 196.867188 259.945312 198.644531 L 260.015625 200.050781 L 262.597656 212.082031 L 263.457031 224.691406 " fill-opacity="1" fill-rule="nonzero"/><path fill="#e6e6e6" d="M 169.839844 218.671875 L 149.464844 217.375 L 148.367188 125.832031 C 148.339844 123.609375 149.226562 121.433594 150.800781 119.859375 L 172.628906 98.050781 C 175.683594 94.996094 180.496094 94.777344 183.816406 97.539062 L 207.507812 117.226562 C 209.441406 118.835938 210.53125 121.195312 210.503906 123.707031 L 209.6875 192.554688 L 219.984375 206.84375 L 220.007812 206.871094 L 221.75 221.980469 Z M 169.839844 218.671875 " fill-opacity="1" fill-rule="nonzero"/><path fill="#fb6801" d="M 173.265625 119.367188 L 173.265625 115.121094 C 173.265625 114 174.179688 113.089844 175.300781 113.089844 L 181.269531 113.089844 C 182.390625 113.089844 183.304688 114 183.304688 115.121094 L 183.304688 119.367188 C 183.304688 120.488281 182.390625 121.398438 181.269531 121.398438 L 175.300781 121.398438 C 174.179688 121.398438 173.265625 120.488281 173.265625 119.367188 Z M 173.265625 119.367188 " fill-opacity="1" fill-rule="nonzero"/><path fill="#3f3d56" d="M 160.648438 152.316406 L 160.648438 136.609375 C 160.648438 135.488281 161.5625 134.578125 162.683594 134.578125 L 171.519531 134.578125 C 172.640625 134.578125 173.554688 135.488281 173.554688 136.609375 L 173.554688 152.316406 C 173.554688 153.4375 172.640625 154.347656 171.519531 154.347656 L 162.683594 154.347656 C 161.5625 154.347656 160.648438 153.4375 160.648438 152.316406 Z M 160.648438 152.316406 " fill-opacity="1" fill-rule="nonzero"/><path fill="#3f3d56" d="M 179.164062 170.5 C 178.726562 170.847656 178.488281 171.363281 178.503906 171.921875 L 178.949219 187.101562 C 178.976562 188.019531 179.71875 188.761719 180.632812 188.792969 C 181.117188 188.8125 181.566406 188.636719 181.910156 188.304688 C 182.253906 187.972656 182.445312 187.527344 182.445312 187.050781 L 182.445312 171.988281 C 182.445312 171.199219 181.910156 170.503906 181.148438 170.300781 L 180.699219 170.183594 C 180.546875 170.140625 180.394531 170.121094 180.242188 170.121094 C 179.855469 170.121094 179.480469 170.253906 179.164062 170.5 Z M 179.164062 170.5 " fill-opacity="1" fill-rule="nonzero"/><path fill="#3f3d56" d="M 153.527344 188.511719 C 153.125 188.125 152.90625 187.605469 152.90625 187.050781 L 152.90625 171.988281 C 152.90625 171.070312 153.527344 170.261719 154.414062 170.023438 L 154.863281 169.90625 C 155.488281 169.738281 156.140625 169.875 156.648438 170.277344 C 157.15625 170.679688 157.4375 171.28125 157.417969 171.929688 L 156.972656 187.109375 C 156.941406 188.175781 156.078125 189.042969 155.011719 189.082031 C 154.988281 189.082031 154.960938 189.082031 154.9375 189.082031 C 154.40625 189.082031 153.910156 188.882812 153.527344 188.511719 Z M 153.527344 188.511719 " fill-opacity="1" fill-rule="nonzero"/><path fill="#3f3d56" d="M 162.082031 186.984375 L 162.082031 171.234375 C 162.082031 170.121094 162.953125 169.230469 164.066406 169.203125 L 172.097656 169.007812 C 172.117188 169.007812 172.132812 169.007812 172.148438 169.007812 C 173.242188 169.007812 174.148438 169.882812 174.179688 170.980469 L 174.644531 186.925781 C 174.660156 187.480469 174.457031 188.003906 174.070312 188.402344 C 173.683594 188.800781 173.164062 189.019531 172.609375 189.019531 L 164.117188 189.019531 C 162.996094 189.019531 162.082031 188.105469 162.082031 186.984375 Z M 162.082031 186.984375 " fill-opacity="1" fill-rule="nonzero"/><path fill="#cccccc" d="M 209.558594 197.75 L 215.851562 208.929688 L 216.574219 221.507812 L 221.589844 221.824219 L 219.867188 206.925781 L 209.542969 192.597656 C 208.652344 194.203125 208.660156 196.152344 209.558594 197.75 Z M 209.558594 197.75 " fill-opacity="1" fill-rule="nonzero"/><path fill="#3f3d56" d="M 195.941406 218.1875 L 216.375 217.90625 L 216.378906 218.195312 L 195.945312 218.472656 Z M 195.941406 218.1875 " fill-opacity="1" fill-rule="nonzero"/><path fill="#3f3d56" d="M 195.761719 215.53125 L 215.136719 215.378906 L 215.136719 215.664062 L 195.765625 215.816406 Z M 195.761719 215.53125 " fill-opacity="1" fill-rule="nonzero"/><path fill="#3f3d56" d="M 195.597656 213.15625 L 214.128906 212.792969 L 214.136719 213.082031 L 195.605469 213.441406 Z M 195.597656 213.15625 " fill-opacity="1" fill-rule="nonzero"/><path fill="#3f3d56" d="M 195.757812 210.816406 L 213.554688 210.226562 L 213.5625 210.511719 L 195.769531 211.101562 Z M 195.757812 210.816406 " fill-opacity="1" fill-rule="nonzero"/><path fill="#3f3d56" d="M 195.59375 208.539062 L 212.695312 207.9375 L 212.703125 208.222656 L 195.605469 208.824219 Z M 195.59375 208.539062 " fill-opacity="1" fill-rule="nonzero"/><path fill="#3f3d56" d="M 194.898438 205.921875 L 211.550781 205.921875 L 211.550781 206.210938 L 194.898438 206.210938 Z M 194.898438 205.921875 " fill-opacity="1" fill-rule="nonzero"/><path fill="#3f3d56" d="M 194.503906 204.101562 L 210.691406 203.914062 L 210.691406 204.199219 L 194.507812 204.386719 Z M 194.503906 204.101562 " fill-opacity="1" fill-rule="nonzero"/><path fill="#3f3d56" d="M 194.144531 202.429688 L 209.824219 201.910156 L 209.835938 202.195312 L 194.152344 202.714844 Z M 194.144531 202.429688 " fill-opacity="1" fill-rule="nonzero"/><path fill="#3f3d56" d="M 193.769531 200.183594 L 209.253906 199.914062 L 209.261719 200.199219 L 193.773438 200.472656 Z M 193.769531 200.183594 " fill-opacity="1" fill-rule="nonzero"/><path fill="#3f3d56" d="M 193.277344 198.390625 L 208.105469 197.929688 L 208.113281 198.214844 L 193.285156 198.679688 Z M 193.277344 198.390625 " fill-opacity="1" fill-rule="nonzero"/><path fill="#3f3d56" d="M 192.839844 196.324219 L 207.535156 196.179688 L 207.539062 196.46875 L 192.839844 196.609375 Z M 192.839844 196.324219 " fill-opacity="1" fill-rule="nonzero"/><path fill="#fb6801" d="M 191.765625 190.28125 L 191.765625 170.851562 C 191.765625 169.730469 192.675781 168.816406 193.796875 168.816406 L 203.207031 168.816406 C 204.332031 168.816406 205.242188 169.730469 205.242188 170.851562 L 205.242188 190.28125 C 205.242188 191.402344 204.332031 192.3125 203.207031 192.3125 L 193.796875 192.3125 C 192.675781 192.3125 191.765625 191.402344 191.765625 190.28125 Z M 191.765625 190.28125 " fill-opacity="1" fill-rule="nonzero"/><path fill="#cccccc" d="M 169.839844 218.671875 L 153.183594 217.613281 L 153.046875 217.605469 L 153.046875 204.722656 C 153.046875 203.09375 154.375 201.769531 156.003906 201.769531 L 172.460938 201.769531 C 174.089844 201.769531 175.417969 203.09375 175.417969 204.722656 L 175.417969 218.671875 Z M 169.839844 218.671875 " fill-opacity="1" fill-rule="nonzero"/><path fill="#3f3d56" d="M 192.910156 155.039062 L 192.910156 140.191406 C 192.910156 139.070312 193.824219 138.160156 194.945312 138.160156 L 198.046875 138.160156 C 199.167969 138.160156 200.082031 139.070312 200.082031 140.191406 L 200.082031 155.039062 C 200.082031 156.160156 199.167969 157.070312 198.046875 157.070312 L 194.945312 157.070312 C 193.824219 157.070312 192.910156 156.160156 192.910156 155.039062 Z M 192.910156 155.039062 " fill-opacity="1" fill-rule="nonzero"/><path fill="#cccccc" d="M 196.066406 220.105469 L 195.207031 207.5 L 192.625 195.464844 L 191.90625 192.167969 C 190.433594 191.167969 188.449219 192.28125 188.539062 194.058594 L 188.609375 195.464844 L 191.191406 207.5 L 192.050781 220.105469 " fill-opacity="1" fill-rule="nonzero"/><g clip-path="url(#id2)"><path fill="#e6e6e6" d="M 98.433594 214.089844 L 78.058594 212.789062 L 76.957031 121.246094 C 76.933594 119.023438 77.820312 116.847656 79.390625 115.277344 L 101.222656 93.464844 C 104.277344 90.414062 109.085938 90.191406 112.410156 92.953125 L 136.097656 112.644531 C 138.03125 114.25 139.125 116.613281 139.09375 119.125 L 138.28125 187.96875 L 148.578125 202.257812 L 148.597656 202.289062 L 150.34375 217.394531 Z M 98.433594 214.089844 " fill-opacity="1" fill-rule="nonzero"/></g><path fill="#fb6801" d="M 101.859375 114.78125 L 101.859375 110.535156 C 101.859375 109.417969 102.769531 108.503906 103.894531 108.503906 L 109.863281 108.503906 C 110.984375 108.503906 111.894531 109.417969 111.894531 110.535156 L 111.894531 114.78125 C 111.894531 115.902344 110.984375 116.8125 109.863281 116.8125 L 103.894531 116.8125 C 102.769531 116.8125 101.859375 115.902344 101.859375 114.78125 Z M 101.859375 114.78125 " fill-opacity="1" fill-rule="nonzero"/><path fill="#3f3d56" d="M 89.242188 147.730469 L 89.242188 132.027344 C 89.242188 130.90625 90.152344 129.992188 91.273438 129.992188 L 100.113281 129.992188 C 101.234375 129.992188 102.144531 130.90625 102.144531 132.027344 L 102.144531 147.730469 C 102.144531 148.851562 101.234375 149.765625 100.113281 149.765625 L 91.273438 149.765625 C 90.152344 149.765625 89.242188 148.851562 89.242188 147.730469 Z M 89.242188 147.730469 " fill-opacity="1" fill-rule="nonzero"/><path fill="#3f3d56" d="M 109.214844 184.496094 C 108.148438 184.457031 107.285156 183.59375 107.253906 182.523438 L 106.808594 167.34375 C 106.789062 166.695312 107.070312 166.09375 107.578125 165.691406 C 108.085938 165.289062 108.738281 165.15625 109.367188 165.320312 L 109.8125 165.441406 C 110.703125 165.675781 111.324219 166.484375 111.324219 167.402344 L 111.324219 182.464844 C 111.324219 183.023438 111.101562 183.539062 110.703125 183.925781 C 110.316406 184.296875 109.820312 184.496094 109.289062 184.496094 C 109.265625 184.496094 109.242188 184.496094 109.214844 184.496094 Z M 109.214844 184.496094 " fill-opacity="1" fill-rule="nonzero"/><path fill="#3f3d56" d="M 83.042969 165.578125 L 83.492188 165.460938 C 84.714844 165.132812 85.90625 166.078125 85.867188 167.339844 L 85.421875 182.519531 C 85.390625 183.515625 84.59375 184.316406 83.597656 184.351562 C 82.527344 184.390625 81.640625 183.535156 81.640625 182.464844 L 81.640625 167.402344 C 81.640625 166.546875 82.214844 165.800781 83.042969 165.578125 Z M 83.042969 165.578125 " fill-opacity="1" fill-rule="nonzero"/><path fill="#3f3d56" d="M 90.675781 182.402344 L 90.675781 166.648438 C 90.675781 165.539062 91.546875 164.644531 92.660156 164.617188 L 100.691406 164.421875 C 101.808594 164.40625 102.742188 165.28125 102.773438 166.394531 L 103.234375 182.34375 C 103.253906 182.894531 103.046875 183.421875 102.660156 183.816406 C 102.277344 184.214844 101.757812 184.433594 101.203125 184.433594 L 92.707031 184.433594 C 91.585938 184.433594 90.675781 183.523438 90.675781 182.402344 Z M 90.675781 182.402344 " fill-opacity="1" fill-rule="nonzero"/><path fill="#cccccc" d="M 138.148438 193.164062 L 144.445312 204.347656 L 145.167969 216.921875 L 150.179688 217.242188 L 148.460938 202.339844 L 138.136719 188.015625 C 137.246094 189.617188 137.25 191.566406 138.148438 193.164062 Z M 138.148438 193.164062 " fill-opacity="1" fill-rule="nonzero"/><path fill="#3f3d56" d="M 124.535156 213.601562 L 144.964844 213.324219 L 144.96875 213.609375 L 124.539062 213.890625 Z M 124.535156 213.601562 " fill-opacity="1" fill-rule="nonzero"/><path fill="#3f3d56" d="M 124.355469 210.945312 L 143.726562 210.792969 L 143.730469 211.082031 L 124.355469 211.234375 Z M 124.355469 210.945312 " fill-opacity="1" fill-rule="nonzero"/><path fill="#3f3d56" d="M 124.191406 208.570312 L 142.722656 208.210938 L 142.726562 208.496094 L 124.195312 208.859375 Z M 124.191406 208.570312 " fill-opacity="1" fill-rule="nonzero"/><path fill="#3f3d56" d="M 124.351562 206.230469 L 142.148438 205.640625 L 142.15625 205.925781 L 124.359375 206.519531 Z M 124.351562 206.230469 " fill-opacity="1" fill-rule="nonzero"/><path fill="#3f3d56" d="M 124.1875 203.953125 L 141.285156 203.351562 L 141.296875 203.640625 L 124.199219 204.238281 Z M 124.1875 203.953125 " fill-opacity="1" fill-rule="nonzero"/><path fill="#3f3d56" d="M 123.488281 201.339844 L 140.144531 201.339844 L 140.144531 201.625 L 123.488281 201.625 Z M 123.488281 201.339844 " fill-opacity="1" fill-rule="nonzero"/><path fill="#3f3d56" d="M 123.097656 199.515625 L 139.28125 199.328125 L 139.285156 199.613281 L 123.101562 199.804688 Z M 123.097656 199.515625 " fill-opacity="1" fill-rule="nonzero"/><path fill="#3f3d56" d="M 122.734375 197.84375 L 138.417969 197.324219 L 138.429688 197.609375 L 122.746094 198.132812 Z M 122.734375 197.84375 " fill-opacity="1" fill-rule="nonzero"/><path fill="#3f3d56" d="M 122.359375 195.601562 L 137.847656 195.328125 L 137.851562 195.617188 L 122.367188 195.886719 Z M 122.359375 195.601562 " fill-opacity="1" fill-rule="nonzero"/><path fill="#3f3d56" d="M 121.871094 193.808594 L 136.699219 193.34375 L 136.707031 193.632812 L 121.878906 194.09375 Z M 121.871094 193.808594 " fill-opacity="1" fill-rule="nonzero"/><path fill="#3f3d56" d="M 121.429688 191.742188 L 136.128906 191.597656 L 136.128906 191.882812 L 121.433594 192.027344 Z M 121.429688 191.742188 " fill-opacity="1" fill-rule="nonzero"/><path fill="#fb6801" d="M 120.355469 185.695312 L 120.355469 166.265625 C 120.355469 165.144531 121.269531 164.234375 122.390625 164.234375 L 131.800781 164.234375 C 132.921875 164.234375 133.835938 165.144531 133.835938 166.265625 L 133.835938 185.695312 C 133.835938 186.816406 132.921875 187.730469 131.800781 187.730469 L 122.390625 187.730469 C 121.269531 187.730469 120.355469 186.816406 120.355469 185.695312 Z M 120.355469 185.695312 " fill-opacity="1" fill-rule="nonzero"/><path fill="#cccccc" d="M 98.433594 214.089844 L 81.773438 213.027344 L 81.640625 213.019531 L 81.640625 200.136719 C 81.640625 198.507812 82.96875 197.183594 84.597656 197.183594 L 101.050781 197.183594 C 102.683594 197.183594 104.007812 198.507812 104.007812 200.136719 L 104.007812 214.089844 Z M 98.433594 214.089844 " fill-opacity="1" fill-rule="nonzero"/><path fill="#3f3d56" d="M 121.503906 150.453125 L 121.503906 135.609375 C 121.503906 134.488281 122.414062 133.574219 123.535156 133.574219 L 126.640625 133.574219 C 127.761719 133.574219 128.671875 134.488281 128.671875 135.609375 L 128.671875 150.453125 C 128.671875 151.574219 127.761719 152.484375 126.640625 152.484375 L 123.535156 152.484375 C 122.414062 152.484375 121.503906 151.574219 121.503906 150.453125 Z M 121.503906 150.453125 " fill-opacity="1" fill-rule="nonzero"/><path fill="#cccccc" d="M 124.65625 215.523438 L 123.796875 202.914062 L 121.214844 190.878906 L 120.5 187.585938 C 119.027344 186.585938 117.042969 187.699219 117.132812 189.476562 L 117.203125 190.878906 L 119.78125 202.914062 L 120.644531 215.523438 " fill-opacity="1" fill-rule="nonzero"/><g clip-path="url(#id3)"><path fill="#cccccc" d="M 72.179688 212.371094 L 73.152344 194.238281 C 73.152344 194.238281 105.15625 187.609375 105.15625 168.503906 C 105.15625 149.394531 52.859375 147.054688 47.589844 155.828125 C 47.539062 155.917969 47.484375 156.003906 47.433594 156.09375 C 40.925781 167.058594 44.597656 181.292969 55.671875 187.625 C 59.460938 189.792969 63.976562 191.644531 69.25 192.679688 L 68.878906 211.941406 " fill-opacity="1" fill-rule="nonzero"/></g><g clip-path="url(#id4)"><path fill="#cccccc" d="M 51.402344 211.40625 L 51.441406 210.832031 L 312.375 227.667969 L 312.335938 228.242188 Z M 51.402344 211.40625 " fill-opacity="1" fill-rule="nonzero"/></g><g fill="#202020" fill-opacity="1"><g transform="translate(94.927733, 262.261975)"><g><path d="M 1.578125 0 L 1.578125 -13.09375 L 9.4375 -13.09375 L 9.4375 -11.6875 L 3.171875 -11.6875 L 3.171875 -7.265625 L 8.84375 -7.265625 L 8.84375 -5.859375 L 3.171875 -5.859375 L 3.171875 0 Z M 1.578125 0 "/></g></g></g><g fill="#202020" fill-opacity="1"><g transform="translate(105.480626, 262.261975)"><g><path d="M 1.375 0 L 1.375 -9.8125 L 2.84375 -9.8125 L 2.84375 -8.328125 L 2.9375 -8.328125 C 3.113281 -8.816406 3.4375 -9.210938 3.90625 -9.515625 C 4.375 -9.816406 4.90625 -9.96875 5.5 -9.96875 C 5.769531 -9.96875 6.003906 -9.9375 6.203125 -9.875 C 6.410156 -9.8125 6.59375 -9.722656 6.75 -9.609375 L 6.234375 -8.328125 C 6.128906 -8.390625 6.003906 -8.4375 5.859375 -8.46875 C 5.722656 -8.5 5.5625 -8.515625 5.375 -8.515625 C 4.65625 -8.515625 4.0625 -8.296875 3.59375 -7.859375 C 3.125 -7.421875 2.890625 -6.875 2.890625 -6.21875 L 2.890625 0 Z M 1.375 0 "/></g></g></g><g fill="#202020" fill-opacity="1"><g transform="translate(112.379617, 262.261975)"><g><path d="M 4.265625 0.234375 C 3.648438 0.234375 3.085938 0.113281 2.578125 -0.125 C 2.066406 -0.363281 1.660156 -0.707031 1.359375 -1.15625 C 1.066406 -1.601562 0.921875 -2.144531 0.921875 -2.78125 C 0.921875 -3.34375 1.03125 -3.800781 1.25 -4.15625 C 1.46875 -4.507812 1.765625 -4.785156 2.140625 -4.984375 C 2.515625 -5.179688 2.925781 -5.332031 3.375 -5.4375 C 3.820312 -5.539062 4.273438 -5.617188 4.734375 -5.671875 C 5.328125 -5.753906 5.8125 -5.8125 6.1875 -5.84375 C 6.5625 -5.882812 6.832031 -5.953125 7 -6.046875 C 7.175781 -6.148438 7.265625 -6.328125 7.265625 -6.578125 L 7.265625 -6.625 C 7.265625 -7.25 7.09375 -7.734375 6.75 -8.078125 C 6.40625 -8.429688 5.882812 -8.609375 5.1875 -8.609375 C 4.46875 -8.609375 3.898438 -8.453125 3.484375 -8.140625 C 3.078125 -7.828125 2.796875 -7.492188 2.640625 -7.140625 L 1.203125 -7.640625 C 1.453125 -8.242188 1.789062 -8.710938 2.21875 -9.046875 C 2.65625 -9.378906 3.125 -9.613281 3.625 -9.75 C 4.132812 -9.882812 4.640625 -9.953125 5.140625 -9.953125 C 5.453125 -9.953125 5.8125 -9.910156 6.21875 -9.828125 C 6.632812 -9.753906 7.035156 -9.601562 7.421875 -9.375 C 7.804688 -9.144531 8.125 -8.796875 8.375 -8.328125 C 8.632812 -7.867188 8.765625 -7.25 8.765625 -6.46875 L 8.765625 0 L 7.265625 0 L 7.265625 -1.328125 L 7.1875 -1.328125 C 7.082031 -1.117188 6.910156 -0.890625 6.671875 -0.640625 C 6.429688 -0.398438 6.113281 -0.191406 5.71875 -0.015625 C 5.320312 0.148438 4.835938 0.234375 4.265625 0.234375 Z M 4.5 -1.125 C 5.09375 -1.125 5.59375 -1.238281 6 -1.46875 C 6.414062 -1.707031 6.726562 -2.007812 6.9375 -2.375 C 7.15625 -2.75 7.265625 -3.140625 7.265625 -3.546875 L 7.265625 -4.9375 C 7.203125 -4.851562 7.0625 -4.78125 6.84375 -4.71875 C 6.625 -4.664062 6.375 -4.613281 6.09375 -4.5625 C 5.820312 -4.519531 5.550781 -4.484375 5.28125 -4.453125 C 5.019531 -4.421875 4.8125 -4.394531 4.65625 -4.375 C 4.257812 -4.320312 3.890625 -4.238281 3.546875 -4.125 C 3.210938 -4.007812 2.941406 -3.835938 2.734375 -3.609375 C 2.523438 -3.390625 2.421875 -3.085938 2.421875 -2.703125 C 2.421875 -2.179688 2.613281 -1.785156 3 -1.515625 C 3.394531 -1.253906 3.894531 -1.125 4.5 -1.125 Z M 4.5 -1.125 "/></g></g></g><g fill="#202020" fill-opacity="1"><g transform="translate(122.523682, 262.261975)"><g><path d="M 5.375 0.203125 C 4.445312 0.203125 3.648438 -0.0078125 2.984375 -0.4375 C 2.328125 -0.875 1.816406 -1.472656 1.453125 -2.234375 C 1.097656 -3.003906 0.921875 -3.878906 0.921875 -4.859375 C 0.921875 -5.859375 1.101562 -6.738281 1.46875 -7.5 C 1.84375 -8.257812 2.359375 -8.859375 3.015625 -9.296875 C 3.679688 -9.734375 4.457031 -9.953125 5.34375 -9.953125 C 6.03125 -9.953125 6.648438 -9.820312 7.203125 -9.5625 C 7.765625 -9.300781 8.222656 -8.941406 8.578125 -8.484375 C 8.929688 -8.023438 9.148438 -7.488281 9.234375 -6.875 L 7.71875 -6.875 C 7.601562 -7.320312 7.347656 -7.71875 6.953125 -8.0625 C 6.554688 -8.414062 6.03125 -8.59375 5.375 -8.59375 C 4.488281 -8.59375 3.773438 -8.253906 3.234375 -7.578125 C 2.691406 -6.910156 2.421875 -6.019531 2.421875 -4.90625 C 2.421875 -3.769531 2.6875 -2.859375 3.21875 -2.171875 C 3.757812 -1.492188 4.476562 -1.15625 5.375 -1.15625 C 5.957031 -1.15625 6.457031 -1.304688 6.875 -1.609375 C 7.300781 -1.910156 7.582031 -2.328125 7.71875 -2.859375 L 9.234375 -2.859375 C 9.148438 -2.285156 8.9375 -1.765625 8.59375 -1.296875 C 8.257812 -0.835938 7.816406 -0.472656 7.265625 -0.203125 C 6.722656 0.0664062 6.09375 0.203125 5.375 0.203125 Z M 5.375 0.203125 "/></g></g></g><g fill="#202020" fill-opacity="1"><g transform="translate(132.56554, 262.261975)"><g><path d="M 5.65625 -9.8125 L 5.65625 -8.546875 L 3.546875 -8.546875 L 3.546875 -2.8125 C 3.546875 -2.382812 3.609375 -2.066406 3.734375 -1.859375 C 3.867188 -1.648438 4.035156 -1.507812 4.234375 -1.4375 C 4.429688 -1.363281 4.640625 -1.328125 4.859375 -1.328125 C 5.023438 -1.328125 5.160156 -1.335938 5.265625 -1.359375 C 5.367188 -1.378906 5.453125 -1.394531 5.515625 -1.40625 L 5.828125 -0.046875 C 5.722656 -0.015625 5.578125 0.0195312 5.390625 0.0625 C 5.210938 0.101562 4.984375 0.125 4.703125 0.125 C 4.273438 0.125 3.859375 0.0351562 3.453125 -0.140625 C 3.046875 -0.328125 2.707031 -0.609375 2.4375 -0.984375 C 2.175781 -1.359375 2.046875 -1.832031 2.046875 -2.40625 L 2.046875 -8.546875 L 0.5625 -8.546875 L 0.5625 -9.8125 L 2.046875 -9.8125 L 2.046875 -12.171875 L 3.546875 -12.171875 L 3.546875 -9.8125 Z M 5.65625 -9.8125 "/></g></g></g><g fill="#202020" fill-opacity="1"><g transform="translate(139.106799, 262.261975)"><g><path d="M 1.375 0 L 1.375 -9.8125 L 2.890625 -9.8125 L 2.890625 0 Z M 2.140625 -11.453125 C 1.847656 -11.453125 1.597656 -11.550781 1.390625 -11.75 C 1.179688 -11.957031 1.078125 -12.203125 1.078125 -12.484375 C 1.078125 -12.765625 1.179688 -13.003906 1.390625 -13.203125 C 1.597656 -13.398438 1.847656 -13.5 2.140625 -13.5 C 2.441406 -13.5 2.695312 -13.398438 2.90625 -13.203125 C 3.113281 -13.003906 3.21875 -12.765625 3.21875 -12.484375 C 3.21875 -12.203125 3.113281 -11.957031 2.90625 -11.75 C 2.695312 -11.550781 2.441406 -11.453125 2.140625 -11.453125 Z M 2.140625 -11.453125 "/></g></g></g><g fill="#202020" fill-opacity="1"><g transform="translate(143.373946, 262.261975)"><g><path d="M 5.375 0.203125 C 4.488281 0.203125 3.707031 -0.00390625 3.03125 -0.421875 C 2.363281 -0.847656 1.84375 -1.441406 1.46875 -2.203125 C 1.101562 -2.960938 0.921875 -3.847656 0.921875 -4.859375 C 0.921875 -5.878906 1.101562 -6.769531 1.46875 -7.53125 C 1.84375 -8.300781 2.363281 -8.894531 3.03125 -9.3125 C 3.707031 -9.738281 4.488281 -9.953125 5.375 -9.953125 C 6.257812 -9.953125 7.035156 -9.738281 7.703125 -9.3125 C 8.367188 -8.894531 8.882812 -8.300781 9.25 -7.53125 C 9.625 -6.769531 9.8125 -5.878906 9.8125 -4.859375 C 9.8125 -3.847656 9.625 -2.960938 9.25 -2.203125 C 8.882812 -1.441406 8.367188 -0.847656 7.703125 -0.421875 C 7.035156 -0.00390625 6.257812 0.203125 5.375 0.203125 Z M 5.375 -1.15625 C 6.039062 -1.15625 6.59375 -1.328125 7.03125 -1.671875 C 7.46875 -2.015625 7.789062 -2.46875 8 -3.03125 C 8.207031 -3.59375 8.3125 -4.203125 8.3125 -4.859375 C 8.3125 -5.515625 8.207031 -6.125 8 -6.6875 C 7.789062 -7.257812 7.46875 -7.71875 7.03125 -8.0625 C 6.59375 -8.414062 6.039062 -8.59375 5.375 -8.59375 C 4.695312 -8.59375 4.140625 -8.414062 3.703125 -8.0625 C 3.273438 -7.71875 2.953125 -7.257812 2.734375 -6.6875 C 2.523438 -6.125 2.421875 -5.515625 2.421875 -4.859375 C 2.421875 -4.203125 2.523438 -3.59375 2.734375 -3.03125 C 2.953125 -2.46875 3.273438 -2.015625 3.703125 -1.671875 C 4.140625 -1.328125 4.695312 -1.15625 5.375 -1.15625 Z M 5.375 -1.15625 "/></g></g></g><g fill="#202020" fill-opacity="1"><g transform="translate(154.1057, 262.261975)"><g><path d="M 2.890625 -5.90625 L 2.890625 0 L 1.375 0 L 1.375 -9.8125 L 2.84375 -9.8125 L 2.84375 -8.28125 L 2.96875 -8.28125 C 3.195312 -8.78125 3.546875 -9.179688 4.015625 -9.484375 C 4.484375 -9.796875 5.085938 -9.953125 5.828125 -9.953125 C 6.816406 -9.953125 7.617188 -9.644531 8.234375 -9.03125 C 8.847656 -8.425781 9.15625 -7.492188 9.15625 -6.234375 L 9.15625 0 L 7.640625 0 L 7.640625 -6.140625 C 7.640625 -6.910156 7.4375 -7.507812 7.03125 -7.9375 C 6.632812 -8.375 6.085938 -8.59375 5.390625 -8.59375 C 4.671875 -8.59375 4.070312 -8.359375 3.59375 -7.890625 C 3.125 -7.421875 2.890625 -6.757812 2.890625 -5.90625 Z M 2.890625 -5.90625 "/></g></g></g><g fill="#202020" fill-opacity="1"><g transform="translate(164.633039, 262.261975)"><g><path d="M 4.265625 0.234375 C 3.648438 0.234375 3.085938 0.113281 2.578125 -0.125 C 2.066406 -0.363281 1.660156 -0.707031 1.359375 -1.15625 C 1.066406 -1.601562 0.921875 -2.144531 0.921875 -2.78125 C 0.921875 -3.34375 1.03125 -3.800781 1.25 -4.15625 C 1.46875 -4.507812 1.765625 -4.785156 2.140625 -4.984375 C 2.515625 -5.179688 2.925781 -5.332031 3.375 -5.4375 C 3.820312 -5.539062 4.273438 -5.617188 4.734375 -5.671875 C 5.328125 -5.753906 5.8125 -5.8125 6.1875 -5.84375 C 6.5625 -5.882812 6.832031 -5.953125 7 -6.046875 C 7.175781 -6.148438 7.265625 -6.328125 7.265625 -6.578125 L 7.265625 -6.625 C 7.265625 -7.25 7.09375 -7.734375 6.75 -8.078125 C 6.40625 -8.429688 5.882812 -8.609375 5.1875 -8.609375 C 4.46875 -8.609375 3.898438 -8.453125 3.484375 -8.140625 C 3.078125 -7.828125 2.796875 -7.492188 2.640625 -7.140625 L 1.203125 -7.640625 C 1.453125 -8.242188 1.789062 -8.710938 2.21875 -9.046875 C 2.65625 -9.378906 3.125 -9.613281 3.625 -9.75 C 4.132812 -9.882812 4.640625 -9.953125 5.140625 -9.953125 C 5.453125 -9.953125 5.8125 -9.910156 6.21875 -9.828125 C 6.632812 -9.753906 7.035156 -9.601562 7.421875 -9.375 C 7.804688 -9.144531 8.125 -8.796875 8.375 -8.328125 C 8.632812 -7.867188 8.765625 -7.25 8.765625 -6.46875 L 8.765625 0 L 7.265625 0 L 7.265625 -1.328125 L 7.1875 -1.328125 C 7.082031 -1.117188 6.910156 -0.890625 6.671875 -0.640625 C 6.429688 -0.398438 6.113281 -0.191406 5.71875 -0.015625 C 5.320312 0.148438 4.835938 0.234375 4.265625 0.234375 Z M 4.5 -1.125 C 5.09375 -1.125 5.59375 -1.238281 6 -1.46875 C 6.414062 -1.707031 6.726562 -2.007812 6.9375 -2.375 C 7.15625 -2.75 7.265625 -3.140625 7.265625 -3.546875 L 7.265625 -4.9375 C 7.203125 -4.851562 7.0625 -4.78125 6.84375 -4.71875 C 6.625 -4.664062 6.375 -4.613281 6.09375 -4.5625 C 5.820312 -4.519531 5.550781 -4.484375 5.28125 -4.453125 C 5.019531 -4.421875 4.8125 -4.394531 4.65625 -4.375 C 4.257812 -4.320312 3.890625 -4.238281 3.546875 -4.125 C 3.210938 -4.007812 2.941406 -3.835938 2.734375 -3.609375 C 2.523438 -3.390625 2.421875 -3.085938 2.421875 -2.703125 C 2.421875 -2.179688 2.613281 -1.785156 3 -1.515625 C 3.394531 -1.253906 3.894531 -1.125 4.5 -1.125 Z M 4.5 -1.125 "/></g></g></g><g fill="#202020" fill-opacity="1"><g transform="translate(174.777104, 262.261975)"><g><path d="M 2.890625 -13.09375 L 2.890625 0 L 1.375 0 L 1.375 -13.09375 Z M 2.890625 -13.09375 "/></g></g></g><g fill="#202020" fill-opacity="1"><g transform="translate(179.044251, 262.261975)"><g><path d="M 1.375 0 L 1.375 -9.8125 L 2.890625 -9.8125 L 2.890625 0 Z M 2.140625 -11.453125 C 1.847656 -11.453125 1.597656 -11.550781 1.390625 -11.75 C 1.179688 -11.957031 1.078125 -12.203125 1.078125 -12.484375 C 1.078125 -12.765625 1.179688 -13.003906 1.390625 -13.203125 C 1.597656 -13.398438 1.847656 -13.5 2.140625 -13.5 C 2.441406 -13.5 2.695312 -13.398438 2.90625 -13.203125 C 3.113281 -13.003906 3.21875 -12.765625 3.21875 -12.484375 C 3.21875 -12.203125 3.113281 -11.957031 2.90625 -11.75 C 2.695312 -11.550781 2.441406 -11.453125 2.140625 -11.453125 Z M 2.140625 -11.453125 "/></g></g></g><g fill="#202020" fill-opacity="1"><g transform="translate(183.311397, 262.261975)"><g><path d="M 1.09375 0 L 1.09375 -1.15625 L 6.671875 -8.3125 L 6.671875 -8.40625 L 1.28125 -8.40625 L 1.28125 -9.8125 L 8.609375 -9.8125 L 8.609375 -8.609375 L 3.203125 -1.515625 L 3.203125 -1.40625 L 8.796875 -1.40625 L 8.796875 0 Z M 1.09375 0 "/></g></g></g><g fill="#202020" fill-opacity="1"><g transform="translate(193.046634, 262.261975)"><g><path d="M 5.5 0.203125 C 4.550781 0.203125 3.734375 -0.00390625 3.046875 -0.421875 C 2.367188 -0.835938 1.84375 -1.425781 1.46875 -2.1875 C 1.101562 -2.945312 0.921875 -3.828125 0.921875 -4.828125 C 0.921875 -5.835938 1.101562 -6.722656 1.46875 -7.484375 C 1.84375 -8.253906 2.359375 -8.859375 3.015625 -9.296875 C 3.679688 -9.734375 4.457031 -9.953125 5.34375 -9.953125 C 5.851562 -9.953125 6.359375 -9.863281 6.859375 -9.6875 C 7.359375 -9.519531 7.8125 -9.242188 8.21875 -8.859375 C 8.625 -8.484375 8.945312 -7.976562 9.1875 -7.34375 C 9.4375 -6.71875 9.5625 -5.945312 9.5625 -5.03125 L 9.5625 -4.390625 L 2.4375 -4.390625 C 2.46875 -3.347656 2.765625 -2.546875 3.328125 -1.984375 C 3.890625 -1.429688 4.613281 -1.15625 5.5 -1.15625 C 6.09375 -1.15625 6.597656 -1.28125 7.015625 -1.53125 C 7.441406 -1.789062 7.753906 -2.175781 7.953125 -2.6875 L 9.40625 -2.28125 C 9.175781 -1.53125 8.71875 -0.925781 8.03125 -0.46875 C 7.34375 -0.0195312 6.5 0.203125 5.5 0.203125 Z M 2.4375 -5.703125 L 8.03125 -5.703125 C 8.03125 -6.535156 7.785156 -7.222656 7.296875 -7.765625 C 6.816406 -8.316406 6.164062 -8.59375 5.34375 -8.59375 C 4.769531 -8.59375 4.269531 -8.457031 3.84375 -8.1875 C 3.425781 -7.914062 3.09375 -7.5625 2.84375 -7.125 C 2.601562 -6.6875 2.46875 -6.210938 2.4375 -5.703125 Z M 2.4375 -5.703125 "/></g></g></g><g fill="#202020" fill-opacity="1"><g transform="translate(203.522875, 262.261975)"><g><path d="M 5.09375 0.203125 C 4.269531 0.203125 3.546875 -0.00390625 2.921875 -0.421875 C 2.296875 -0.835938 1.804688 -1.425781 1.453125 -2.1875 C 1.097656 -2.945312 0.921875 -3.847656 0.921875 -4.890625 C 0.921875 -5.921875 1.097656 -6.8125 1.453125 -7.5625 C 1.804688 -8.320312 2.296875 -8.910156 2.921875 -9.328125 C 3.554688 -9.742188 4.285156 -9.953125 5.109375 -9.953125 C 5.753906 -9.953125 6.257812 -9.84375 6.625 -9.625 C 7 -9.414062 7.285156 -9.175781 7.484375 -8.90625 C 7.679688 -8.644531 7.835938 -8.429688 7.953125 -8.265625 L 8.078125 -8.265625 L 8.078125 -13.09375 L 9.59375 -13.09375 L 9.59375 0 L 8.125 0 L 8.125 -1.515625 L 7.953125 -1.515625 C 7.835938 -1.328125 7.675781 -1.097656 7.46875 -0.828125 C 7.269531 -0.554688 6.976562 -0.316406 6.59375 -0.109375 C 6.21875 0.0976562 5.71875 0.203125 5.09375 0.203125 Z M 5.296875 -1.15625 C 6.203125 -1.15625 6.894531 -1.5 7.375 -2.1875 C 7.863281 -2.882812 8.109375 -3.789062 8.109375 -4.90625 C 8.109375 -6.007812 7.867188 -6.898438 7.390625 -7.578125 C 6.910156 -8.253906 6.210938 -8.59375 5.296875 -8.59375 C 4.648438 -8.59375 4.113281 -8.425781 3.6875 -8.09375 C 3.269531 -7.769531 2.953125 -7.328125 2.734375 -6.765625 C 2.523438 -6.210938 2.421875 -5.59375 2.421875 -4.90625 C 2.421875 -4.207031 2.53125 -3.570312 2.75 -3 C 2.96875 -2.4375 3.285156 -1.988281 3.703125 -1.65625 C 4.128906 -1.320312 4.660156 -1.15625 5.296875 -1.15625 Z M 5.296875 -1.15625 "/></g></g></g><g fill="#202020" fill-opacity="1"><g transform="translate(214.689012, 262.261975)"><g/></g></g><g fill="#202020" fill-opacity="1"><g transform="translate(219.748273, 262.261975)"><g><path d="M 4.265625 0.234375 C 3.648438 0.234375 3.085938 0.113281 2.578125 -0.125 C 2.066406 -0.363281 1.660156 -0.707031 1.359375 -1.15625 C 1.066406 -1.601562 0.921875 -2.144531 0.921875 -2.78125 C 0.921875 -3.34375 1.03125 -3.800781 1.25 -4.15625 C 1.46875 -4.507812 1.765625 -4.785156 2.140625 -4.984375 C 2.515625 -5.179688 2.925781 -5.332031 3.375 -5.4375 C 3.820312 -5.539062 4.273438 -5.617188 4.734375 -5.671875 C 5.328125 -5.753906 5.8125 -5.8125 6.1875 -5.84375 C 6.5625 -5.882812 6.832031 -5.953125 7 -6.046875 C 7.175781 -6.148438 7.265625 -6.328125 7.265625 -6.578125 L 7.265625 -6.625 C 7.265625 -7.25 7.09375 -7.734375 6.75 -8.078125 C 6.40625 -8.429688 5.882812 -8.609375 5.1875 -8.609375 C 4.46875 -8.609375 3.898438 -8.453125 3.484375 -8.140625 C 3.078125 -7.828125 2.796875 -7.492188 2.640625 -7.140625 L 1.203125 -7.640625 C 1.453125 -8.242188 1.789062 -8.710938 2.21875 -9.046875 C 2.65625 -9.378906 3.125 -9.613281 3.625 -9.75 C 4.132812 -9.882812 4.640625 -9.953125 5.140625 -9.953125 C 5.453125 -9.953125 5.8125 -9.910156 6.21875 -9.828125 C 6.632812 -9.753906 7.035156 -9.601562 7.421875 -9.375 C 7.804688 -9.144531 8.125 -8.796875 8.375 -8.328125 C 8.632812 -7.867188 8.765625 -7.25 8.765625 -6.46875 L 8.765625 0 L 7.265625 0 L 7.265625 -1.328125 L 7.1875 -1.328125 C 7.082031 -1.117188 6.910156 -0.890625 6.671875 -0.640625 C 6.429688 -0.398438 6.113281 -0.191406 5.71875 -0.015625 C 5.320312 0.148438 4.835938 0.234375 4.265625 0.234375 Z M 4.5 -1.125 C 5.09375 -1.125 5.59375 -1.238281 6 -1.46875 C 6.414062 -1.707031 6.726562 -2.007812 6.9375 -2.375 C 7.15625 -2.75 7.265625 -3.140625 7.265625 -3.546875 L 7.265625 -4.9375 C 7.203125 -4.851562 7.0625 -4.78125 6.84375 -4.71875 C 6.625 -4.664062 6.375 -4.613281 6.09375 -4.5625 C 5.820312 -4.519531 5.550781 -4.484375 5.28125 -4.453125 C 5.019531 -4.421875 4.8125 -4.394531 4.65625 -4.375 C 4.257812 -4.320312 3.890625 -4.238281 3.546875 -4.125 C 3.210938 -4.007812 2.941406 -3.835938 2.734375 -3.609375 C 2.523438 -3.390625 2.421875 -3.085938 2.421875 -2.703125 C 2.421875 -2.179688 2.613281 -1.785156 3 -1.515625 C 3.394531 -1.253906 3.894531 -1.125 4.5 -1.125 Z M 4.5 -1.125 "/></g></g></g><g fill="#202020" fill-opacity="1"><g transform="translate(229.892338, 262.261975)"><g><path d="M 8.328125 -7.625 L 6.984375 -7.234375 C 6.847656 -7.578125 6.625 -7.894531 6.3125 -8.1875 C 6 -8.488281 5.515625 -8.640625 4.859375 -8.640625 C 4.253906 -8.640625 3.753906 -8.5 3.359375 -8.21875 C 2.960938 -7.945312 2.765625 -7.601562 2.765625 -7.1875 C 2.765625 -6.8125 2.898438 -6.515625 3.171875 -6.296875 C 3.441406 -6.078125 3.867188 -5.894531 4.453125 -5.75 L 5.90625 -5.390625 C 7.644531 -4.960938 8.515625 -4.078125 8.515625 -2.734375 C 8.515625 -2.171875 8.351562 -1.664062 8.03125 -1.21875 C 7.707031 -0.78125 7.257812 -0.429688 6.6875 -0.171875 C 6.113281 0.078125 5.441406 0.203125 4.671875 0.203125 C 3.671875 0.203125 2.84375 -0.0078125 2.1875 -0.4375 C 1.53125 -0.875 1.117188 -1.515625 0.953125 -2.359375 L 2.375 -2.703125 C 2.644531 -1.648438 3.40625 -1.125 4.65625 -1.125 C 5.351562 -1.125 5.910156 -1.273438 6.328125 -1.578125 C 6.742188 -1.878906 6.953125 -2.238281 6.953125 -2.65625 C 6.953125 -3.351562 6.46875 -3.816406 5.5 -4.046875 L 3.859375 -4.421875 C 2.960938 -4.640625 2.300781 -4.972656 1.875 -5.421875 C 1.457031 -5.867188 1.25 -6.429688 1.25 -7.109375 C 1.25 -7.660156 1.40625 -8.148438 1.71875 -8.578125 C 2.03125 -9.003906 2.457031 -9.335938 3 -9.578125 C 3.550781 -9.828125 4.171875 -9.953125 4.859375 -9.953125 C 5.828125 -9.953125 6.585938 -9.738281 7.140625 -9.3125 C 7.703125 -8.882812 8.097656 -8.320312 8.328125 -7.625 Z M 8.328125 -7.625 "/></g></g></g><g fill="#202020" fill-opacity="1"><g transform="translate(239.295399, 262.261975)"><g><path d="M 8.328125 -7.625 L 6.984375 -7.234375 C 6.847656 -7.578125 6.625 -7.894531 6.3125 -8.1875 C 6 -8.488281 5.515625 -8.640625 4.859375 -8.640625 C 4.253906 -8.640625 3.753906 -8.5 3.359375 -8.21875 C 2.960938 -7.945312 2.765625 -7.601562 2.765625 -7.1875 C 2.765625 -6.8125 2.898438 -6.515625 3.171875 -6.296875 C 3.441406 -6.078125 3.867188 -5.894531 4.453125 -5.75 L 5.90625 -5.390625 C 7.644531 -4.960938 8.515625 -4.078125 8.515625 -2.734375 C 8.515625 -2.171875 8.351562 -1.664062 8.03125 -1.21875 C 7.707031 -0.78125 7.257812 -0.429688 6.6875 -0.171875 C 6.113281 0.078125 5.441406 0.203125 4.671875 0.203125 C 3.671875 0.203125 2.84375 -0.0078125 2.1875 -0.4375 C 1.53125 -0.875 1.117188 -1.515625 0.953125 -2.359375 L 2.375 -2.703125 C 2.644531 -1.648438 3.40625 -1.125 4.65625 -1.125 C 5.351562 -1.125 5.910156 -1.273438 6.328125 -1.578125 C 6.742188 -1.878906 6.953125 -2.238281 6.953125 -2.65625 C 6.953125 -3.351562 6.46875 -3.816406 5.5 -4.046875 L 3.859375 -4.421875 C 2.960938 -4.640625 2.300781 -4.972656 1.875 -5.421875 C 1.457031 -5.867188 1.25 -6.429688 1.25 -7.109375 C 1.25 -7.660156 1.40625 -8.148438 1.71875 -8.578125 C 2.03125 -9.003906 2.457031 -9.335938 3 -9.578125 C 3.550781 -9.828125 4.171875 -9.953125 4.859375 -9.953125 C 5.828125 -9.953125 6.585938 -9.738281 7.140625 -9.3125 C 7.703125 -8.882812 8.097656 -8.320312 8.328125 -7.625 Z M 8.328125 -7.625 "/></g></g></g><g fill="#202020" fill-opacity="1"><g transform="translate(248.698459, 262.261975)"><g><path d="M 5.5 0.203125 C 4.550781 0.203125 3.734375 -0.00390625 3.046875 -0.421875 C 2.367188 -0.835938 1.84375 -1.425781 1.46875 -2.1875 C 1.101562 -2.945312 0.921875 -3.828125 0.921875 -4.828125 C 0.921875 -5.835938 1.101562 -6.722656 1.46875 -7.484375 C 1.84375 -8.253906 2.359375 -8.859375 3.015625 -9.296875 C 3.679688 -9.734375 4.457031 -9.953125 5.34375 -9.953125 C 5.851562 -9.953125 6.359375 -9.863281 6.859375 -9.6875 C 7.359375 -9.519531 7.8125 -9.242188 8.21875 -8.859375 C 8.625 -8.484375 8.945312 -7.976562 9.1875 -7.34375 C 9.4375 -6.71875 9.5625 -5.945312 9.5625 -5.03125 L 9.5625 -4.390625 L 2.4375 -4.390625 C 2.46875 -3.347656 2.765625 -2.546875 3.328125 -1.984375 C 3.890625 -1.429688 4.613281 -1.15625 5.5 -1.15625 C 6.09375 -1.15625 6.597656 -1.28125 7.015625 -1.53125 C 7.441406 -1.789062 7.753906 -2.175781 7.953125 -2.6875 L 9.40625 -2.28125 C 9.175781 -1.53125 8.71875 -0.925781 8.03125 -0.46875 C 7.34375 -0.0195312 6.5 0.203125 5.5 0.203125 Z M 2.4375 -5.703125 L 8.03125 -5.703125 C 8.03125 -6.535156 7.785156 -7.222656 7.296875 -7.765625 C 6.816406 -8.316406 6.164062 -8.59375 5.34375 -8.59375 C 4.769531 -8.59375 4.269531 -8.457031 3.84375 -8.1875 C 3.425781 -7.914062 3.09375 -7.5625 2.84375 -7.125 C 2.601562 -6.6875 2.46875 -6.210938 2.4375 -5.703125 Z M 2.4375 -5.703125 "/></g></g></g><g fill="#202020" fill-opacity="1"><g transform="translate(259.174701, 262.261975)"><g><path d="M 5.65625 -9.8125 L 5.65625 -8.546875 L 3.546875 -8.546875 L 3.546875 -2.8125 C 3.546875 -2.382812 3.609375 -2.066406 3.734375 -1.859375 C 3.867188 -1.648438 4.035156 -1.507812 4.234375 -1.4375 C 4.429688 -1.363281 4.640625 -1.328125 4.859375 -1.328125 C 5.023438 -1.328125 5.160156 -1.335938 5.265625 -1.359375 C 5.367188 -1.378906 5.453125 -1.394531 5.515625 -1.40625 L 5.828125 -0.046875 C 5.722656 -0.015625 5.578125 0.0195312 5.390625 0.0625 C 5.210938 0.101562 4.984375 0.125 4.703125 0.125 C 4.273438 0.125 3.859375 0.0351562 3.453125 -0.140625 C 3.046875 -0.328125 2.707031 -0.609375 2.4375 -0.984375 C 2.175781 -1.359375 2.046875 -1.832031 2.046875 -2.40625 L 2.046875 -8.546875 L 0.5625 -8.546875 L 0.5625 -9.8125 L 2.046875 -9.8125 L 2.046875 -12.171875 L 3.546875 -12.171875 L 3.546875 -9.8125 Z M 5.65625 -9.8125 "/></g></g></g><g fill="#202020" fill-opacity="1"><g transform="translate(265.71596, 262.261975)"><g><path d="M 8.328125 -7.625 L 6.984375 -7.234375 C 6.847656 -7.578125 6.625 -7.894531 6.3125 -8.1875 C 6 -8.488281 5.515625 -8.640625 4.859375 -8.640625 C 4.253906 -8.640625 3.753906 -8.5 3.359375 -8.21875 C 2.960938 -7.945312 2.765625 -7.601562 2.765625 -7.1875 C 2.765625 -6.8125 2.898438 -6.515625 3.171875 -6.296875 C 3.441406 -6.078125 3.867188 -5.894531 4.453125 -5.75 L 5.90625 -5.390625 C 7.644531 -4.960938 8.515625 -4.078125 8.515625 -2.734375 C 8.515625 -2.171875 8.351562 -1.664062 8.03125 -1.21875 C 7.707031 -0.78125 7.257812 -0.429688 6.6875 -0.171875 C 6.113281 0.078125 5.441406 0.203125 4.671875 0.203125 C 3.671875 0.203125 2.84375 -0.0078125 2.1875 -0.4375 C 1.53125 -0.875 1.117188 -1.515625 0.953125 -2.359375 L 2.375 -2.703125 C 2.644531 -1.648438 3.40625 -1.125 4.65625 -1.125 C 5.351562 -1.125 5.910156 -1.273438 6.328125 -1.578125 C 6.742188 -1.878906 6.953125 -2.238281 6.953125 -2.65625 C 6.953125 -3.351562 6.46875 -3.816406 5.5 -4.046875 L 3.859375 -4.421875 C 2.960938 -4.640625 2.300781 -4.972656 1.875 -5.421875 C 1.457031 -5.867188 1.25 -6.429688 1.25 -7.109375 C 1.25 -7.660156 1.40625 -8.148438 1.71875 -8.578125 C 2.03125 -9.003906 2.457031 -9.335938 3 -9.578125 C 3.550781 -9.828125 4.171875 -9.953125 4.859375 -9.953125 C 5.828125 -9.953125 6.585938 -9.738281 7.140625 -9.3125 C 7.703125 -8.882812 8.097656 -8.320312 8.328125 -7.625 Z M 8.328125 -7.625 "/></g></g></g><g fill="#202020" fill-opacity="1"><g transform="translate(275.11902, 262.261975)"><g><path d="M 2.484375 0.109375 C 2.160156 0.109375 1.882812 -0.00390625 1.65625 -0.234375 C 1.4375 -0.460938 1.328125 -0.734375 1.328125 -1.046875 C 1.328125 -1.359375 1.4375 -1.628906 1.65625 -1.859375 C 1.882812 -2.085938 2.160156 -2.203125 2.484375 -2.203125 C 2.796875 -2.203125 3.0625 -2.085938 3.28125 -1.859375 C 3.507812 -1.628906 3.625 -1.359375 3.625 -1.046875 C 3.625 -0.734375 3.507812 -0.460938 3.28125 -0.234375 C 3.0625 -0.00390625 2.796875 0.109375 2.484375 0.109375 Z M 2.484375 0.109375 "/></g></g></g></svg>