<svg xmlns="http://www.w3.org/2000/svg" xmlns:xlink="http://www.w3.org/1999/xlink" width="500" zoomAndPan="magnify" viewBox="0 0 375 374.999991" height="500" preserveAspectRatio="xMidYMid meet" version="1.0"><defs><g/><clipPath id="id1"><path d="M 90.851562 148 L 297 148 L 297 247.5 L 90.851562 247.5 Z M 90.851562 148 " clip-rule="nonzero"/></clipPath><clipPath id="id2"><path d="M 90.851562 144 L 301.601562 144 L 301.601562 247.5 L 90.851562 247.5 Z M 90.851562 144 " clip-rule="nonzero"/></clipPath><clipPath id="id3"><path d="M 133 49.5 L 157 49.5 L 157 71 L 133 71 Z M 133 49.5 " clip-rule="nonzero"/></clipPath></defs><rect x="-37.5" width="450" fill="#ffffff" y="-37.499999" height="449.999989" fill-opacity="1"/><rect x="-37.5" width="450" fill="#f3f4f5" y="-37.499999" height="449.999989" fill-opacity="1"/><rect x="-37.5" width="450" fill="#ffffff" y="-37.499999" height="449.999989" fill-opacity="1"/><rect x="-37.5" width="450" fill="#f3f4f5" y="-37.499999" height="449.999989" fill-opacity="1"/><g clip-path="url(#id1)"><path fill="#ffffff" d="M 287.152344 247.5 L 99.9375 247.5 C 99.34375 247.5 98.757812 247.441406 98.175781 247.324219 C 97.597656 247.210938 97.03125 247.039062 96.484375 246.808594 C 95.9375 246.582031 95.417969 246.304688 94.925781 245.976562 C 94.433594 245.644531 93.976562 245.269531 93.558594 244.851562 C 93.136719 244.429688 92.765625 243.976562 92.433594 243.480469 C 92.105469 242.988281 91.828125 242.46875 91.601562 241.921875 C 91.375 241.371094 91.203125 240.808594 91.085938 240.226562 C 90.96875 239.644531 90.910156 239.058594 90.910156 238.464844 L 90.910156 157.796875 C 90.910156 157.207031 90.96875 156.617188 91.085938 156.035156 C 91.203125 155.453125 91.375 154.890625 91.601562 154.34375 C 91.828125 153.792969 92.105469 153.273438 92.433594 152.78125 C 92.765625 152.289062 93.136719 151.832031 93.558594 151.410156 C 93.976562 150.992188 94.433594 150.617188 94.925781 150.289062 C 95.417969 149.957031 95.9375 149.679688 96.484375 149.453125 C 97.03125 149.226562 97.597656 149.054688 98.175781 148.9375 C 98.757812 148.820312 99.34375 148.761719 99.9375 148.761719 L 287.152344 148.761719 C 287.746094 148.761719 288.332031 148.820312 288.914062 148.9375 C 289.496094 149.054688 290.058594 149.226562 290.605469 149.453125 C 291.152344 149.679688 291.671875 149.957031 292.164062 150.289062 C 292.660156 150.617188 293.113281 150.992188 293.53125 151.410156 C 293.953125 151.832031 294.328125 152.289062 294.65625 152.78125 C 294.984375 153.273438 295.261719 153.792969 295.488281 154.34375 C 295.71875 154.890625 295.890625 155.453125 296.003906 156.035156 C 296.121094 156.617188 296.179688 157.207031 296.179688 157.796875 L 296.179688 238.464844 C 296.179688 239.058594 296.121094 239.644531 296.003906 240.226562 C 295.890625 240.808594 295.71875 241.371094 295.492188 241.921875 C 295.261719 242.46875 294.984375 242.988281 294.65625 243.480469 C 294.328125 243.976562 293.953125 244.429688 293.53125 244.851562 C 293.113281 245.269531 292.660156 245.644531 292.164062 245.976562 C 291.671875 246.304688 291.152344 246.582031 290.605469 246.808594 C 290.058594 247.039062 289.496094 247.210938 288.914062 247.324219 C 288.332031 247.441406 287.746094 247.5 287.152344 247.5 Z M 287.152344 247.5 " fill-opacity="1" fill-rule="nonzero"/></g><g clip-path="url(#id2)"><path fill="#e6e6e6" d="M 287.152344 247.5 L 99.9375 247.5 C 99.34375 247.5 98.757812 247.441406 98.175781 247.324219 C 97.597656 247.210938 97.03125 247.039062 96.484375 246.808594 C 95.9375 246.582031 95.417969 246.304688 94.925781 245.976562 C 94.433594 245.644531 93.976562 245.269531 93.558594 244.851562 C 93.136719 244.429688 92.765625 243.976562 92.433594 243.480469 C 92.105469 242.988281 91.828125 242.46875 91.601562 241.921875 C 91.375 241.371094 91.203125 240.808594 91.085938 240.226562 C 90.96875 239.644531 90.910156 239.058594 90.910156 238.464844 L 90.910156 157.796875 C 90.910156 157.207031 90.96875 156.617188 91.085938 156.035156 C 91.203125 155.453125 91.375 154.890625 91.601562 154.34375 C 91.828125 153.792969 92.105469 153.273438 92.433594 152.78125 C 92.765625 152.289062 93.136719 151.832031 93.558594 151.410156 C 93.976562 150.992188 94.433594 150.617188 94.925781 150.289062 C 95.417969 149.957031 95.9375 149.679688 96.484375 149.453125 C 97.03125 149.226562 97.597656 149.054688 98.175781 148.9375 C 98.757812 148.820312 99.34375 148.761719 99.9375 148.761719 C 155.789062 142.664062 219.378906 143.769531 287.152344 148.761719 C 287.746094 148.761719 288.332031 148.820312 288.914062 148.9375 C 289.496094 149.054688 290.058594 149.226562 290.605469 149.453125 C 291.152344 149.679688 291.671875 149.957031 292.164062 150.289062 C 292.660156 150.617188 293.113281 150.992188 293.53125 151.410156 C 293.953125 151.832031 294.328125 152.289062 294.65625 152.78125 C 294.984375 153.273438 295.261719 153.792969 295.492188 154.34375 C 295.71875 154.890625 295.890625 155.453125 296.003906 156.035156 C 296.121094 156.617188 296.179688 157.207031 296.179688 157.796875 C 303.195312 181.1875 303.46875 214.433594 296.179688 238.464844 C 296.179688 239.058594 296.121094 239.644531 296.003906 240.226562 C 295.890625 240.808594 295.71875 241.371094 295.492188 241.921875 C 295.261719 242.46875 294.984375 242.988281 294.65625 243.480469 C 294.328125 243.976562 293.953125 244.429688 293.53125 244.851562 C 293.113281 245.269531 292.660156 245.644531 292.164062 245.976562 C 291.671875 246.304688 291.152344 246.582031 290.605469 246.808594 C 290.058594 247.039062 289.496094 247.210938 288.914062 247.324219 C 288.332031 247.441406 287.746094 247.5 287.152344 247.5 Z M 99.9375 149.546875 C 99.398438 149.546875 98.859375 149.601562 98.328125 149.707031 C 97.800781 149.8125 97.285156 149.96875 96.785156 150.175781 C 96.285156 150.382812 95.808594 150.636719 95.359375 150.9375 C 94.910156 151.238281 94.492188 151.582031 94.109375 151.964844 C 93.726562 152.347656 93.386719 152.765625 93.085938 153.214844 C 92.785156 153.664062 92.53125 154.140625 92.324219 154.640625 C 92.117188 155.140625 91.960938 155.65625 91.855469 156.1875 C 91.75 156.71875 91.695312 157.257812 91.695312 157.796875 L 91.695312 238.464844 C 91.695312 239.007812 91.75 239.542969 91.855469 240.074219 C 91.960938 240.605469 92.117188 241.121094 92.324219 241.621094 C 92.53125 242.121094 92.785156 242.597656 93.085938 243.046875 C 93.386719 243.5 93.726562 243.914062 94.109375 244.296875 C 94.492188 244.679688 94.910156 245.023438 95.359375 245.324219 C 95.808594 245.625 96.285156 245.878906 96.785156 246.085938 C 97.285156 246.292969 97.800781 246.449219 98.328125 246.554688 C 98.859375 246.660156 99.398438 246.714844 99.9375 246.714844 L 287.152344 246.714844 C 287.695312 246.714844 288.230469 246.660156 288.761719 246.554688 C 289.292969 246.449219 289.808594 246.292969 290.308594 246.085938 C 290.808594 245.878906 291.28125 245.625 291.730469 245.324219 C 292.183594 245.023438 292.597656 244.679688 292.980469 244.296875 C 293.363281 243.914062 293.707031 243.5 294.007812 243.046875 C 294.308594 242.597656 294.5625 242.121094 294.769531 241.621094 C 294.976562 241.121094 295.132812 240.605469 295.238281 240.074219 C 295.34375 239.542969 295.394531 239.007812 295.394531 238.464844 L 295.394531 202.097656 C 295.394531 200.378906 295.3125 198.660156 295.140625 196.949219 C 294.972656 195.234375 294.722656 193.535156 294.386719 191.847656 C 294.050781 190.15625 293.632812 188.492188 293.132812 186.84375 C 292.636719 185.195312 292.058594 183.578125 291.398438 181.988281 C 290.742188 180.398438 290.007812 178.84375 289.195312 177.328125 C 288.386719 175.808594 287.503906 174.335938 286.546875 172.902344 C 285.59375 171.472656 284.570312 170.089844 283.480469 168.761719 C 282.386719 167.429688 281.234375 166.15625 280.019531 164.941406 C 278.804688 163.722656 277.53125 162.566406 276.203125 161.476562 C 274.875 160.382812 273.492188 159.359375 272.0625 158.40625 C 270.632812 157.449219 269.160156 156.566406 267.644531 155.753906 C 266.128906 154.941406 264.578125 154.207031 262.988281 153.546875 C 261.398438 152.890625 259.78125 152.308594 258.136719 151.8125 C 256.492188 151.3125 254.828125 150.894531 253.140625 150.558594 C 251.453125 150.222656 249.753906 149.96875 248.042969 149.800781 C 246.332031 149.632812 244.617188 149.546875 242.898438 149.546875 Z M 99.9375 149.546875 " fill-opacity="1" fill-rule="nonzero"/></g><path fill="#fb6801" d="M 228.6875 160.714844 L 205.160156 160.714844 C 205.03125 160.71875 204.902344 160.691406 204.785156 160.644531 C 204.664062 160.59375 204.554688 160.523438 204.464844 160.429688 C 204.371094 160.339844 204.300781 160.230469 204.25 160.113281 C 204.199219 159.992188 204.175781 159.867188 204.175781 159.734375 C 204.175781 159.605469 204.199219 159.480469 204.25 159.359375 C 204.300781 159.238281 204.371094 159.132812 204.464844 159.039062 C 204.554688 158.949219 204.664062 158.878906 204.785156 158.828125 C 204.902344 158.777344 205.03125 158.753906 205.160156 158.753906 L 228.6875 158.753906 C 228.816406 158.753906 228.941406 158.777344 229.0625 158.828125 C 229.183594 158.878906 229.289062 158.949219 229.382812 159.039062 C 229.476562 159.132812 229.546875 159.238281 229.597656 159.359375 C 229.644531 159.480469 229.671875 159.605469 229.671875 159.734375 C 229.671875 159.867188 229.644531 159.992188 229.597656 160.113281 C 229.546875 160.230469 229.476562 160.339844 229.382812 160.429688 C 229.289062 160.523438 229.183594 160.59375 229.0625 160.644531 C 228.941406 160.691406 228.816406 160.71875 228.6875 160.714844 Z M 228.6875 160.714844 " fill-opacity="1" fill-rule="nonzero"/><path fill="#fb6801" d="M 208.238281 191.082031 L 184.710938 191.082031 C 184.582031 191.082031 184.453125 191.054688 184.335938 191.007812 C 184.214844 190.957031 184.105469 190.886719 184.015625 190.792969 C 183.921875 190.703125 183.851562 190.597656 183.800781 190.476562 C 183.75 190.355469 183.726562 190.230469 183.726562 190.097656 C 183.726562 189.96875 183.75 189.84375 183.800781 189.722656 C 183.851562 189.601562 183.921875 189.496094 184.015625 189.402344 C 184.105469 189.3125 184.214844 189.242188 184.335938 189.191406 C 184.453125 189.140625 184.582031 189.117188 184.710938 189.117188 L 208.238281 189.117188 C 208.367188 189.117188 208.492188 189.140625 208.613281 189.191406 C 208.734375 189.242188 208.839844 189.3125 208.933594 189.402344 C 209.027344 189.496094 209.097656 189.601562 209.148438 189.722656 C 209.195312 189.84375 209.222656 189.96875 209.222656 190.097656 C 209.222656 190.230469 209.195312 190.355469 209.148438 190.476562 C 209.097656 190.597656 209.027344 190.703125 208.933594 190.792969 C 208.839844 190.886719 208.734375 190.957031 208.613281 191.007812 C 208.492188 191.054688 208.367188 191.082031 208.238281 191.082031 Z M 208.238281 191.082031 " fill-opacity="1" fill-rule="nonzero"/><path fill="#3f3d56" d="M 226.816406 189.058594 C 225.828125 187.652344 225.015625 186.152344 224.382812 184.554688 C 224.339844 184.445312 224.257812 184.390625 224.140625 184.390625 C 224.023438 184.390625 223.945312 184.445312 223.902344 184.554688 C 223.265625 186.152344 222.453125 187.652344 221.464844 189.058594 C 221.390625 189.164062 221.390625 189.265625 221.46875 189.367188 C 221.542969 189.472656 221.644531 189.5 221.765625 189.457031 L 223.800781 188.71875 L 223.800781 201.335938 L 224.480469 201.335938 L 224.480469 188.71875 L 226.519531 189.457031 C 226.640625 189.5 226.738281 189.472656 226.816406 189.367188 C 226.894531 189.265625 226.894531 189.164062 226.816406 189.058594 Z M 226.816406 189.058594 " fill-opacity="1" fill-rule="nonzero"/><path fill="#3f3d56" d="M 205.296875 166.8125 C 205.253906 166.703125 205.171875 166.652344 205.054688 166.652344 C 204.9375 166.652344 204.859375 166.707031 204.816406 166.8125 C 204.179688 168.410156 203.367188 169.914062 202.378906 171.316406 C 202.304688 171.421875 202.304688 171.523438 202.382812 171.628906 C 202.457031 171.730469 202.558594 171.757812 202.679688 171.714844 L 204.714844 170.976562 L 204.714844 183.59375 L 205.394531 183.59375 L 205.394531 170.976562 L 207.433594 171.714844 C 207.554688 171.757812 207.652344 171.730469 207.730469 171.628906 C 207.808594 171.523438 207.808594 171.421875 207.730469 171.316406 C 206.742188 169.914062 205.929688 168.410156 205.296875 166.8125 Z M 205.296875 166.8125 " fill-opacity="1" fill-rule="nonzero"/><path fill="#3f3d56" d="M 186.210938 195.128906 C 186.167969 195.023438 186.085938 194.96875 185.96875 194.96875 C 185.851562 194.96875 185.773438 195.023438 185.730469 195.128906 C 185.09375 196.726562 184.28125 198.230469 183.292969 199.636719 C 183.21875 199.738281 183.21875 199.84375 183.296875 199.945312 C 183.371094 200.046875 183.472656 200.078125 183.59375 200.03125 L 185.628906 199.292969 L 185.628906 211.914062 L 186.308594 211.914062 L 186.308594 199.292969 L 188.347656 200.03125 C 188.46875 200.078125 188.566406 200.046875 188.644531 199.945312 C 188.722656 199.84375 188.722656 199.738281 188.648438 199.636719 C 187.65625 198.230469 186.84375 196.726562 186.210938 195.128906 Z M 186.210938 195.128906 " fill-opacity="1" fill-rule="nonzero"/><path fill="#f2f2f2" d="M 269.8125 205.429688 L 269.8125 199.972656 C 258.929688 191.960938 252.898438 191.875 249.363281 193.488281 C 244.871094 195.539062 243.402344 200.773438 241.714844 205.429688 Z M 269.8125 205.429688 " fill-opacity="1" fill-rule="nonzero"/><path fill="#f2f2f2" d="M 182.265625 226.582031 C 179.90625 224.738281 178.882812 219.75 174.039062 218.394531 C 171.214844 217.605469 168.832031 218.535156 164.839844 220.101562 C 159.574219 222.160156 157.253906 224.5 154.140625 226.582031 Z M 182.265625 226.582031 " fill-opacity="1" fill-rule="nonzero"/><path fill="#f2f2f2" d="M 192.753906 217.03125 C 189.597656 221.03125 188.058594 225.019531 186.046875 226.582031 L 269.8125 226.582031 L 269.8125 217.03125 Z M 192.753906 217.03125 " fill-opacity="1" fill-rule="nonzero"/><path fill="#f2f2f2" d="M 241.335938 206.453125 C 240.046875 209.828125 238.503906 212.730469 235.386719 213.617188 C 229.902344 215.183594 227.4375 208.261719 216.984375 207.136719 C 215.917969 207.019531 206.664062 206.152344 198.578125 211.570312 C 196.71875 212.824219 195.058594 214.304688 193.597656 216.007812 L 269.8125 216.007812 L 269.8125 206.453125 Z M 241.335938 206.453125 " fill-opacity="1" fill-rule="nonzero"/><path fill="#fb6801" d="M 212.554688 207.820312 C 212.554688 208.15625 212.519531 208.488281 212.457031 208.816406 C 212.390625 209.148438 212.292969 209.464844 212.164062 209.777344 C 212.035156 210.085938 211.878906 210.382812 211.691406 210.660156 C 211.503906 210.941406 211.292969 211.199219 211.054688 211.4375 C 210.820312 211.675781 210.5625 211.886719 210.28125 212.074219 C 210.003906 212.261719 209.707031 212.417969 209.398438 212.546875 C 209.085938 212.675781 208.769531 212.773438 208.4375 212.835938 C 208.109375 212.902344 207.777344 212.9375 207.441406 212.9375 C 207.105469 212.9375 206.773438 212.902344 206.445312 212.835938 C 206.113281 212.773438 205.796875 212.675781 205.484375 212.546875 C 205.175781 212.417969 204.878906 212.261719 204.601562 212.074219 C 204.320312 211.886719 204.0625 211.675781 203.828125 211.4375 C 203.589844 211.199219 203.378906 210.941406 203.191406 210.660156 C 203.003906 210.382812 202.847656 210.085938 202.71875 209.777344 C 202.589844 209.464844 202.492188 209.148438 202.425781 208.816406 C 202.363281 208.488281 202.328125 208.15625 202.328125 207.820312 C 202.328125 207.484375 202.363281 207.148438 202.425781 206.820312 C 202.492188 206.492188 202.589844 206.171875 202.71875 205.859375 C 202.847656 205.550781 203.003906 205.253906 203.191406 204.976562 C 203.378906 204.695312 203.589844 204.4375 203.828125 204.199219 C 204.0625 203.960938 204.320312 203.75 204.601562 203.5625 C 204.878906 203.375 205.175781 203.21875 205.484375 203.089844 C 205.796875 202.960938 206.113281 202.863281 206.445312 202.800781 C 206.773438 202.734375 207.105469 202.699219 207.441406 202.699219 C 207.777344 202.699219 208.109375 202.734375 208.4375 202.800781 C 208.769531 202.863281 209.085938 202.960938 209.398438 203.089844 C 209.707031 203.21875 210.003906 203.375 210.28125 203.5625 C 210.5625 203.75 210.820312 203.960938 211.054688 204.199219 C 211.292969 204.4375 211.503906 204.695312 211.691406 204.976562 C 211.878906 205.253906 212.035156 205.550781 212.164062 205.859375 C 212.292969 206.171875 212.390625 206.492188 212.457031 206.820312 C 212.519531 207.148438 212.554688 207.484375 212.554688 207.820312 Z M 212.554688 207.820312 " fill-opacity="1" fill-rule="nonzero"/><path fill="#ffb6b6" d="M 145.207031 241.636719 L 150.070312 241.632812 L 152.382812 222.863281 L 145.207031 222.863281 Z M 145.207031 241.636719 " fill-opacity="1" fill-rule="nonzero"/><path fill="#2f2e41" d="M 145.039062 246.710938 L 159.988281 246.710938 L 159.988281 246.523438 C 159.988281 246.140625 159.949219 245.761719 159.875 245.386719 C 159.800781 245.011719 159.691406 244.644531 159.542969 244.292969 C 159.398438 243.941406 159.21875 243.605469 159.007812 243.285156 C 158.792969 242.96875 158.554688 242.671875 158.285156 242.402344 C 158.011719 242.132812 157.71875 241.890625 157.402344 241.679688 C 157.082031 241.464844 156.75 241.285156 156.394531 241.140625 C 156.042969 240.996094 155.679688 240.882812 155.304688 240.808594 C 154.929688 240.734375 154.550781 240.695312 154.167969 240.695312 L 151.4375 238.625 L 146.34375 240.699219 L 145.039062 240.699219 Z M 145.039062 246.710938 " fill-opacity="1" fill-rule="nonzero"/><path fill="#ffb6b6" d="M 147.945312 221.972656 L 143.992188 224.808594 L 131.1875 210.898438 L 137.023438 206.714844 Z M 147.945312 221.972656 " fill-opacity="1" fill-rule="nonzero"/><path fill="#2f2e41" d="M 151.039062 226 L 138.882812 234.71875 L 138.773438 234.5625 C 138.550781 234.253906 138.363281 233.921875 138.203125 233.574219 C 138.046875 233.226562 137.925781 232.867188 137.835938 232.492188 C 137.75 232.121094 137.703125 231.742188 137.6875 231.359375 C 137.675781 230.980469 137.699219 230.597656 137.761719 230.222656 C 137.824219 229.84375 137.925781 229.476562 138.058594 229.117188 C 138.191406 228.761719 138.363281 228.417969 138.5625 228.09375 C 138.765625 227.769531 138.996094 227.46875 139.257812 227.1875 C 139.519531 226.910156 139.804688 226.660156 140.113281 226.433594 L 140.117188 226.433594 L 141.128906 223.15625 L 146.476562 221.871094 L 147.539062 221.113281 Z M 151.039062 226 " fill-opacity="1" fill-rule="nonzero"/><path fill="#2f2e41" d="M 129.714844 134.847656 C 129.714844 134.847656 99.574219 167.316406 104.785156 176.832031 C 110 186.347656 135.148438 218.890625 135.148438 218.890625 L 142.042969 210.964844 C 136.246094 197.203125 130.011719 185.175781 122.738281 177.238281 L 143.816406 161.652344 C 143.816406 161.652344 145.367188 187.449219 144.089844 191.503906 C 142.8125 195.558594 140.667969 193.410156 142.8125 195.558594 C 144.960938 197.707031 146.042969 198.101562 144.890625 199.4375 C 143.734375 200.777344 142.902344 231.25 142.902344 231.25 L 152.820312 231.25 C 152.820312 231.25 162.074219 175.109375 161.492188 173.054688 C 160.90625 171 161.242188 171.941406 161.230469 169.320312 C 161.214844 166.699219 165.445312 145.238281 165.445312 145.238281 Z M 129.714844 134.847656 " fill-opacity="1" fill-rule="nonzero"/><path fill="#fb6801" d="M 150.175781 74.074219 L 140.667969 74.6875 L 134.429688 82.683594 L 124.050781 90.601562 L 130.636719 110.667969 C 130.636719 110.667969 130.3125 120.921875 129.203125 122.210938 C 128.09375 123.5 126.253906 121.964844 128.09375 124.726562 C 129.234375 126.507812 129.847656 128.457031 129.933594 130.574219 C 129.933594 130.574219 119.449219 139.308594 123.1875 141.609375 C 126.925781 143.914062 134.476562 137.925781 138.339844 141.457031 C 142.199219 144.988281 167.859375 152.097656 167.960938 147.136719 C 168.0625 142.175781 161.554688 103.445312 161.554688 103.445312 L 163.054688 84.816406 L 154.46875 78.984375 Z M 150.175781 74.074219 " fill-opacity="1" fill-rule="nonzero"/><path fill="#ffb6b6" d="M 135.125 152.335938 L 131.902344 142.625 L 126.105469 143.691406 L 129.878906 153.839844 C 129.722656 154.238281 129.648438 154.648438 129.648438 155.074219 C 129.648438 155.503906 129.726562 155.914062 129.878906 156.3125 C 130.035156 156.710938 130.257812 157.066406 130.542969 157.382812 C 130.832031 157.699219 131.167969 157.949219 131.546875 158.140625 C 131.929688 158.332031 132.335938 158.445312 132.757812 158.484375 C 133.183594 158.523438 133.601562 158.484375 134.011719 158.367188 C 134.421875 158.25 134.796875 158.058594 135.136719 157.800781 C 135.476562 157.542969 135.757812 157.234375 135.980469 156.871094 C 136.207031 156.507812 136.355469 156.117188 136.433594 155.695312 C 136.511719 155.277344 136.511719 154.855469 136.433594 154.4375 C 136.351562 154.015625 136.199219 153.625 135.976562 153.261719 C 135.75 152.902344 135.46875 152.589844 135.125 152.335938 Z M 135.125 152.335938 " fill-opacity="1" fill-rule="nonzero"/><path fill="#fb6801" d="M 126.550781 89.039062 L 126.398438 89.105469 C 125.6875 89.402344 125.023438 89.777344 124.40625 90.238281 C 123.785156 90.695312 123.230469 91.222656 122.742188 91.816406 C 122.25 92.414062 121.835938 93.058594 121.503906 93.75 C 121.171875 94.445312 120.925781 95.171875 120.769531 95.925781 C 119.945312 99.863281 119.136719 105.558594 119.777344 110.894531 C 120.90625 120.3125 118.59375 124.457031 120.097656 127.472656 C 121.601562 130.484375 121.980469 129.355469 121.601562 131.617188 C 121.226562 133.875 119.34375 131.992188 121.226562 135.007812 C 123.109375 138.019531 124.238281 137.265625 123.484375 138.773438 C 122.730469 140.28125 121.601562 140.28125 123.109375 142.164062 C 124.613281 144.050781 124.613281 144.804688 124.992188 145.554688 C 125.367188 146.308594 126.496094 151.960938 126.496094 151.960938 C 126.496094 151.960938 132.519531 150.078125 135.90625 150.832031 C 135.90625 150.832031 132.894531 145.554688 133.648438 144.425781 C 134.398438 143.296875 135.53125 142.917969 134.398438 141.789062 C 133.269531 140.660156 131.390625 141.035156 133.269531 139.90625 C 135.152344 138.773438 133.613281 115.824219 133.613281 115.824219 Z M 126.550781 89.039062 " fill-opacity="1" fill-rule="nonzero"/><path fill="#ffb6b6" d="M 176.453125 141.070312 L 174.253906 131.078125 L 179.78125 129.023438 L 181.730469 139.667969 C 182.066406 139.933594 182.34375 140.25 182.5625 140.613281 C 182.78125 140.980469 182.925781 141.375 182.996094 141.796875 C 183.066406 142.21875 183.058594 142.636719 182.972656 143.054688 C 182.886719 143.472656 182.730469 143.863281 182.496094 144.222656 C 182.265625 144.582031 181.980469 144.886719 181.632812 145.136719 C 181.289062 145.386719 180.910156 145.566406 180.496094 145.675781 C 180.085938 145.785156 179.667969 145.816406 179.242188 145.769531 C 178.820312 145.722656 178.417969 145.601562 178.039062 145.402344 C 177.660156 145.207031 177.332031 144.945312 177.050781 144.625 C 176.769531 144.304688 176.554688 143.945312 176.410156 143.542969 C 176.261719 143.144531 176.191406 142.730469 176.199219 142.300781 C 176.207031 141.875 176.292969 141.464844 176.453125 141.070312 Z M 176.453125 141.070312 " fill-opacity="1" fill-rule="nonzero"/><path fill="#fb6801" d="M 154.074219 80.734375 L 154.238281 80.710938 C 155 80.601562 155.765625 80.585938 156.53125 80.664062 C 157.296875 80.738281 158.042969 80.910156 158.769531 81.167969 C 159.496094 81.425781 160.179688 81.769531 160.820312 82.195312 C 161.464844 82.621094 162.042969 83.117188 162.566406 83.683594 C 165.285156 86.644531 168.894531 91.125 171.074219 96.03125 C 174.921875 104.703125 176.394531 108.648438 176.644531 112.007812 C 176.894531 115.371094 175.992188 114.589844 177.472656 116.339844 C 178.949219 118.089844 179.605469 115.507812 179.53125 119.058594 C 179.453125 122.613281 178.097656 122.546875 179.515625 123.453125 C 180.933594 124.363281 181.90625 123.785156 181.574219 126.171875 C 181.246094 128.5625 181.632812 129.210938 181.691406 130.050781 C 181.753906 130.890625 183.675781 136.324219 183.675781 136.324219 C 183.675781 136.324219 177.539062 137.792969 175.015625 140.175781 C 175.015625 140.175781 174.902344 134.101562 173.679688 133.515625 C 172.453125 132.933594 171.292969 133.1875 171.683594 131.636719 C 172.074219 130.089844 173.882812 129.445312 171.691406 129.441406 C 169.496094 129.433594 156.308594 101.089844 156.308594 101.089844 Z M 154.074219 80.734375 " fill-opacity="1" fill-rule="nonzero"/><path fill="#ffb6b6" d="M 154.882812 63.070312 C 154.882812 63.726562 154.816406 64.378906 154.691406 65.023438 C 154.5625 65.667969 154.371094 66.292969 154.121094 66.902344 C 153.867188 67.511719 153.558594 68.085938 153.195312 68.632812 C 152.828125 69.179688 152.414062 69.6875 151.949219 70.152344 C 151.484375 70.617188 150.980469 71.03125 150.433594 71.398438 C 149.886719 71.765625 149.3125 72.074219 148.703125 72.324219 C 148.097656 72.574219 147.46875 72.765625 146.824219 72.894531 C 146.179688 73.023438 145.53125 73.085938 144.875 73.085938 C 144.214844 73.085938 143.566406 73.023438 142.921875 72.894531 C 142.277344 72.765625 141.652344 72.574219 141.042969 72.324219 C 140.4375 72.074219 139.859375 71.765625 139.3125 71.398438 C 138.765625 71.03125 138.261719 70.617188 137.796875 70.152344 C 137.332031 69.6875 136.917969 69.179688 136.550781 68.632812 C 136.1875 68.085938 135.878906 67.511719 135.628906 66.902344 C 135.375 66.292969 135.1875 65.667969 135.058594 65.023438 C 134.929688 64.378906 134.867188 63.726562 134.867188 63.070312 C 134.867188 62.410156 134.929688 61.757812 135.058594 61.113281 C 135.1875 60.46875 135.375 59.84375 135.628906 59.234375 C 135.878906 58.625 136.1875 58.050781 136.550781 57.503906 C 136.917969 56.957031 137.332031 56.449219 137.796875 55.984375 C 138.261719 55.519531 138.765625 55.105469 139.3125 54.738281 C 139.859375 54.371094 140.4375 54.0625 141.042969 53.8125 C 141.652344 53.5625 142.277344 53.371094 142.921875 53.242188 C 143.566406 53.113281 144.214844 53.050781 144.875 53.050781 C 145.53125 53.050781 146.179688 53.113281 146.824219 53.242188 C 147.46875 53.371094 148.097656 53.5625 148.703125 53.8125 C 149.3125 54.0625 149.886719 54.371094 150.433594 54.738281 C 150.980469 55.105469 151.484375 55.519531 151.949219 55.984375 C 152.414062 56.449219 152.828125 56.957031 153.195312 57.503906 C 153.558594 58.050781 153.867188 58.625 154.121094 59.234375 C 154.371094 59.84375 154.5625 60.46875 154.691406 61.113281 C 154.816406 61.757812 154.882812 62.410156 154.882812 63.070312 Z M 154.882812 63.070312 " fill-opacity="1" fill-rule="nonzero"/><g clip-path="url(#id3)"><path fill="#2f2e41" d="M 156.539062 59.8125 C 155.511719 60.28125 154.84375 63.679688 154.035156 62.890625 C 153.230469 62.101562 153.28125 61.074219 152.195312 60.78125 C 151.3125 60.542969 150.367188 60.816406 149.566406 61.242188 C 149.421875 61.316406 149.28125 61.398438 149.148438 61.480469 C 149.058594 61.417969 148.96875 61.363281 148.875 61.3125 C 148.128906 60.914062 147.347656 60.824219 146.53125 61.046875 C 147.167969 61.261719 147.683594 61.640625 148.074219 62.183594 C 147.804688 62.367188 147.535156 62.546875 147.257812 62.707031 C 144.933594 64.050781 141.625 61.128906 139.175781 60.03125 C 140.710938 62.910156 139.957031 64.101562 138.625 67.082031 L 138.578125 67.25 C 138.65625 66.503906 136.347656 65.949219 136.480469 67 C 136.714844 68.066406 137.082031 69.085938 137.582031 70.058594 C 135.011719 67.082031 133.253906 63.4375 133.625 59.679688 C 133.703125 58.890625 133.679688 58.058594 134.085938 57.371094 C 134.492188 56.691406 135.34375 56.210938 136.09375 56.472656 C 136.0625 55.875 136.109375 55.28125 136.238281 54.695312 C 136.367188 54.109375 136.570312 53.550781 136.851562 53.019531 C 137.132812 52.488281 137.476562 52.003906 137.886719 51.566406 C 138.300781 51.128906 138.761719 50.757812 139.273438 50.445312 C 139.785156 50.132812 140.332031 49.894531 140.90625 49.730469 C 141.484375 49.566406 142.070312 49.480469 142.671875 49.476562 C 143.269531 49.472656 143.859375 49.550781 144.4375 49.703125 C 145.019531 49.859375 145.566406 50.089844 146.082031 50.394531 C 147.042969 50.957031 147.84375 51.757812 148.726562 52.445312 C 149.605469 53.132812 150.621094 53.734375 151.738281 53.789062 C 152.445312 53.824219 153.214844 53.652344 153.824219 54.019531 C 154.527344 54.445312 154.648438 55.335938 154.753906 56.195312 C 154.113281 56.257812 153.542969 56.496094 153.042969 56.90625 C 153.710938 56.839844 154.335938 56.972656 154.914062 57.308594 C 154.925781 57.3125 154.9375 57.320312 154.945312 57.328125 C 155.320312 58.746094 155.28125 59.058594 156.539062 59.8125 Z M 156.539062 59.8125 " fill-opacity="1" fill-rule="nonzero"/></g><path fill="#fb6801" d="M 247.089844 181.1875 L 223.5625 181.1875 C 223.433594 181.1875 223.308594 181.164062 223.1875 181.113281 C 223.066406 181.0625 222.960938 180.992188 222.867188 180.902344 C 222.777344 180.808594 222.703125 180.703125 222.65625 180.582031 C 222.605469 180.460938 222.578125 180.335938 222.578125 180.207031 C 222.578125 180.074219 222.605469 179.949219 222.65625 179.828125 C 222.703125 179.707031 222.777344 179.601562 222.867188 179.511719 C 222.960938 179.417969 223.066406 179.347656 223.1875 179.296875 C 223.308594 179.25 223.433594 179.222656 223.5625 179.222656 L 247.089844 179.222656 C 247.222656 179.222656 247.347656 179.25 247.46875 179.296875 C 247.589844 179.347656 247.695312 179.417969 247.785156 179.511719 C 247.878906 179.601562 247.949219 179.707031 248 179.828125 C 248.050781 179.949219 248.074219 180.074219 248.074219 180.207031 C 248.074219 180.335938 248.050781 180.460938 248 180.582031 C 247.949219 180.703125 247.878906 180.808594 247.785156 180.902344 C 247.695312 180.992188 247.589844 181.0625 247.46875 181.113281 C 247.347656 181.164062 247.222656 181.1875 247.089844 181.1875 Z M 247.089844 181.1875 " fill-opacity="1" fill-rule="nonzero"/><path fill="#f2f2f2" d="M 121.195312 239.953125 C 120.996094 239.964844 120.808594 239.914062 120.640625 239.808594 C 120.472656 239.699219 120.347656 239.554688 120.269531 239.367188 C 120.191406 239.183594 120.175781 238.992188 120.21875 238.792969 C 120.261719 238.597656 120.355469 238.429688 120.503906 238.292969 L 120.570312 238.035156 C 120.558594 238.011719 120.550781 237.992188 120.542969 237.972656 C 120.339844 237.492188 120.023438 237.113281 119.589844 236.828125 C 119.160156 236.542969 118.683594 236.398438 118.167969 236.402344 C 117.648438 236.402344 117.175781 236.550781 116.746094 236.835938 C 116.316406 237.125 116 237.511719 115.800781 237.988281 C 115.027344 239.859375 114.039062 241.730469 113.796875 243.707031 C 113.691406 244.585938 113.734375 245.457031 113.929688 246.324219 C 112.089844 242.300781 111.164062 238.078125 111.160156 233.652344 C 111.160156 232.554688 111.21875 231.457031 111.339844 230.367188 C 111.441406 229.472656 111.582031 228.585938 111.761719 227.703125 C 112.75 222.851562 114.789062 218.492188 117.875 214.625 C 119.382812 213.800781 120.519531 212.621094 121.285156 211.082031 C 121.558594 210.539062 121.75 209.96875 121.855469 209.367188 C 121.6875 209.390625 121.230469 206.859375 121.355469 206.703125 C 121.121094 206.351562 120.707031 206.175781 120.457031 205.832031 C 119.199219 204.125 117.464844 204.425781 116.5625 206.742188 C 114.628906 207.71875 114.609375 209.339844 115.796875 210.894531 C 116.550781 211.886719 116.652344 213.226562 117.316406 214.285156 C 117.246094 214.375 117.175781 214.457031 117.109375 214.546875 C 115.863281 216.152344 114.78125 217.863281 113.871094 219.679688 C 114.09375 217.621094 113.839844 215.621094 113.101562 213.683594 C 112.363281 211.902344 110.980469 210.40625 109.765625 208.867188 C 108.304688 207.019531 105.308594 207.824219 105.050781 210.167969 C 105.046875 210.191406 105.042969 210.214844 105.042969 210.234375 C 105.222656 210.335938 105.398438 210.445312 105.574219 210.558594 C 105.796875 210.710938 105.957031 210.90625 106.054688 211.15625 C 106.15625 211.40625 106.175781 211.660156 106.117188 211.921875 C 106.0625 212.183594 105.933594 212.40625 105.738281 212.589844 C 105.542969 212.773438 105.3125 212.882812 105.050781 212.925781 L 105.023438 212.929688 C 105.085938 213.582031 105.199219 214.226562 105.363281 214.863281 C 103.804688 220.902344 107.171875 223.105469 111.984375 223.203125 C 112.089844 223.257812 112.195312 223.3125 112.300781 223.363281 C 111.382812 225.96875 110.8125 228.644531 110.59375 231.394531 C 110.472656 233.015625 110.480469 234.632812 110.617188 236.25 L 110.609375 236.191406 C 110.25 234.339844 109.347656 232.8125 107.898438 231.605469 C 105.8125 229.890625 102.867188 229.257812 100.617188 227.878906 C 100.375 227.722656 100.105469 227.644531 99.816406 227.644531 C 99.527344 227.644531 99.257812 227.722656 99.015625 227.875 C 98.769531 228.03125 98.585938 228.242188 98.464844 228.503906 C 98.339844 228.769531 98.296875 229.042969 98.335938 229.332031 C 98.339844 229.351562 98.34375 229.371094 98.347656 229.390625 C 98.679688 229.527344 99.007812 229.683594 99.324219 229.863281 C 99.503906 229.964844 99.679688 230.074219 99.855469 230.1875 C 100.078125 230.335938 100.238281 230.535156 100.335938 230.785156 C 100.4375 231.03125 100.457031 231.289062 100.398438 231.550781 C 100.34375 231.8125 100.214844 232.035156 100.019531 232.214844 C 99.824219 232.398438 99.59375 232.511719 99.332031 232.550781 L 99.304688 232.554688 C 99.285156 232.558594 99.269531 232.5625 99.25 232.566406 C 99.828125 233.945312 100.621094 235.1875 101.628906 236.292969 C 102.601562 241.566406 106.792969 242.066406 111.277344 240.53125 L 111.28125 240.53125 C 111.773438 242.675781 112.484375 244.746094 113.40625 246.746094 L 121.007812 246.746094 C 121.03125 246.660156 121.058594 246.574219 121.082031 246.488281 C 120.375 246.535156 119.675781 246.492188 118.980469 246.363281 C 119.542969 245.671875 120.105469 244.972656 120.671875 244.28125 C 120.683594 244.269531 120.695312 244.253906 120.707031 244.238281 C 120.992188 243.886719 121.28125 243.535156 121.566406 243.179688 C 121.582031 242.089844 121.457031 241.015625 121.195312 239.953125 Z M 121.195312 239.953125 " fill-opacity="1" fill-rule="nonzero"/><g fill="#202020" fill-opacity="1"><g transform="translate(89.731215, 272.837003)"><g><path d="M 3.96875 0 L 0.390625 -13.09375 L 2 -13.09375 L 4.734375 -2.421875 L 4.859375 -2.421875 L 7.640625 -13.09375 L 9.4375 -13.09375 L 12.21875 -2.421875 L 12.34375 -2.421875 L 15.078125 -13.09375 L 16.703125 -13.09375 L 13.109375 0 L 11.484375 0 L 8.59375 -10.4375 L 8.484375 -10.4375 L 5.59375 0 Z M 3.96875 0 "/></g></g></g><g fill="#202020" fill-opacity="1"><g transform="translate(106.799813, 272.837003)"><g><path d="M 4.265625 0.234375 C 3.648438 0.234375 3.085938 0.113281 2.578125 -0.125 C 2.066406 -0.363281 1.660156 -0.707031 1.359375 -1.15625 C 1.066406 -1.601562 0.921875 -2.144531 0.921875 -2.78125 C 0.921875 -3.34375 1.03125 -3.800781 1.25 -4.15625 C 1.46875 -4.507812 1.765625 -4.785156 2.140625 -4.984375 C 2.515625 -5.179688 2.925781 -5.332031 3.375 -5.4375 C 3.820312 -5.539062 4.273438 -5.617188 4.734375 -5.671875 C 5.328125 -5.753906 5.8125 -5.8125 6.1875 -5.84375 C 6.5625 -5.882812 6.832031 -5.953125 7 -6.046875 C 7.175781 -6.148438 7.265625 -6.328125 7.265625 -6.578125 L 7.265625 -6.625 C 7.265625 -7.25 7.09375 -7.734375 6.75 -8.078125 C 6.40625 -8.429688 5.882812 -8.609375 5.1875 -8.609375 C 4.46875 -8.609375 3.898438 -8.453125 3.484375 -8.140625 C 3.078125 -7.828125 2.796875 -7.492188 2.640625 -7.140625 L 1.203125 -7.640625 C 1.453125 -8.242188 1.789062 -8.710938 2.21875 -9.046875 C 2.65625 -9.378906 3.125 -9.613281 3.625 -9.75 C 4.132812 -9.882812 4.640625 -9.953125 5.140625 -9.953125 C 5.453125 -9.953125 5.8125 -9.910156 6.21875 -9.828125 C 6.632812 -9.753906 7.035156 -9.601562 7.421875 -9.375 C 7.804688 -9.144531 8.125 -8.796875 8.375 -8.328125 C 8.632812 -7.867188 8.765625 -7.25 8.765625 -6.46875 L 8.765625 0 L 7.265625 0 L 7.265625 -1.328125 L 7.1875 -1.328125 C 7.082031 -1.117188 6.910156 -0.890625 6.671875 -0.640625 C 6.429688 -0.398438 6.113281 -0.191406 5.71875 -0.015625 C 5.320312 0.148438 4.835938 0.234375 4.265625 0.234375 Z M 4.5 -1.125 C 5.09375 -1.125 5.59375 -1.238281 6 -1.46875 C 6.414062 -1.707031 6.726562 -2.007812 6.9375 -2.375 C 7.15625 -2.75 7.265625 -3.140625 7.265625 -3.546875 L 7.265625 -4.9375 C 7.203125 -4.851562 7.0625 -4.78125 6.84375 -4.71875 C 6.625 -4.664062 6.375 -4.613281 6.09375 -4.5625 C 5.820312 -4.519531 5.550781 -4.484375 5.28125 -4.453125 C 5.019531 -4.421875 4.8125 -4.394531 4.65625 -4.375 C 4.257812 -4.320312 3.890625 -4.238281 3.546875 -4.125 C 3.210938 -4.007812 2.941406 -3.835938 2.734375 -3.609375 C 2.523438 -3.390625 2.421875 -3.085938 2.421875 -2.703125 C 2.421875 -2.179688 2.613281 -1.785156 3 -1.515625 C 3.394531 -1.253906 3.894531 -1.125 4.5 -1.125 Z M 4.5 -1.125 "/></g></g></g><g fill="#202020" fill-opacity="1"><g transform="translate(116.943878, 272.837003)"><g><path d="M 5.65625 -9.8125 L 5.65625 -8.546875 L 3.546875 -8.546875 L 3.546875 -2.8125 C 3.546875 -2.382812 3.609375 -2.066406 3.734375 -1.859375 C 3.867188 -1.648438 4.035156 -1.507812 4.234375 -1.4375 C 4.429688 -1.363281 4.640625 -1.328125 4.859375 -1.328125 C 5.023438 -1.328125 5.160156 -1.335938 5.265625 -1.359375 C 5.367188 -1.378906 5.453125 -1.394531 5.515625 -1.40625 L 5.828125 -0.046875 C 5.722656 -0.015625 5.578125 0.0195312 5.390625 0.0625 C 5.210938 0.101562 4.984375 0.125 4.703125 0.125 C 4.273438 0.125 3.859375 0.0351562 3.453125 -0.140625 C 3.046875 -0.328125 2.707031 -0.609375 2.4375 -0.984375 C 2.175781 -1.359375 2.046875 -1.832031 2.046875 -2.40625 L 2.046875 -8.546875 L 0.5625 -8.546875 L 0.5625 -9.8125 L 2.046875 -9.8125 L 2.046875 -12.171875 L 3.546875 -12.171875 L 3.546875 -9.8125 Z M 5.65625 -9.8125 "/></g></g></g><g fill="#202020" fill-opacity="1"><g transform="translate(123.485138, 272.837003)"><g><path d="M 5.375 0.203125 C 4.445312 0.203125 3.648438 -0.0078125 2.984375 -0.4375 C 2.328125 -0.875 1.816406 -1.472656 1.453125 -2.234375 C 1.097656 -3.003906 0.921875 -3.878906 0.921875 -4.859375 C 0.921875 -5.859375 1.101562 -6.738281 1.46875 -7.5 C 1.84375 -8.257812 2.359375 -8.859375 3.015625 -9.296875 C 3.679688 -9.734375 4.457031 -9.953125 5.34375 -9.953125 C 6.03125 -9.953125 6.648438 -9.820312 7.203125 -9.5625 C 7.765625 -9.300781 8.222656 -8.941406 8.578125 -8.484375 C 8.929688 -8.023438 9.148438 -7.488281 9.234375 -6.875 L 7.71875 -6.875 C 7.601562 -7.320312 7.347656 -7.71875 6.953125 -8.0625 C 6.554688 -8.414062 6.03125 -8.59375 5.375 -8.59375 C 4.488281 -8.59375 3.773438 -8.253906 3.234375 -7.578125 C 2.691406 -6.910156 2.421875 -6.019531 2.421875 -4.90625 C 2.421875 -3.769531 2.6875 -2.859375 3.21875 -2.171875 C 3.757812 -1.492188 4.476562 -1.15625 5.375 -1.15625 C 5.957031 -1.15625 6.457031 -1.304688 6.875 -1.609375 C 7.300781 -1.910156 7.582031 -2.328125 7.71875 -2.859375 L 9.234375 -2.859375 C 9.148438 -2.285156 8.9375 -1.765625 8.59375 -1.296875 C 8.257812 -0.835938 7.816406 -0.472656 7.265625 -0.203125 C 6.722656 0.0664062 6.09375 0.203125 5.375 0.203125 Z M 5.375 0.203125 "/></g></g></g><g fill="#202020" fill-opacity="1"><g transform="translate(133.526996, 272.837003)"><g><path d="M 2.890625 -5.90625 L 2.890625 0 L 1.375 0 L 1.375 -13.09375 L 2.890625 -13.09375 L 2.890625 -8.28125 L 3.015625 -8.28125 C 3.242188 -8.789062 3.585938 -9.195312 4.046875 -9.5 C 4.515625 -9.800781 5.132812 -9.953125 5.90625 -9.953125 C 6.914062 -9.953125 7.722656 -9.644531 8.328125 -9.03125 C 8.941406 -8.425781 9.25 -7.492188 9.25 -6.234375 L 9.25 0 L 7.75 0 L 7.75 -6.140625 C 7.75 -6.921875 7.546875 -7.523438 7.140625 -7.953125 C 6.734375 -8.378906 6.175781 -8.59375 5.46875 -8.59375 C 4.726562 -8.59375 4.113281 -8.359375 3.625 -7.890625 C 3.132812 -7.421875 2.890625 -6.757812 2.890625 -5.90625 Z M 2.890625 -5.90625 "/></g></g></g><g fill="#202020" fill-opacity="1"><g transform="translate(144.156542, 272.837003)"><g/></g></g><g fill="#202020" fill-opacity="1"><g transform="translate(149.215803, 272.837003)"><g><path d="M 2.296875 3.8125 C 2.046875 3.8125 1.816406 3.789062 1.609375 3.75 C 1.410156 3.707031 1.273438 3.664062 1.203125 3.625 L 1.578125 2.296875 C 2.128906 2.441406 2.585938 2.441406 2.953125 2.296875 C 3.328125 2.148438 3.644531 1.707031 3.90625 0.96875 L 4.25 0.046875 L 0.609375 -9.8125 L 2.25 -9.8125 L 4.953125 -2 L 5.0625 -2 L 7.765625 -9.8125 L 9.40625 -9.8125 L 5.1875 1.578125 C 4.632812 3.066406 3.671875 3.8125 2.296875 3.8125 Z M 2.296875 3.8125 "/></g></g></g><g fill="#202020" fill-opacity="1"><g transform="translate(159.232106, 272.837003)"><g><path d="M 5.375 0.203125 C 4.488281 0.203125 3.707031 -0.00390625 3.03125 -0.421875 C 2.363281 -0.847656 1.84375 -1.441406 1.46875 -2.203125 C 1.101562 -2.960938 0.921875 -3.847656 0.921875 -4.859375 C 0.921875 -5.878906 1.101562 -6.769531 1.46875 -7.53125 C 1.84375 -8.300781 2.363281 -8.894531 3.03125 -9.3125 C 3.707031 -9.738281 4.488281 -9.953125 5.375 -9.953125 C 6.257812 -9.953125 7.035156 -9.738281 7.703125 -9.3125 C 8.367188 -8.894531 8.882812 -8.300781 9.25 -7.53125 C 9.625 -6.769531 9.8125 -5.878906 9.8125 -4.859375 C 9.8125 -3.847656 9.625 -2.960938 9.25 -2.203125 C 8.882812 -1.441406 8.367188 -0.847656 7.703125 -0.421875 C 7.035156 -0.00390625 6.257812 0.203125 5.375 0.203125 Z M 5.375 -1.15625 C 6.039062 -1.15625 6.59375 -1.328125 7.03125 -1.671875 C 7.46875 -2.015625 7.789062 -2.46875 8 -3.03125 C 8.207031 -3.59375 8.3125 -4.203125 8.3125 -4.859375 C 8.3125 -5.515625 8.207031 -6.125 8 -6.6875 C 7.789062 -7.257812 7.46875 -7.71875 7.03125 -8.0625 C 6.59375 -8.414062 6.039062 -8.59375 5.375 -8.59375 C 4.695312 -8.59375 4.140625 -8.414062 3.703125 -8.0625 C 3.273438 -7.71875 2.953125 -7.257812 2.734375 -6.6875 C 2.523438 -6.125 2.421875 -5.515625 2.421875 -4.859375 C 2.421875 -4.203125 2.523438 -3.59375 2.734375 -3.03125 C 2.953125 -2.46875 3.273438 -2.015625 3.703125 -1.671875 C 4.140625 -1.328125 4.695312 -1.15625 5.375 -1.15625 Z M 5.375 -1.15625 "/></g></g></g><g fill="#202020" fill-opacity="1"><g transform="translate(169.96386, 272.837003)"><g><path d="M 7.5625 -4.015625 L 7.5625 -9.8125 L 9.078125 -9.8125 L 9.078125 0 L 7.5625 0 L 7.5625 -1.65625 L 7.46875 -1.65625 C 7.238281 -1.15625 6.878906 -0.734375 6.390625 -0.390625 C 5.898438 -0.046875 5.285156 0.125 4.546875 0.125 C 3.628906 0.125 2.867188 -0.175781 2.265625 -0.78125 C 1.671875 -1.394531 1.375 -2.328125 1.375 -3.578125 L 1.375 -9.8125 L 2.890625 -9.8125 L 2.890625 -3.6875 C 2.890625 -2.96875 3.085938 -2.394531 3.484375 -1.96875 C 3.890625 -1.539062 4.40625 -1.328125 5.03125 -1.328125 C 5.40625 -1.328125 5.785156 -1.421875 6.171875 -1.609375 C 6.566406 -1.804688 6.894531 -2.101562 7.15625 -2.5 C 7.425781 -2.894531 7.5625 -3.398438 7.5625 -4.015625 Z M 7.5625 -4.015625 "/></g></g></g><g fill="#202020" fill-opacity="1"><g transform="translate(180.414547, 272.837003)"><g><path d="M 1.375 0 L 1.375 -9.8125 L 2.84375 -9.8125 L 2.84375 -8.328125 L 2.9375 -8.328125 C 3.113281 -8.816406 3.4375 -9.210938 3.90625 -9.515625 C 4.375 -9.816406 4.90625 -9.96875 5.5 -9.96875 C 5.769531 -9.96875 6.003906 -9.9375 6.203125 -9.875 C 6.410156 -9.8125 6.59375 -9.722656 6.75 -9.609375 L 6.234375 -8.328125 C 6.128906 -8.390625 6.003906 -8.4375 5.859375 -8.46875 C 5.722656 -8.5 5.5625 -8.515625 5.375 -8.515625 C 4.65625 -8.515625 4.0625 -8.296875 3.59375 -7.859375 C 3.125 -7.421875 2.890625 -6.875 2.890625 -6.21875 L 2.890625 0 Z M 1.375 0 "/></g></g></g><g fill="#202020" fill-opacity="1"><g transform="translate(187.313537, 272.837003)"><g/></g></g><g fill="#202020" fill-opacity="1"><g transform="translate(192.372798, 272.837003)"><g><path d="M 1.375 0 L 1.375 -9.8125 L 2.84375 -9.8125 L 2.84375 -8.28125 L 2.96875 -8.28125 C 3.164062 -8.800781 3.492188 -9.207031 3.953125 -9.5 C 4.410156 -9.800781 4.957031 -9.953125 5.59375 -9.953125 C 6.25 -9.953125 6.789062 -9.800781 7.21875 -9.5 C 7.65625 -9.207031 7.992188 -8.800781 8.234375 -8.28125 L 8.328125 -8.28125 C 8.585938 -8.789062 8.96875 -9.195312 9.46875 -9.5 C 9.96875 -9.800781 10.570312 -9.953125 11.28125 -9.953125 C 12.15625 -9.953125 12.867188 -9.675781 13.421875 -9.125 C 13.984375 -8.570312 14.265625 -7.722656 14.265625 -6.578125 L 14.265625 0 L 12.765625 0 L 12.765625 -6.578125 C 12.765625 -7.296875 12.5625 -7.8125 12.15625 -8.125 C 11.757812 -8.4375 11.296875 -8.59375 10.765625 -8.59375 C 10.078125 -8.59375 9.539062 -8.382812 9.15625 -7.96875 C 8.78125 -7.550781 8.59375 -7.023438 8.59375 -6.390625 L 8.59375 0 L 7.0625 0 L 7.0625 -6.71875 C 7.0625 -7.28125 6.878906 -7.734375 6.515625 -8.078125 C 6.148438 -8.421875 5.679688 -8.59375 5.109375 -8.59375 C 4.722656 -8.59375 4.359375 -8.488281 4.015625 -8.28125 C 3.679688 -8.070312 3.410156 -7.78125 3.203125 -7.40625 C 2.992188 -7.039062 2.890625 -6.617188 2.890625 -6.140625 L 2.890625 0 Z M 1.375 0 "/></g></g></g><g fill="#202020" fill-opacity="1"><g transform="translate(208.010496, 272.837003)"><g><path d="M 5.375 0.203125 C 4.488281 0.203125 3.707031 -0.00390625 3.03125 -0.421875 C 2.363281 -0.847656 1.84375 -1.441406 1.46875 -2.203125 C 1.101562 -2.960938 0.921875 -3.847656 0.921875 -4.859375 C 0.921875 -5.878906 1.101562 -6.769531 1.46875 -7.53125 C 1.84375 -8.300781 2.363281 -8.894531 3.03125 -9.3125 C 3.707031 -9.738281 4.488281 -9.953125 5.375 -9.953125 C 6.257812 -9.953125 7.035156 -9.738281 7.703125 -9.3125 C 8.367188 -8.894531 8.882812 -8.300781 9.25 -7.53125 C 9.625 -6.769531 9.8125 -5.878906 9.8125 -4.859375 C 9.8125 -3.847656 9.625 -2.960938 9.25 -2.203125 C 8.882812 -1.441406 8.367188 -0.847656 7.703125 -0.421875 C 7.035156 -0.00390625 6.257812 0.203125 5.375 0.203125 Z M 5.375 -1.15625 C 6.039062 -1.15625 6.59375 -1.328125 7.03125 -1.671875 C 7.46875 -2.015625 7.789062 -2.46875 8 -3.03125 C 8.207031 -3.59375 8.3125 -4.203125 8.3125 -4.859375 C 8.3125 -5.515625 8.207031 -6.125 8 -6.6875 C 7.789062 -7.257812 7.46875 -7.71875 7.03125 -8.0625 C 6.59375 -8.414062 6.039062 -8.59375 5.375 -8.59375 C 4.695312 -8.59375 4.140625 -8.414062 3.703125 -8.0625 C 3.273438 -7.71875 2.953125 -7.257812 2.734375 -6.6875 C 2.523438 -6.125 2.421875 -5.515625 2.421875 -4.859375 C 2.421875 -4.203125 2.523438 -3.59375 2.734375 -3.03125 C 2.953125 -2.46875 3.273438 -2.015625 3.703125 -1.671875 C 4.140625 -1.328125 4.695312 -1.15625 5.375 -1.15625 Z M 5.375 -1.15625 "/></g></g></g><g fill="#202020" fill-opacity="1"><g transform="translate(218.74225, 272.837003)"><g><path d="M 2.890625 -5.90625 L 2.890625 0 L 1.375 0 L 1.375 -9.8125 L 2.84375 -9.8125 L 2.84375 -8.28125 L 2.96875 -8.28125 C 3.195312 -8.78125 3.546875 -9.179688 4.015625 -9.484375 C 4.484375 -9.796875 5.085938 -9.953125 5.828125 -9.953125 C 6.816406 -9.953125 7.617188 -9.644531 8.234375 -9.03125 C 8.847656 -8.425781 9.15625 -7.492188 9.15625 -6.234375 L 9.15625 0 L 7.640625 0 L 7.640625 -6.140625 C 7.640625 -6.910156 7.4375 -7.507812 7.03125 -7.9375 C 6.632812 -8.375 6.085938 -8.59375 5.390625 -8.59375 C 4.671875 -8.59375 4.070312 -8.359375 3.59375 -7.890625 C 3.125 -7.421875 2.890625 -6.757812 2.890625 -5.90625 Z M 2.890625 -5.90625 "/></g></g></g><g fill="#202020" fill-opacity="1"><g transform="translate(229.269589, 272.837003)"><g><path d="M 5.5 0.203125 C 4.550781 0.203125 3.734375 -0.00390625 3.046875 -0.421875 C 2.367188 -0.835938 1.84375 -1.425781 1.46875 -2.1875 C 1.101562 -2.945312 0.921875 -3.828125 0.921875 -4.828125 C 0.921875 -5.835938 1.101562 -6.722656 1.46875 -7.484375 C 1.84375 -8.253906 2.359375 -8.859375 3.015625 -9.296875 C 3.679688 -9.734375 4.457031 -9.953125 5.34375 -9.953125 C 5.851562 -9.953125 6.359375 -9.863281 6.859375 -9.6875 C 7.359375 -9.519531 7.8125 -9.242188 8.21875 -8.859375 C 8.625 -8.484375 8.945312 -7.976562 9.1875 -7.34375 C 9.4375 -6.71875 9.5625 -5.945312 9.5625 -5.03125 L 9.5625 -4.390625 L 2.4375 -4.390625 C 2.46875 -3.347656 2.765625 -2.546875 3.328125 -1.984375 C 3.890625 -1.429688 4.613281 -1.15625 5.5 -1.15625 C 6.09375 -1.15625 6.597656 -1.28125 7.015625 -1.53125 C 7.441406 -1.789062 7.753906 -2.175781 7.953125 -2.6875 L 9.40625 -2.28125 C 9.175781 -1.53125 8.71875 -0.925781 8.03125 -0.46875 C 7.34375 -0.0195312 6.5 0.203125 5.5 0.203125 Z M 2.4375 -5.703125 L 8.03125 -5.703125 C 8.03125 -6.535156 7.785156 -7.222656 7.296875 -7.765625 C 6.816406 -8.316406 6.164062 -8.59375 5.34375 -8.59375 C 4.769531 -8.59375 4.269531 -8.457031 3.84375 -8.1875 C 3.425781 -7.914062 3.09375 -7.5625 2.84375 -7.125 C 2.601562 -6.6875 2.46875 -6.210938 2.4375 -5.703125 Z M 2.4375 -5.703125 "/></g></g></g><g fill="#202020" fill-opacity="1"><g transform="translate(239.745831, 272.837003)"><g><path d="M 2.296875 3.8125 C 2.046875 3.8125 1.816406 3.789062 1.609375 3.75 C 1.410156 3.707031 1.273438 3.664062 1.203125 3.625 L 1.578125 2.296875 C 2.128906 2.441406 2.585938 2.441406 2.953125 2.296875 C 3.328125 2.148438 3.644531 1.707031 3.90625 0.96875 L 4.25 0.046875 L 0.609375 -9.8125 L 2.25 -9.8125 L 4.953125 -2 L 5.0625 -2 L 7.765625 -9.8125 L 9.40625 -9.8125 L 5.1875 1.578125 C 4.632812 3.066406 3.671875 3.8125 2.296875 3.8125 Z M 2.296875 3.8125 "/></g></g></g><g fill="#202020" fill-opacity="1"><g transform="translate(249.762134, 272.837003)"><g/></g></g><g fill="#202020" fill-opacity="1"><g transform="translate(254.821395, 272.837003)"><g><path d="M 5.34375 3.890625 C 4.25 3.890625 3.382812 3.6875 2.75 3.28125 C 2.113281 2.882812 1.640625 2.429688 1.328125 1.921875 L 2.53125 1.078125 C 2.664062 1.253906 2.835938 1.457031 3.046875 1.6875 C 3.253906 1.914062 3.539062 2.117188 3.90625 2.296875 C 4.269531 2.472656 4.75 2.5625 5.34375 2.5625 C 6.132812 2.5625 6.785156 2.367188 7.296875 1.984375 C 7.816406 1.597656 8.078125 0.992188 8.078125 0.171875 L 8.078125 -1.8125 L 7.953125 -1.8125 C 7.835938 -1.632812 7.675781 -1.414062 7.46875 -1.15625 C 7.269531 -0.894531 6.984375 -0.660156 6.609375 -0.453125 C 6.234375 -0.253906 5.726562 -0.15625 5.09375 -0.15625 C 4.300781 -0.15625 3.585938 -0.34375 2.953125 -0.71875 C 2.328125 -1.09375 1.832031 -1.632812 1.46875 -2.34375 C 1.101562 -3.0625 0.921875 -3.929688 0.921875 -4.953125 C 0.921875 -5.960938 1.097656 -6.84375 1.453125 -7.59375 C 1.804688 -8.34375 2.296875 -8.921875 2.921875 -9.328125 C 3.554688 -9.742188 4.285156 -9.953125 5.109375 -9.953125 C 5.753906 -9.953125 6.265625 -9.84375 6.640625 -9.625 C 7.015625 -9.414062 7.300781 -9.175781 7.5 -8.90625 C 7.707031 -8.644531 7.867188 -8.429688 7.984375 -8.265625 L 8.125 -8.265625 L 8.125 -9.8125 L 9.59375 -9.8125 L 9.59375 0.28125 C 9.59375 1.125 9.398438 1.8125 9.015625 2.34375 C 8.628906 2.875 8.113281 3.265625 7.46875 3.515625 C 6.832031 3.765625 6.125 3.890625 5.34375 3.890625 Z M 5.296875 -1.515625 C 6.203125 -1.515625 6.894531 -1.820312 7.375 -2.4375 C 7.863281 -3.050781 8.109375 -3.898438 8.109375 -4.984375 C 8.109375 -6.046875 7.867188 -6.910156 7.390625 -7.578125 C 6.910156 -8.253906 6.210938 -8.59375 5.296875 -8.59375 C 4.648438 -8.59375 4.113281 -8.429688 3.6875 -8.109375 C 3.269531 -7.785156 2.953125 -7.347656 2.734375 -6.796875 C 2.523438 -6.253906 2.421875 -5.648438 2.421875 -4.984375 C 2.421875 -3.960938 2.660156 -3.128906 3.140625 -2.484375 C 3.628906 -1.835938 4.347656 -1.515625 5.296875 -1.515625 Z M 5.296875 -1.515625 "/></g></g></g><g fill="#202020" fill-opacity="1"><g transform="translate(265.783118, 272.837003)"><g><path d="M 1.375 0 L 1.375 -9.8125 L 2.84375 -9.8125 L 2.84375 -8.328125 L 2.9375 -8.328125 C 3.113281 -8.816406 3.4375 -9.210938 3.90625 -9.515625 C 4.375 -9.816406 4.90625 -9.96875 5.5 -9.96875 C 5.769531 -9.96875 6.003906 -9.9375 6.203125 -9.875 C 6.410156 -9.8125 6.59375 -9.722656 6.75 -9.609375 L 6.234375 -8.328125 C 6.128906 -8.390625 6.003906 -8.4375 5.859375 -8.46875 C 5.722656 -8.5 5.5625 -8.515625 5.375 -8.515625 C 4.65625 -8.515625 4.0625 -8.296875 3.59375 -7.859375 C 3.125 -7.421875 2.890625 -6.875 2.890625 -6.21875 L 2.890625 0 Z M 1.375 0 "/></g></g></g><g fill="#202020" fill-opacity="1"><g transform="translate(272.682108, 272.837003)"><g><path d="M 5.375 0.203125 C 4.488281 0.203125 3.707031 -0.00390625 3.03125 -0.421875 C 2.363281 -0.847656 1.84375 -1.441406 1.46875 -2.203125 C 1.101562 -2.960938 0.921875 -3.847656 0.921875 -4.859375 C 0.921875 -5.878906 1.101562 -6.769531 1.46875 -7.53125 C 1.84375 -8.300781 2.363281 -8.894531 3.03125 -9.3125 C 3.707031 -9.738281 4.488281 -9.953125 5.375 -9.953125 C 6.257812 -9.953125 7.035156 -9.738281 7.703125 -9.3125 C 8.367188 -8.894531 8.882812 -8.300781 9.25 -7.53125 C 9.625 -6.769531 9.8125 -5.878906 9.8125 -4.859375 C 9.8125 -3.847656 9.625 -2.960938 9.25 -2.203125 C 8.882812 -1.441406 8.367188 -0.847656 7.703125 -0.421875 C 7.035156 -0.00390625 6.257812 0.203125 5.375 0.203125 Z M 5.375 -1.15625 C 6.039062 -1.15625 6.59375 -1.328125 7.03125 -1.671875 C 7.46875 -2.015625 7.789062 -2.46875 8 -3.03125 C 8.207031 -3.59375 8.3125 -4.203125 8.3125 -4.859375 C 8.3125 -5.515625 8.207031 -6.125 8 -6.6875 C 7.789062 -7.257812 7.46875 -7.71875 7.03125 -8.0625 C 6.59375 -8.414062 6.039062 -8.59375 5.375 -8.59375 C 4.695312 -8.59375 4.140625 -8.414062 3.703125 -8.0625 C 3.273438 -7.71875 2.953125 -7.257812 2.734375 -6.6875 C 2.523438 -6.125 2.421875 -5.515625 2.421875 -4.859375 C 2.421875 -4.203125 2.523438 -3.59375 2.734375 -3.03125 C 2.953125 -2.46875 3.273438 -2.015625 3.703125 -1.671875 C 4.140625 -1.328125 4.695312 -1.15625 5.375 -1.15625 Z M 5.375 -1.15625 "/></g></g></g><g fill="#202020" fill-opacity="1"><g transform="translate(283.41385, 272.837003)"><g><path d="M 3.609375 0 L 0.609375 -9.8125 L 2.203125 -9.8125 L 4.328125 -2.296875 L 4.421875 -2.296875 L 6.515625 -9.8125 L 8.125 -9.8125 L 10.203125 -2.328125 L 10.296875 -2.328125 L 12.421875 -9.8125 L 14.015625 -9.8125 L 11.015625 0 L 9.53125 0 L 7.390625 -7.546875 L 7.234375 -7.546875 L 5.09375 0 Z M 3.609375 0 "/></g></g></g><g fill="#202020" fill-opacity="1"><g transform="translate(298.029465, 272.837003)"><g><path d="M 3.375 -13.09375 L 3.25 -3.6875 L 1.765625 -3.6875 L 1.640625 -13.09375 Z M 2.5 0.109375 C 2.1875 0.109375 1.914062 -0.00390625 1.6875 -0.234375 C 1.46875 -0.460938 1.359375 -0.734375 1.359375 -1.046875 C 1.359375 -1.359375 1.46875 -1.628906 1.6875 -1.859375 C 1.914062 -2.085938 2.1875 -2.203125 2.5 -2.203125 C 2.820312 -2.203125 3.09375 -2.085938 3.3125 -1.859375 C 3.539062 -1.628906 3.65625 -1.359375 3.65625 -1.046875 C 3.65625 -0.734375 3.539062 -0.460938 3.3125 -0.234375 C 3.09375 -0.00390625 2.820312 0.109375 2.5 0.109375 Z M 2.5 0.109375 "/></g></g></g></svg>