<?xml version="1.0" standalone="no"?>
<!DOCTYPE svg PUBLIC "-//W3C//DTD SVG 20010904//EN"
 "http://www.w3.org/TR/2001/REC-SVG-20010904/DTD/svg10.dtd">
<svg version="1.0" xmlns="http://www.w3.org/2000/svg"
 width="512.000000pt" height="157px" viewBox="0 0 512.000000 81.000000"
 preserveAspectRatio="xMidYMid meet">

<g transform="translate(0.000000,81.000000) scale(0.100000,-0.100000)"
fill="#000000" stroke="none">
<path d="M30 405 l0 -375 45 0 45 0 0 170 0 170 165 0 165 0 0 40 0 40 -165 0
-165 0 0 130 0 130 180 0 180 0 0 35 0 35 -225 0 -225 0 0 -375z"/>
<path d="M2190 645 c0 -74 -4 -135 -9 -135 -5 0 -16 11 -25 25 -29 44 -75 65
-140 65 -105 0 -187 -59 -221 -159 -19 -56 -19 -202 -1 -254 36 -101 122 -167
217 -167 65 0 95 13 140 63 l39 42 0 -48 0 -47 40 0 40 0 0 375 0 375 -40 0
-40 0 0 -135z m-107 -129 c74 -31 113 -114 105 -227 -9 -120 -71 -193 -164
-191 -93 1 -153 72 -162 191 -5 80 9 139 45 182 47 55 112 72 176 45z"/>
<path d="M2460 405 l0 -375 45 0 45 0 0 170 0 170 200 0 200 0 0 -170 0 -170
45 0 45 0 0 375 0 375 -45 0 -45 0 0 -165 0 -165 -200 0 -200 0 0 165 0 165
-45 0 -45 0 0 -375z"/>
<path d="M602 367 l3 -234 28 -36 c39 -51 80 -70 150 -70 63 1 96 16 139 67
l27 31 1 -47 0 -48 45 0 45 0 0 285 0 285 -44 0 -45 0 -3 -205 -3 -205 -37
-36 c-31 -32 -45 -38 -91 -42 -41 -3 -61 0 -81 13 -51 34 -56 57 -56 275 l0
200 -41 0 -40 0 3 -233z"/>
<path d="M1200 315 l0 -285 40 0 40 0 0 193 c0 211 6 240 63 281 38 28 125 28
164 0 45 -33 52 -70 52 -281 l1 -193 41 0 40 0 -3 228 c-3 224 -3 229 -28 265
-36 52 -86 77 -154 77 -71 0 -115 -18 -149 -61 l-27 -34 0 48 0 47 -40 0 -40
0 0 -285z"/>
<path d="M3336 580 c-91 -45 -137 -123 -144 -243 -11 -178 77 -301 225 -314
89 -8 140 10 199 71 39 40 54 65 67 112 60 213 -52 395 -242 394 -45 -1 -79
-7 -105 -20z m167 -64 c70 -29 110 -104 110 -206 0 -111 -47 -187 -128 -209
-124 -32 -228 83 -212 237 15 142 121 224 230 178z"/>
<path d="M3832 378 c3 -222 3 -223 30 -269 33 -56 81 -82 153 -82 61 0 103 20
144 70 l31 38 0 -53 0 -52 40 0 40 0 0 285 0 285 -40 0 -40 0 0 -187 c0 -159
-3 -193 -18 -223 -40 -80 -151 -108 -212 -52 -43 37 -49 77 -50 285 l0 177
-41 0 -41 0 4 -222z"/>
<path d="M4519 577 c-58 -31 -89 -77 -89 -134 0 -90 44 -130 179 -163 106 -27
127 -37 141 -69 24 -60 -32 -114 -120 -115 -60 -1 -107 20 -126 56 -14 27 -19
29 -52 23 -20 -4 -38 -8 -40 -10 -7 -7 27 -72 49 -92 34 -31 102 -53 164 -53
126 0 215 70 215 170 0 84 -44 122 -185 160 -43 11 -90 27 -106 36 -56 29 -47
103 16 130 69 28 143 12 182 -41 17 -23 21 -25 51 -14 17 6 32 14 32 18 0 21
-50 78 -85 98 -57 32 -165 32 -226 0z"/>
<path d="M5012 150 c-31 -13 -46 -55 -30 -88 26 -55 118 -33 118 27 0 32 -8
44 -37 60 -25 13 -21 13 -51 1z"/>
</g>
</svg>
